<?xml version="1.0" encoding="UTF-8"?>
<!DOCTYPE svg PUBLIC "-//W3C//DTD SVG 1.1//EN" "http://www.w3.org/Graphics/SVG/1.1/DTD/svg11.dtd">
<svg xmlns="http://www.w3.org/2000/svg" version="1.1" width="225px" height="225px" style="shape-rendering:geometricPrecision; text-rendering:geometricPrecision; image-rendering:optimizeQuality; fill-rule:evenodd; clip-rule:evenodd" xmlns:xlink="http://www.w3.org/1999/xlink">
<g><path style="opacity:1" fill="#fefefe" d="M -0.5,-0.5 C 74.5,-0.5 149.5,-0.5 224.5,-0.5C 224.5,74.5 224.5,149.5 224.5,224.5C 149.5,224.5 74.5,224.5 -0.5,224.5C -0.5,149.5 -0.5,74.5 -0.5,-0.5 Z"/></g>
<g><path style="opacity:1" fill="#060606" d="M 47.5,53.5 C 89.8346,53.3333 132.168,53.5 174.5,54C 183.672,55.8459 187.172,61.3459 185,70.5C 184.047,72.4552 182.713,74.1218 181,75.5C 180.986,90.2434 179.986,104.91 178,119.5C 168.876,148.958 149.043,165.791 118.5,170C 81.8576,171.094 57.691,154.261 46,119.5C 43.4885,105.345 42.9885,91.1783 44.5,77C 38.4631,72.3624 36.9631,66.5291 40,59.5C 42.1141,56.8792 44.6141,54.8792 47.5,53.5 Z"/></g>
<g><path style="opacity:1" fill="#f9f9f9" d="M 48.5,59.5 C 91.168,59.3333 133.835,59.5 176.5,60C 179.349,62.5594 180.183,65.7261 179,69.5C 178.097,70.7014 176.931,71.5348 175.5,72C 133.167,72.6667 90.8333,72.6667 48.5,72C 42.0469,67.9331 42.0469,63.7664 48.5,59.5 Z"/></g>
<g><path style="opacity:1" fill="#f6f6f6" d="M 49.5,78.5 C 61.5,78.5 73.5,78.5 85.5,78.5C 83.4478,94.8276 80.1145,110.828 75.5,126.5C 67.6204,122.484 59.4537,119.151 51,116.5C 49.7122,109.563 49.2122,102.563 49.5,95.5C 56.175,95.6663 62.8417,95.4996 69.5,95C 70.8333,93.6667 70.8333,92.3333 69.5,91C 62.8417,90.5004 56.175,90.3337 49.5,90.5C 49.5,86.5 49.5,82.5 49.5,78.5 Z"/></g>
<g><path style="opacity:1" fill="#fcfcfc" d="M 91.5,78.5 C 105.167,78.5 118.833,78.5 132.5,78.5C 135.563,94.649 138.563,110.816 141.5,127C 139.265,132.265 135.765,136.765 131,140.5C 125.465,147.602 121.965,155.602 120.5,164.5C 114.833,164.5 109.167,164.5 103.5,164.5C 102.412,157.32 99.9119,150.654 96,144.5C 91.4646,138.968 86.6313,133.801 81.5,129C 85.1553,112.224 88.4886,95.3902 91.5,78.5 Z"/></g>
<g><path style="opacity:1" fill="#f7f7f7" d="M 138.5,78.5 C 150.5,78.5 162.5,78.5 174.5,78.5C 174.5,82.5 174.5,86.5 174.5,90.5C 167.825,90.3337 161.158,90.5004 154.5,91C 153.167,92.3333 153.167,93.6667 154.5,95C 161.158,95.4996 167.825,95.6663 174.5,95.5C 174.788,102.563 174.288,109.563 173,116.5C 164.279,118.852 155.946,122.185 148,126.5C 143.867,110.703 140.7,94.7029 138.5,78.5 Z"/></g>
<g><path style="opacity:1" fill="#f7f7f7" d="M 53.5,123.5 C 75.3245,127.998 89.9912,140.665 97.5,161.5C 75.9264,157.287 61.2597,144.62 53.5,123.5 Z"/></g>
<g><path style="opacity:1" fill="#f7f7f7" d="M 168.5,123.5 C 169.376,123.369 170.043,123.702 170.5,124.5C 162.326,145.041 147.659,157.375 126.5,161.5C 129.556,151.274 135.223,142.774 143.5,136C 151.368,130.733 159.701,126.566 168.5,123.5 Z"/></g>
</svg>
