<?xml version="1.0" encoding="UTF-8"?>
<!DOCTYPE svg PUBLIC "-//W3C//DTD SVG 1.1//EN" "http://www.w3.org/Graphics/SVG/1.1/DTD/svg11.dtd">
<svg xmlns="http://www.w3.org/2000/svg" version="1.1" width="225px" height="225px" style="shape-rendering:geometricPrecision; text-rendering:geometricPrecision; image-rendering:optimizeQuality; fill-rule:evenodd; clip-rule:evenodd" xmlns:xlink="http://www.w3.org/1999/xlink">
<g><path style="opacity:1" fill="#fefefe" d="M -0.5,-0.5 C 74.5,-0.5 149.5,-0.5 224.5,-0.5C 224.5,74.5 224.5,149.5 224.5,224.5C 149.5,224.5 74.5,224.5 -0.5,224.5C -0.5,149.5 -0.5,74.5 -0.5,-0.5 Z"/></g>
<g><path style="opacity:1" fill="#040404" d="M 95.5,41.5 C 108.758,41.5933 113.258,47.9266 109,60.5C 99.7232,80.664 93.0566,101.664 89,123.5C 87.1916,132.284 88.8583,140.284 94,147.5C 95.5743,161.511 90.741,172.678 79.5,181C 73.3653,183.841 68.1986,182.675 64,177.5C 62.2895,175.044 60.9562,172.377 60,169.5C 59.3333,163.167 59.3333,156.833 60,150.5C 61.2235,146.385 63.2235,142.718 66,139.5C 72.9779,135.887 77.3113,130.22 79,122.5C 84.805,98.5295 87.805,74.1961 88,49.5C 89.5196,45.8424 92.0196,43.1757 95.5,41.5 Z"/></g>
<g><path style="opacity:1" fill="#0a0a0a" d="M 110.5,65.5 C 124.837,65.3334 139.171,65.5001 153.5,66C 155.09,69.504 156.757,73.004 158.5,76.5C 141.167,77.8333 123.833,77.8333 106.5,76.5C 108.125,72.9205 109.459,69.2538 110.5,65.5 Z"/></g>
<g><path style="opacity:1" fill="#fdfdfd" d="M 129.5,71.5 C 136.833,71.5 144.167,71.5 151.5,71.5C 151.5,72.5 151.5,73.5 151.5,74.5C 144.167,74.5 136.833,74.5 129.5,74.5C 129.5,73.5 129.5,72.5 129.5,71.5 Z"/></g>
<g><path style="opacity:1" fill="#010101" d="M 164.5,97.5 C 164.5,100.167 164.5,102.833 164.5,105.5C 141.833,105.5 119.167,105.5 96.5,105.5C 98.7561,97.7334 101.423,90.0668 104.5,82.5C 120.486,81.5006 136.486,81.1672 152.5,81.5C 152.491,83.3084 152.991,84.9751 154,86.5C 157,88.8333 160,91.1667 163,93.5C 163.791,94.745 164.291,96.0783 164.5,97.5 Z"/></g>
<g><path style="opacity:1" fill="#999999" d="M 164.5,97.5 C 165.477,100.287 165.81,103.287 165.5,106.5C 142.327,106.831 119.327,106.498 96.5,105.5C 119.167,105.5 141.833,105.5 164.5,105.5C 164.5,102.833 164.5,100.167 164.5,97.5 Z"/></g>
<g><path style="opacity:1" fill="#010101" d="M 164.5,109.5 C 164.5,123.5 164.5,137.5 164.5,151.5C 142.5,151.5 120.5,151.5 98.5,151.5C 98.7373,150.209 98.404,149.209 97.5,148.5C 95.3817,143.086 93.3817,137.586 91.5,132C 92.7816,124.476 94.1149,116.976 95.5,109.5C 118.5,109.5 141.5,109.5 164.5,109.5 Z"/></g>
<g><path style="opacity:1" fill="#e4e4e4" d="M 74.5,138.5 C 77.5184,138.335 80.5184,138.502 83.5,139C 84.3366,140.011 84.67,141.178 84.5,142.5C 75.4508,140.426 69.9508,143.76 68,152.5C 66.9887,153.337 65.8221,153.67 64.5,153.5C 64.6208,146.234 67.9542,141.234 74.5,138.5 Z"/></g>
<g><path style="opacity:1" fill="#7c7c7c" d="M 164.5,109.5 C 165.496,123.657 165.829,137.99 165.5,152.5C 142.833,152.5 120.167,152.5 97.5,152.5C 97.5,151.167 97.5,149.833 97.5,148.5C 98.404,149.209 98.7373,150.209 98.5,151.5C 120.5,151.5 142.5,151.5 164.5,151.5C 164.5,137.5 164.5,123.5 164.5,109.5 Z"/></g>
<g><path style="opacity:1" fill="#020202" d="M 97.5,155.5 C 120.167,155.5 142.833,155.5 165.5,155.5C 166.431,163.807 163.098,169.641 155.5,173C 137.544,174.598 119.544,174.931 101.5,174C 98.2415,173.997 95.5749,172.83 93.5,170.5C 96.4692,165.927 97.8026,160.927 97.5,155.5 Z"/></g>
</svg>
