<?xml version="1.0" encoding="UTF-8"?>
<!DOCTYPE svg PUBLIC "-//W3C//DTD SVG 1.1//EN" "http://www.w3.org/Graphics/SVG/1.1/DTD/svg11.dtd">
<svg xmlns="http://www.w3.org/2000/svg" version="1.1" width="296px" height="171px" style="shape-rendering:geometricPrecision; text-rendering:geometricPrecision; image-rendering:optimizeQuality; fill-rule:evenodd; clip-rule:evenodd" xmlns:xlink="http://www.w3.org/1999/xlink">
<g><path style="opacity:1" fill="#f6f6f6" d="M -0.5,-0.5 C 42.5,-0.5 85.5,-0.5 128.5,-0.5C 127.17,6.13673 127.17,12.8034 128.5,19.5C 104.275,52.0636 93.4418,88.7303 96,129.5C 96.8197,140.089 98.8197,150.422 102,160.5C 104.529,163.885 107.696,166.218 111.5,167.5C 110.884,168.202 110.884,169.202 111.5,170.5C 74.1667,170.5 36.8333,170.5 -0.5,170.5C -0.5,113.5 -0.5,56.5 -0.5,-0.5 Z"/></g>
<g><path style="opacity:1" fill="#0b0b0b" d="M 128.5,-0.5 C 141.167,-0.5 153.833,-0.5 166.5,-0.5C 167.816,6.33357 167.816,13.1669 166.5,20C 189.048,48.9776 200.048,81.9776 199.5,119C 199.108,131.638 197.608,144.138 195,156.5C 193.217,162.157 189.384,165.657 183.5,167C 159.502,167.5 135.502,167.667 111.5,167.5C 107.696,166.218 104.529,163.885 102,160.5C 98.8197,150.422 96.8197,140.089 96,129.5C 93.4418,88.7303 104.275,52.0636 128.5,19.5C 127.17,12.8034 127.17,6.13673 128.5,-0.5 Z"/></g>
<g><path style="opacity:1" fill="#f5f5f5" d="M 166.5,-0.5 C 209.5,-0.5 252.5,-0.5 295.5,-0.5C 295.5,56.5 295.5,113.5 295.5,170.5C 234.167,170.5 172.833,170.5 111.5,170.5C 110.884,169.202 110.884,168.202 111.5,167.5C 135.502,167.667 159.502,167.5 183.5,167C 189.384,165.657 193.217,162.157 195,156.5C 197.608,144.138 199.108,131.638 199.5,119C 200.048,81.9776 189.048,48.9776 166.5,20C 167.816,13.1669 167.816,6.33357 166.5,-0.5 Z"/></g>
<g><path style="opacity:1" fill="#eeeeee" d="M 131.5,3.5 C 134.167,3.5 136.833,3.5 139.5,3.5C 139.5,7.5 139.5,11.5 139.5,15.5C 136.833,15.5 134.167,15.5 131.5,15.5C 131.5,11.5 131.5,7.5 131.5,3.5 Z"/></g>
<g><path style="opacity:1" fill="#ebebeb" d="M 143.5,3.5 C 146.167,3.5 148.833,3.5 151.5,3.5C 151.5,7.5 151.5,11.5 151.5,15.5C 148.833,15.5 146.167,15.5 143.5,15.5C 143.5,11.5 143.5,7.5 143.5,3.5 Z"/></g>
<g><path style="opacity:1" fill="#f2f2f2" d="M 155.5,3.5 C 158.167,3.5 160.833,3.5 163.5,3.5C 163.5,7.5 163.5,11.5 163.5,15.5C 160.833,15.5 158.167,15.5 155.5,15.5C 155.5,11.5 155.5,7.5 155.5,3.5 Z"/></g>
<g><path style="opacity:1" fill="#f4f4f4" d="M 194.5,106.5 C 195.036,109.698 194.369,112.365 192.5,114.5C 186.223,113.199 180.223,111.033 174.5,108C 167.824,106.059 161.157,106.059 154.5,108C 149.833,110 145.167,112 140.5,114C 134.833,114.667 129.167,114.667 123.5,114C 116.376,109.792 108.709,107.292 100.5,106.5C 102.075,74.0913 113.075,45.4247 133.5,20.5C 142.833,19.1667 152.167,19.1667 161.5,20.5C 182.322,45.2837 193.322,73.9504 194.5,106.5 Z"/></g>
<g><path style="opacity:1" fill="#0f0f0f" d="M 157.5,43.5 C 162.874,42.9369 167.041,44.9369 170,49.5C 178.505,64.015 180.505,79.3483 176,95.5C 171.428,100.812 166.761,100.812 162,95.5C 153.613,81.5657 150.613,66.5657 153,50.5C 154.012,47.7982 155.512,45.4649 157.5,43.5 Z"/></g>
<g><path style="opacity:1" fill="#f2f2f2" d="M 159.5,47.5 C 161.582,47.472 163.416,48.1387 165,49.5C 173.103,62.0106 176.103,75.6772 174,90.5C 173.218,93.0758 171.718,95.0758 169.5,96.5C 162.746,90.3313 158.579,82.6647 157,73.5C 155.218,66.1481 155.218,58.8148 157,51.5C 157.662,50.0161 158.496,48.6828 159.5,47.5 Z"/></g>
<g><path style="opacity:1" fill="#f4f4f4" d="M 100.5,123.5 C 100.5,119.5 100.5,115.5 100.5,111.5C 102.167,111.5 103.833,111.5 105.5,111.5C 111.356,113.092 117.023,115.258 122.5,118C 129.567,118.839 136.567,118.506 143.5,117C 151.432,111.687 160.099,109.687 169.5,111C 175.713,112.773 181.713,115.106 187.5,118C 194.217,116.716 196.883,119.383 195.5,126C 195.052,135.596 193.885,145.096 192,154.5C 190.5,158.667 187.667,161.5 183.5,163C 159.5,163.667 135.5,163.667 111.5,163C 107.942,161.108 105.442,158.275 104,154.5C 101.474,144.319 100.307,133.986 100.5,123.5 Z"/></g>
<g><path style="opacity:1" fill="#7a7a7a" d="M 194.5,106.5 C 195.477,109.287 195.81,112.287 195.5,115.5C 194.209,115.737 193.209,115.404 192.5,114.5C 194.369,112.365 195.036,109.698 194.5,106.5 Z"/></g>
<g><path style="opacity:1" fill="#666666" d="M 105.5,111.5 C 103.833,111.5 102.167,111.5 100.5,111.5C 100.5,115.5 100.5,119.5 100.5,123.5C 99.5151,119.366 99.1818,115.032 99.5,110.5C 101.735,110.205 103.735,110.539 105.5,111.5 Z"/></g>
</svg>
