<?xml version="1.0" encoding="UTF-8"?>
<!DOCTYPE svg PUBLIC "-//W3C//DTD SVG 1.1//EN" "http://www.w3.org/Graphics/SVG/1.1/DTD/svg11.dtd">
<svg xmlns="http://www.w3.org/2000/svg" version="1.1" width="225px" height="225px" style="shape-rendering:geometricPrecision; text-rendering:geometricPrecision; image-rendering:optimizeQuality; fill-rule:evenodd; clip-rule:evenodd" xmlns:xlink="http://www.w3.org/1999/xlink">
<g><path style="opacity:1" fill="#fdfdfd" d="M -0.5,-0.5 C 74.5,-0.5 149.5,-0.5 224.5,-0.5C 224.5,74.5 224.5,149.5 224.5,224.5C 149.5,224.5 74.5,224.5 -0.5,224.5C -0.5,149.5 -0.5,74.5 -0.5,-0.5 Z"/></g>
<g><path style="opacity:1" fill="#060606" d="M 65.5,189.5 C 65.5,191.5 65.5,193.5 65.5,195.5C 47.992,195.17 30.6586,195.503 13.5,196.5C 12.4614,201.849 13.7947,206.349 17.5,210C 42.8333,210.667 68.1667,210.667 93.5,210C 96.6928,208.974 98.0262,206.808 97.5,203.5C 99.8333,203.5 102.167,203.5 104.5,203.5C 103.885,210.951 99.8851,215.451 92.5,217C 67.8333,217.667 43.1667,217.667 18.5,217C 12,215.833 8.16667,212 7,205.5C 6.33333,172.167 6.33333,138.833 7,105.5C 7.46994,98.5738 9.96994,92.5738 14.5,87.5C 16.1667,88.6667 17.8333,89.8333 19.5,91C 15.6454,96.2067 13.6454,102.04 13.5,108.5C 24.1667,108.5 34.8333,108.5 45.5,108.5C 45.5,99.1667 45.5,89.8333 45.5,80.5C 36.6403,78.7422 29.1403,81.0756 23,87.5C 21.3149,85.9825 19.8149,84.3159 18.5,82.5C 21.7743,78.8546 25.7743,76.188 30.5,74.5C 31.3311,67.5236 31.8311,60.5236 32,53.5C 36.4014,52.5333 40.9014,52.2 45.5,52.5C 45.5,46.5 45.5,40.5 45.5,34.5C 40.9014,34.8 36.4014,34.4667 32,33.5C 31.1681,24.8142 31.3348,16.1475 32.5,7.5C 47.7887,6.34952 63.122,6.18286 78.5,7C 79.3567,7.68909 80.0233,8.52242 80.5,9.5C 89.1475,10.3319 97.8142,10.8319 106.5,11C 115.818,13.9846 121.152,20.3179 122.5,30C 122.561,31.7106 121.894,33.044 120.5,34C 114.833,34.6667 109.167,34.6667 103.5,34C 99.7168,31.3969 95.3835,30.2302 90.5,30.5C 87.1667,30.8333 83.8333,31.1667 80.5,31.5C 80.0233,32.4776 79.3567,33.3109 78.5,34C 74.5138,34.4988 70.5138,34.6655 66.5,34.5C 66.5,40.5 66.5,46.5 66.5,52.5C 70.5138,52.3345 74.5138,52.5012 78.5,53C 79,53.5 79.5,54 80,54.5C 80.3333,61.1667 80.6667,67.8333 81,74.5C 98.1336,82.7603 105.967,96.427 104.5,115.5C 74.1667,115.5 43.8333,115.5 13.5,115.5C 13.5,140.167 13.5,164.833 13.5,189.5C 30.8333,189.5 48.1667,189.5 65.5,189.5 Z"/></g>
<g><path style="opacity:1" fill="#fafafa" d="M 37.5,13.5 C 49.5,13.5 61.5,13.5 73.5,13.5C 73.5,18.1667 73.5,22.8333 73.5,27.5C 61.5,27.5 49.5,27.5 37.5,27.5C 37.5,22.8333 37.5,18.1667 37.5,13.5 Z"/></g>
<g><path style="opacity:1" fill="#ededed" d="M 80.5,16.5 C 88.1739,16.3336 95.8406,16.5003 103.5,17C 109.681,18.0165 113.347,21.5165 114.5,27.5C 111.482,27.6646 108.482,27.498 105.5,27C 104.833,26.3333 104.167,25.6667 103.5,25C 95.8406,24.5003 88.1739,24.3336 80.5,24.5C 80.5,21.8333 80.5,19.1667 80.5,16.5 Z"/></g>
<g><path style="opacity:1" fill="#f8f8f8" d="M 52.5,34.5 C 54.8333,34.5 57.1667,34.5 59.5,34.5C 59.5,40.5 59.5,46.5 59.5,52.5C 57.1667,52.5 54.8333,52.5 52.5,52.5C 52.5,46.5 52.5,40.5 52.5,34.5 Z"/></g>
<g><path style="opacity:1" fill="#070707" d="M 109.5,45.5 C 112.325,45.1616 114.492,46.1616 116,48.5C 119,53.8333 122,59.1667 125,64.5C 127.07,78.0976 121.236,84.2642 107.5,83C 99.6953,79.2192 96.862,73.0525 99,64.5C 102.524,58.1124 106.024,51.779 109.5,45.5 Z"/></g>
<g><path style="opacity:1" fill="#f4f4f4" d="M 111.5,55.5 C 114.661,59.8156 117.328,64.4823 119.5,69.5C 118.189,75.6426 114.523,77.8093 108.5,76C 106.274,74.3805 104.94,72.2138 104.5,69.5C 106.823,64.8395 109.156,60.1728 111.5,55.5 Z"/></g>
<g><path style="opacity:1" fill="#f9f9f9" d="M 37.5,59.5 C 49.5,59.5 61.5,59.5 73.5,59.5C 73.5,64.1667 73.5,68.8333 73.5,73.5C 61.5,73.5 49.5,73.5 37.5,73.5C 37.5,68.8333 37.5,64.1667 37.5,59.5 Z"/></g>
<g><path style="opacity:1" fill="#fbfbfb" d="M 52.5,80.5 C 54.8333,80.5 57.1667,80.5 59.5,80.5C 59.5,89.8333 59.5,99.1667 59.5,108.5C 57.1667,108.5 54.8333,108.5 52.5,108.5C 52.5,99.1667 52.5,89.8333 52.5,80.5 Z"/></g>
<g><path style="opacity:1" fill="#fdfdfd" d="M 66.5,80.5 C 85.6627,79.9938 95.996,89.3272 97.5,108.5C 87.1667,108.5 76.8333,108.5 66.5,108.5C 66.5,99.1667 66.5,89.8333 66.5,80.5 Z"/></g>
<g><path style="opacity:1" fill="#0b0b0b" d="M 32.5,88.5 C 35.5409,88.3794 37.2076,89.8794 37.5,93C 35.0664,95.4336 32.5664,97.9336 30,100.5C 28.9914,102.025 28.4914,103.692 28.5,105.5C 26.1944,105.007 23.861,104.674 21.5,104.5C 23.1916,97.7755 26.8583,92.4421 32.5,88.5 Z"/></g>
<g><path style="opacity:1" fill="#090909" d="M 164.5,115.5 C 176.979,114.871 188.646,117.538 199.5,123.5C 198.815,125.547 197.649,127.214 196,128.5C 177.799,120.396 159.633,120.563 141.5,129C 127.5,129.333 113.5,129.667 99.5,130C 94.9324,132.587 93.4324,136.421 95,141.5C 96.1667,144 98,145.833 100.5,147C 112.5,147.333 124.5,147.667 136.5,148C 143.498,151.182 145.331,156.349 142,163.5C 140.269,165.617 138.102,167.117 135.5,168C 121.167,168.667 106.833,168.667 92.5,168C 80.3591,155.77 68.0258,143.77 55.5,132C 49.9376,128.399 44.7709,128.899 40,133.5C 38.4961,137.039 38.1628,140.705 39,144.5C 52.8621,158.696 67.0287,172.529 81.5,186C 83.5,187 85.5,188 87.5,189C 128.499,189.5 169.499,189.667 210.5,189.5C 210.833,172.154 210.5,154.821 209.5,137.5C 202.919,135.294 202.086,131.96 207,127.5C 210.555,129.937 213.888,132.604 217,135.5C 217.667,155.167 217.667,174.833 217,194.5C 216.5,195 216,195.5 215.5,196C 172.5,196.667 129.5,196.667 86.5,196C 82.6002,194.435 78.9335,192.435 75.5,190C 61.2792,175.779 47.1126,161.613 33,147.5C 29.0247,133.445 34.1914,125.111 48.5,122.5C 52.0743,122.969 55.4076,124.136 58.5,126C 70.8333,137.667 83.1667,149.333 95.5,161C 108.5,161.667 121.5,161.667 134.5,161C 136.602,159.267 136.935,157.267 135.5,155C 123.833,154.667 112.167,154.333 100.5,154C 90.6184,150.749 86.4518,143.915 88,133.5C 90.2563,128.243 94.0896,124.743 99.5,123C 113.5,122.667 127.5,122.333 141.5,122C 149.081,119.078 156.748,116.911 164.5,115.5 Z"/></g>
<g><path style="opacity:1" fill="#333333" d="M 65.5,189.5 C 66.4682,191.607 66.8016,193.941 66.5,196.5C 48.8333,196.5 31.1667,196.5 13.5,196.5C 30.6586,195.503 47.992,195.17 65.5,195.5C 65.5,193.5 65.5,191.5 65.5,189.5 Z"/></g>
</svg>
