<?xml version="1.0" encoding="UTF-8"?>
<!DOCTYPE svg PUBLIC "-//W3C//DTD SVG 1.1//EN" "http://www.w3.org/Graphics/SVG/1.1/DTD/svg11.dtd">
<svg xmlns="http://www.w3.org/2000/svg" version="1.1" width="225px" height="225px" style="shape-rendering:geometricPrecision; text-rendering:geometricPrecision; image-rendering:optimizeQuality; fill-rule:evenodd; clip-rule:evenodd" xmlns:xlink="http://www.w3.org/1999/xlink">
<g><path style="opacity:1" fill="#fefefe" d="M -0.5,-0.5 C 67.1667,-0.5 134.833,-0.5 202.5,-0.5C 191.853,8.47709 181.186,17.4771 170.5,26.5C 179.167,35.8333 188.167,44.8333 197.5,53.5C 206.72,43.1129 215.387,32.2795 223.5,21C 217.008,13.6744 210.341,6.50778 203.5,-0.5C 210.5,-0.5 217.5,-0.5 224.5,-0.5C 224.5,74.5 224.5,149.5 224.5,224.5C 149.5,224.5 74.5,224.5 -0.5,224.5C -0.5,149.5 -0.5,74.5 -0.5,-0.5 Z"/></g>
<g><path style="opacity:1" fill="#020202" d="M 202.5,-0.5 C 202.833,-0.5 203.167,-0.5 203.5,-0.5C 210.341,6.50778 217.008,13.6744 223.5,21C 215.387,32.2795 206.72,43.1129 197.5,53.5C 188.167,44.8333 179.167,35.8333 170.5,26.5C 181.186,17.4771 191.853,8.47709 202.5,-0.5 Z"/></g>
<g><path style="opacity:1" fill="#000000" d="M 151.5,25.5 C 167.915,40.4122 183.915,55.9122 199.5,72C 161.333,115.5 123.167,159 85,202.5C 63.8333,181.333 42.6667,160.167 21.5,139C 64.7304,100.929 108.064,63.0954 151.5,25.5 Z"/></g>
<g><path style="opacity:1" fill="#080808" d="M 9.5,148.5 C 10.552,148.351 11.552,148.517 12.5,149C 33.3333,169.833 54.1667,190.667 75,211.5C 73.9542,216.046 71.4542,219.879 67.5,223C 66.8333,223.667 66.1667,223.667 65.5,223C 44,201.5 22.5,180 1,158.5C 0.333333,157.833 0.333333,157.167 1,156.5C 4.33292,154.333 7.16625,151.666 9.5,148.5 Z"/></g>
</svg>
