<?xml version="1.0" encoding="UTF-8"?>
<!DOCTYPE svg PUBLIC "-//W3C//DTD SVG 1.1//EN" "http://www.w3.org/Graphics/SVG/1.1/DTD/svg11.dtd">
<svg xmlns="http://www.w3.org/2000/svg" version="1.1" width="225px" height="225px" style="shape-rendering:geometricPrecision; text-rendering:geometricPrecision; image-rendering:optimizeQuality; fill-rule:evenodd; clip-rule:evenodd" xmlns:xlink="http://www.w3.org/1999/xlink">
<g><path style="opacity:1" fill="#fefefe" d="M -0.5,-0.5 C 65.5,-0.5 131.5,-0.5 197.5,-0.5C 171.871,7.14895 148.537,19.3156 127.5,36C 121.947,36.6093 116.947,38.6093 112.5,42C 105.873,47.6201 100.373,54.1201 96,61.5C 87.5,70 79,78.5 70.5,87C 62.2458,89.9168 55.7458,95.0835 51,102.5C 47.221,107.723 44.221,113.39 42,119.5C 27.1466,137.859 14.8133,157.859 5,179.5C 2.81821,185.535 0.984878,191.535 -0.5,197.5C -0.5,131.5 -0.5,65.5 -0.5,-0.5 Z"/></g>
<g><path style="opacity:1" fill="#090809" d="M 197.5,-0.5 C 200.5,-0.5 203.5,-0.5 206.5,-0.5C 216.181,0.676333 222.181,6.00967 224.5,15.5C 224.5,19.1667 224.5,22.8333 224.5,26.5C 219.919,43.0504 213.086,58.717 204,73.5C 165.078,132.759 114.911,179.926 53.5,215C 44.5962,218.802 35.5962,221.969 26.5,224.5C 22.5,224.5 18.5,224.5 14.5,224.5C 5.72882,221.615 0.728816,215.615 -0.5,206.5C -0.5,203.5 -0.5,200.5 -0.5,197.5C 0.984878,191.535 2.81821,185.535 5,179.5C 14.8133,157.859 27.1466,137.859 42,119.5C 44.221,113.39 47.221,107.723 51,102.5C 55.7458,95.0835 62.2458,89.9168 70.5,87C 79,78.5 87.5,70 96,61.5C 100.373,54.1201 105.873,47.6201 112.5,42C 116.947,38.6093 121.947,36.6093 127.5,36C 148.537,19.3156 171.871,7.14895 197.5,-0.5 Z"/></g>
<g><path style="opacity:1" fill="#efefef" d="M 206.5,-0.5 C 212.5,-0.5 218.5,-0.5 224.5,-0.5C 224.5,4.83333 224.5,10.1667 224.5,15.5C 222.181,6.00967 216.181,0.676333 206.5,-0.5 Z"/></g>
<g><path style="opacity:1" fill="#fcfcfc" d="M 197.5,5.5 C 205.625,3.81544 212.125,6.14877 217,12.5C 219.166,21.0161 218.499,29.3494 215,37.5C 208.635,52.5648 200.969,66.8981 192,80.5C 158.331,127.504 117.498,167.004 69.5,199C 57.3998,206.882 44.3998,212.882 30.5,217C 9.55935,221.675 1.72602,213.508 7,192.5C 12.6812,175.302 20.8479,159.469 31.5,145C 32.5,144.333 33.5,144.333 34.5,145C 47.4975,155.001 61.8308,162.668 77.5,168C 81.1667,168.667 84.8333,168.667 88.5,168C 93.2551,164.517 93.7551,160.351 90,155.5C 85.8671,150.366 81.3671,145.532 76.5,141C 67.3463,133.921 57.6796,127.587 47.5,122C 51.1063,113.952 55.6063,106.452 61,99.5C 65.1199,96.1901 69.6199,93.5234 74.5,91.5C 91.8672,104.516 111.2,113.183 132.5,117.5C 138.608,118.327 142.275,115.827 143.5,110C 142.339,105.844 140.505,102.011 138,98.5C 126.749,86.3028 114.249,75.6361 100.5,66.5C 106.836,54.1546 116.503,45.8213 129.5,41.5C 142.085,50.7923 156.085,56.7923 171.5,59.5C 176.723,60.2348 179.723,58.0681 180.5,53C 177.723,46.5422 173.723,40.8756 168.5,36C 163.833,32.3333 159.167,28.6667 154.5,25C 167.937,16.2774 182.27,9.77741 197.5,5.5 Z"/></g>
<g><path style="opacity:1" fill="#f7f7f7" d="M 146.5,29.5 C 158.231,34.2367 167.564,42.07 174.5,53C 168.568,53.6942 162.901,52.6942 157.5,50C 149.847,46.5081 142.513,42.5081 135.5,38C 139.235,35.1467 142.902,32.3133 146.5,29.5 Z"/></g>
<g><path style="opacity:1" fill="#fefefe" d="M 224.5,26.5 C 224.5,92.5 224.5,158.5 224.5,224.5C 158.5,224.5 92.5,224.5 26.5,224.5C 35.5962,221.969 44.5962,218.802 53.5,215C 114.911,179.926 165.078,132.759 204,73.5C 213.086,58.717 219.919,43.0504 224.5,26.5 Z"/></g>
<g><path style="opacity:1" fill="#fafafa" d="M 94.5,71.5 C 104.824,77.3113 114.491,84.1447 123.5,92C 128.931,97.4278 133.598,103.428 137.5,110C 134.706,111.557 131.706,111.89 128.5,111C 110.671,105.918 94.3375,97.9182 79.5,87C 84.7031,81.9646 89.7031,76.798 94.5,71.5 Z"/></g>
<g><path style="opacity:1" fill="#f8f8f8" d="M 43.5,127.5 C 60.6482,135.245 74.9815,146.578 86.5,161.5C 84.2351,162.647 81.9018,162.814 79.5,162C 64.3746,156.771 50.3746,149.438 37.5,140C 36.4829,138.951 36.3162,137.784 37,136.5C 39.3852,133.621 41.5518,130.621 43.5,127.5 Z"/></g>
<g><path style="opacity:1" fill="#f0f0f0" d="M -0.5,206.5 C 0.728816,215.615 5.72882,221.615 14.5,224.5C 9.5,224.5 4.5,224.5 -0.5,224.5C -0.5,218.5 -0.5,212.5 -0.5,206.5 Z"/></g>
</svg>
