<?xml version="1.0" encoding="UTF-8"?>
<!DOCTYPE svg PUBLIC "-//W3C//DTD SVG 1.1//EN" "http://www.w3.org/Graphics/SVG/1.1/DTD/svg11.dtd">
<svg xmlns="http://www.w3.org/2000/svg" version="1.1" width="301px" height="167px" style="shape-rendering:geometricPrecision; text-rendering:geometricPrecision; image-rendering:optimizeQuality; fill-rule:evenodd; clip-rule:evenodd" xmlns:xlink="http://www.w3.org/1999/xlink">
<g><path style="opacity:1" fill="#f2f2f2" d="M 73.5,-0.5 C 89.8333,-0.5 106.167,-0.5 122.5,-0.5C 122.5,1.16667 122.5,2.83333 122.5,4.5C 120.833,4.5 119.167,4.5 117.5,4.5C 117.5,6.16667 117.5,7.83333 117.5,9.5C 115.833,9.5 114.167,9.5 112.5,9.5C 112.5,11.1667 112.5,12.8333 112.5,14.5C 114.167,14.5 115.833,14.5 117.5,14.5C 117.5,16.1667 117.5,17.8333 117.5,19.5C 115.833,19.5 114.167,19.5 112.5,19.5C 112.5,20.8333 112.5,22.1667 112.5,23.5C 110.833,23.5 109.167,23.5 107.5,23.5C 107.5,22.1667 107.5,20.8333 107.5,19.5C 105.833,19.5 104.167,19.5 102.5,19.5C 102.5,20.8333 102.5,22.1667 102.5,23.5C 100.833,23.5 99.1667,23.5 97.5,23.5C 97.5,22.1667 97.5,20.8333 97.5,19.5C 95.8333,19.5 94.1667,19.5 92.5,19.5C 92.5,20.8333 92.5,22.1667 92.5,23.5C 90.8333,23.5 89.1667,23.5 87.5,23.5C 87.5,22.1667 87.5,20.8333 87.5,19.5C 85.8333,19.5 84.1667,19.5 82.5,19.5C 82.5,20.8333 82.5,22.1667 82.5,23.5C 81.1667,23.5 79.8333,23.5 78.5,23.5C 78.5,25.1667 78.5,26.8333 78.5,28.5C 80.1667,28.5 81.8333,28.5 83.5,28.5C 83.5,27.1667 83.5,25.8333 83.5,24.5C 84.8333,24.5 86.1667,24.5 87.5,24.5C 87.5,25.8333 87.5,27.1667 87.5,28.5C 89.1667,28.5 90.8333,28.5 92.5,28.5C 92.5,30.1667 92.5,31.8333 92.5,33.5C 90.8333,33.5 89.1667,33.5 87.5,33.5C 87.5,35.1667 87.5,36.8333 87.5,38.5C 89.1667,38.5 90.8333,38.5 92.5,38.5C 92.5,40.1667 92.5,41.8333 92.5,43.5C 94.1667,43.5 95.8333,43.5 97.5,43.5C 97.5,45.1667 97.5,46.8333 97.5,48.5C 99.1667,48.5 100.833,48.5 102.5,48.5C 102.5,50.1667 102.5,51.8333 102.5,53.5C 104.167,53.5 105.833,53.5 107.5,53.5C 107.5,55.1667 107.5,56.8333 107.5,58.5C 105.833,58.5 104.167,58.5 102.5,58.5C 102.5,59.8333 102.5,61.1667 102.5,62.5C 100.833,62.5 99.1667,62.5 97.5,62.5C 97.5,61.1667 97.5,59.8333 97.5,58.5C 95.8333,58.5 94.1667,58.5 92.5,58.5C 90.8333,58.5 89.1667,58.5 87.5,58.5C 87.5,60.1667 87.5,61.8333 87.5,63.5C 85.8333,63.5 84.1667,63.5 82.5,63.5C 82.5,61.8333 82.5,60.1667 82.5,58.5C 81.1667,58.5 79.8333,58.5 78.5,58.5C 78.5,59.8333 78.5,61.1667 78.5,62.5C 76.8333,62.5 75.1667,62.5 73.5,62.5C 73.5,61.1667 73.5,59.8333 73.5,58.5C 71.8333,58.5 70.1667,58.5 68.5,58.5C 68.5,56.8333 68.5,55.1667 68.5,53.5C 69.8333,53.5 71.1667,53.5 72.5,53.5C 72.5,51.8333 72.5,50.1667 72.5,48.5C 71.1667,48.5 69.8333,48.5 68.5,48.5C 68.5,46.8333 68.5,45.1667 68.5,43.5C 69.8333,43.5 71.1667,43.5 72.5,43.5C 72.5,41.8333 72.5,40.1667 72.5,38.5C 71.1667,38.5 69.8333,38.5 68.5,38.5C 68.5,36.8333 68.5,35.1667 68.5,33.5C 70.1667,33.5 71.8333,33.5 73.5,33.5C 73.5,35.1667 73.5,36.8333 73.5,38.5C 74.8333,38.5 76.1667,38.5 77.5,38.5C 77.5,35.5 77.5,32.5 77.5,29.5C 74.5176,29.0371 71.5176,28.7038 68.5,28.5C 68.5,26.8333 68.5,25.1667 68.5,23.5C 69.8333,23.5 71.1667,23.5 72.5,23.5C 72.5,22.1667 72.5,20.8333 72.5,19.5C 71.1667,19.5 69.8333,19.5 68.5,19.5C 68.5,17.8333 68.5,16.1667 68.5,14.5C 70.1667,14.5 71.8333,14.5 73.5,14.5C 73.5,12.8333 73.5,11.1667 73.5,9.5C 74.8333,9.5 76.1667,9.5 77.5,9.5C 77.5,7.83333 77.5,6.16667 77.5,4.5C 76.1667,4.5 74.8333,4.5 73.5,4.5C 73.5,2.83333 73.5,1.16667 73.5,-0.5 Z"/></g>
<g><path style="opacity:1" fill="#f2f2f2" d="M 127.5,-0.5 C 161.833,-0.5 196.167,-0.5 230.5,-0.5C 230.5,1.16667 230.5,2.83333 230.5,4.5C 228.833,4.5 227.167,4.5 225.5,4.5C 225.5,6.16667 225.5,7.83333 225.5,9.5C 223.833,9.5 222.167,9.5 220.5,9.5C 220.5,11.1667 220.5,12.8333 220.5,14.5C 222.167,14.5 223.833,14.5 225.5,14.5C 225.5,16.1667 225.5,17.8333 225.5,19.5C 223.833,19.5 222.167,19.5 220.5,19.5C 220.5,20.8333 220.5,22.1667 220.5,23.5C 218.833,23.5 217.167,23.5 215.5,23.5C 215.5,22.1667 215.5,20.8333 215.5,19.5C 213.833,19.5 212.167,19.5 210.5,19.5C 210.5,20.8333 210.5,22.1667 210.5,23.5C 208.833,23.5 207.167,23.5 205.5,23.5C 205.5,22.1667 205.5,20.8333 205.5,19.5C 203.833,19.5 202.167,19.5 200.5,19.5C 200.5,21.1667 200.5,22.8333 200.5,24.5C 202.167,24.5 203.833,24.5 205.5,24.5C 205.5,25.8333 205.5,27.1667 205.5,28.5C 203.833,28.5 202.167,28.5 200.5,28.5C 200.5,29.5 200.5,30.5 200.5,31.5C 180.55,20.5705 162.05,22.5705 145,37.5C 142.752,40.328 140.752,43.328 139,46.5C 138.327,52.93 138.827,59.2634 140.5,65.5C 131.348,66.4936 122.015,66.8269 112.5,66.5C 112.5,65.5 112.5,64.5 112.5,63.5C 114.167,63.5 115.833,63.5 117.5,63.5C 117.5,61.8333 117.5,60.1667 117.5,58.5C 115.833,58.5 114.167,58.5 112.5,58.5C 112.5,56.8333 112.5,55.1667 112.5,53.5C 114.167,53.5 115.833,53.5 117.5,53.5C 117.5,51.8333 117.5,50.1667 117.5,48.5C 119.167,48.5 120.833,48.5 122.5,48.5C 122.5,50.1667 122.5,51.8333 122.5,53.5C 124.167,53.5 125.833,53.5 127.5,53.5C 127.5,51.8333 127.5,50.1667 127.5,48.5C 128.833,48.5 130.167,48.5 131.5,48.5C 131.5,46.8333 131.5,45.1667 131.5,43.5C 130.167,43.5 128.833,43.5 127.5,43.5C 127.5,41.8333 127.5,40.1667 127.5,38.5C 128.833,38.5 130.167,38.5 131.5,38.5C 131.5,36.8333 131.5,35.1667 131.5,33.5C 130.167,33.5 128.833,33.5 127.5,33.5C 127.5,31.8333 127.5,30.1667 127.5,28.5C 125.833,28.5 124.167,28.5 122.5,28.5C 122.5,26.8333 122.5,25.1667 122.5,23.5C 123.833,23.5 125.167,23.5 126.5,23.5C 126.5,22.1667 126.5,20.8333 126.5,19.5C 125.167,19.5 123.833,19.5 122.5,19.5C 122.5,17.8333 122.5,16.1667 122.5,14.5C 124.167,14.5 125.833,14.5 127.5,14.5C 127.5,12.8333 127.5,11.1667 127.5,9.5C 128.833,9.5 130.167,9.5 131.5,9.5C 131.5,7.83333 131.5,6.16667 131.5,4.5C 130.167,4.5 128.833,4.5 127.5,4.5C 127.5,2.83333 127.5,1.16667 127.5,-0.5 Z"/></g>
<g><path style="opacity:1" fill="#f0f0f0" d="M -0.5,-0.5 C 22.5,-0.5 45.5,-0.5 68.5,-0.5C 68.5,1.16667 68.5,2.83333 68.5,4.5C 66.8333,4.5 65.1667,4.5 63.5,4.5C 63.5,6.16667 63.5,7.83333 63.5,9.5C 61.8333,9.5 60.1667,9.5 58.5,9.5C 58.5,11.1667 58.5,12.8333 58.5,14.5C 56.8333,14.5 55.1667,14.5 53.5,14.5C 53.5,15.8333 53.5,17.1667 53.5,18.5C 51.8333,18.5 50.1667,18.5 48.5,18.5C 48.5,17.1667 48.5,15.8333 48.5,14.5C 46.8333,14.5 45.1667,14.5 43.5,14.5C 43.5,12.8333 43.5,11.1667 43.5,9.5C 41.8333,9.5 40.1667,9.5 38.5,9.5C 38.5,11.1667 38.5,12.8333 38.5,14.5C 36.8333,14.5 35.1667,14.5 33.5,14.5C 33.5,16.1667 33.5,17.8333 33.5,19.5C 32.1667,19.5 30.8333,19.5 29.5,19.5C 29.5,20.8333 29.5,22.1667 29.5,23.5C 30.8333,23.5 32.1667,23.5 33.5,23.5C 33.5,25.1667 33.5,26.8333 33.5,28.5C 31.8333,28.5 30.1667,28.5 28.5,28.5C 28.5,27.1667 28.5,25.8333 28.5,24.5C 27.1667,24.5 25.8333,24.5 24.5,24.5C 24.5,25.8333 24.5,27.1667 24.5,28.5C 22.8333,28.5 21.1667,28.5 19.5,28.5C 19.5,30.1667 19.5,31.8333 19.5,33.5C 20.8333,33.5 22.1667,33.5 23.5,33.5C 23.5,35.1667 23.5,36.8333 23.5,38.5C 22.1667,38.5 20.8333,38.5 19.5,38.5C 19.5,40.1667 19.5,41.8333 19.5,43.5C 20.8333,43.5 22.1667,43.5 23.5,43.5C 23.5,45.1667 23.5,46.8333 23.5,48.5C 22.1667,48.5 20.8333,48.5 19.5,48.5C 19.5,50.1667 19.5,51.8333 19.5,53.5C 17.8333,53.5 16.1667,53.5 14.5,53.5C 14.5,51.8333 14.5,50.1667 14.5,48.5C 12.8333,48.5 11.1667,48.5 9.5,48.5C 9.5,50.1667 9.5,51.8333 9.5,53.5C 7.83333,53.5 6.16667,53.5 4.5,53.5C 4.5,55.1667 4.5,56.8333 4.5,58.5C 2.83333,58.5 1.16667,58.5 -0.5,58.5C -0.5,38.8333 -0.5,19.1667 -0.5,-0.5 Z"/></g>
<g><path style="opacity:1" fill="#f2f2f2" d="M 68.5,-0.5 C 70.1667,-0.5 71.8333,-0.5 73.5,-0.5C 73.5,1.16667 73.5,2.83333 73.5,4.5C 74.8333,4.5 76.1667,4.5 77.5,4.5C 77.5,6.16667 77.5,7.83333 77.5,9.5C 76.1667,9.5 74.8333,9.5 73.5,9.5C 73.5,11.1667 73.5,12.8333 73.5,14.5C 71.8333,14.5 70.1667,14.5 68.5,14.5C 68.5,16.1667 68.5,17.8333 68.5,19.5C 69.8333,19.5 71.1667,19.5 72.5,19.5C 72.5,20.8333 72.5,22.1667 72.5,23.5C 71.1667,23.5 69.8333,23.5 68.5,23.5C 68.5,25.1667 68.5,26.8333 68.5,28.5C 71.5176,28.7038 74.5176,29.0371 77.5,29.5C 77.5,32.5 77.5,35.5 77.5,38.5C 76.1667,38.5 74.8333,38.5 73.5,38.5C 73.5,36.8333 73.5,35.1667 73.5,33.5C 71.8333,33.5 70.1667,33.5 68.5,33.5C 68.5,35.1667 68.5,36.8333 68.5,38.5C 69.8333,38.5 71.1667,38.5 72.5,38.5C 72.5,40.1667 72.5,41.8333 72.5,43.5C 71.1667,43.5 69.8333,43.5 68.5,43.5C 68.5,45.1667 68.5,46.8333 68.5,48.5C 69.8333,48.5 71.1667,48.5 72.5,48.5C 72.5,50.1667 72.5,51.8333 72.5,53.5C 71.1667,53.5 69.8333,53.5 68.5,53.5C 68.5,55.1667 68.5,56.8333 68.5,58.5C 67.5655,59.5676 67.2322,60.901 67.5,62.5C 66.1667,62.5 64.8333,62.5 63.5,62.5C 63.5,61.1667 63.5,59.8333 63.5,58.5C 61.8333,58.5 60.1667,58.5 58.5,58.5C 58.5,59.8333 58.5,61.1667 58.5,62.5C 56.8333,62.5 55.1667,62.5 53.5,62.5C 53.5,61.1667 53.5,59.8333 53.5,58.5C 51.8333,58.5 50.1667,58.5 48.5,58.5C 48.5,59.8333 48.5,61.1667 48.5,62.5C 46.8333,62.5 45.1667,62.5 43.5,62.5C 43.5,61.1667 43.5,59.8333 43.5,58.5C 41.8333,58.5 40.1667,58.5 38.5,58.5C 38.5,60.1667 38.5,61.8333 38.5,63.5C 36.8333,63.5 35.1667,63.5 33.5,63.5C 33.5,61.8333 33.5,60.1667 33.5,58.5C 31.8333,58.5 30.1667,58.5 28.5,58.5C 28.5,60.1667 28.5,61.8333 28.5,63.5C 27.1667,63.5 25.8333,63.5 24.5,63.5C 24.5,64.8333 24.5,66.1667 24.5,67.5C 22.8333,67.5 21.1667,67.5 19.5,67.5C 19.5,66.1667 19.5,64.8333 19.5,63.5C 17.8333,63.5 16.1667,63.5 14.5,63.5C 14.5,61.8333 14.5,60.1667 14.5,58.5C 16.1667,58.5 17.8333,58.5 19.5,58.5C 19.5,56.8333 19.5,55.1667 19.5,53.5C 19.5,51.8333 19.5,50.1667 19.5,48.5C 20.8333,48.5 22.1667,48.5 23.5,48.5C 23.5,46.8333 23.5,45.1667 23.5,43.5C 22.1667,43.5 20.8333,43.5 19.5,43.5C 19.5,41.8333 19.5,40.1667 19.5,38.5C 20.8333,38.5 22.1667,38.5 23.5,38.5C 23.5,36.8333 23.5,35.1667 23.5,33.5C 22.1667,33.5 20.8333,33.5 19.5,33.5C 19.5,31.8333 19.5,30.1667 19.5,28.5C 21.1667,28.5 22.8333,28.5 24.5,28.5C 24.5,27.1667 24.5,25.8333 24.5,24.5C 25.8333,24.5 27.1667,24.5 28.5,24.5C 28.5,25.8333 28.5,27.1667 28.5,28.5C 30.1667,28.5 31.8333,28.5 33.5,28.5C 33.5,26.8333 33.5,25.1667 33.5,23.5C 32.1667,23.5 30.8333,23.5 29.5,23.5C 29.5,22.1667 29.5,20.8333 29.5,19.5C 30.8333,19.5 32.1667,19.5 33.5,19.5C 33.5,17.8333 33.5,16.1667 33.5,14.5C 35.1667,14.5 36.8333,14.5 38.5,14.5C 38.5,12.8333 38.5,11.1667 38.5,9.5C 40.1667,9.5 41.8333,9.5 43.5,9.5C 43.5,11.1667 43.5,12.8333 43.5,14.5C 45.1667,14.5 46.8333,14.5 48.5,14.5C 48.5,15.8333 48.5,17.1667 48.5,18.5C 50.1667,18.5 51.8333,18.5 53.5,18.5C 53.5,17.1667 53.5,15.8333 53.5,14.5C 55.1667,14.5 56.8333,14.5 58.5,14.5C 58.5,12.8333 58.5,11.1667 58.5,9.5C 60.1667,9.5 61.8333,9.5 63.5,9.5C 63.5,7.83333 63.5,6.16667 63.5,4.5C 65.1667,4.5 66.8333,4.5 68.5,4.5C 68.5,2.83333 68.5,1.16667 68.5,-0.5 Z"/></g>
<g><path style="opacity:1" fill="#efefef" d="M 122.5,-0.5 C 124.167,-0.5 125.833,-0.5 127.5,-0.5C 127.5,1.16667 127.5,2.83333 127.5,4.5C 128.833,4.5 130.167,4.5 131.5,4.5C 131.5,6.16667 131.5,7.83333 131.5,9.5C 130.167,9.5 128.833,9.5 127.5,9.5C 127.5,11.1667 127.5,12.8333 127.5,14.5C 125.833,14.5 124.167,14.5 122.5,14.5C 122.5,16.1667 122.5,17.8333 122.5,19.5C 123.833,19.5 125.167,19.5 126.5,19.5C 126.5,20.8333 126.5,22.1667 126.5,23.5C 125.167,23.5 123.833,23.5 122.5,23.5C 122.5,25.1667 122.5,26.8333 122.5,28.5C 124.167,28.5 125.833,28.5 127.5,28.5C 127.5,30.1667 127.5,31.8333 127.5,33.5C 128.833,33.5 130.167,33.5 131.5,33.5C 131.5,35.1667 131.5,36.8333 131.5,38.5C 130.167,38.5 128.833,38.5 127.5,38.5C 127.5,40.1667 127.5,41.8333 127.5,43.5C 128.833,43.5 130.167,43.5 131.5,43.5C 131.5,45.1667 131.5,46.8333 131.5,48.5C 130.167,48.5 128.833,48.5 127.5,48.5C 127.5,50.1667 127.5,51.8333 127.5,53.5C 125.833,53.5 124.167,53.5 122.5,53.5C 122.5,51.8333 122.5,50.1667 122.5,48.5C 120.833,48.5 119.167,48.5 117.5,48.5C 117.5,50.1667 117.5,51.8333 117.5,53.5C 115.833,53.5 114.167,53.5 112.5,53.5C 112.5,55.1667 112.5,56.8333 112.5,58.5C 114.167,58.5 115.833,58.5 117.5,58.5C 117.5,60.1667 117.5,61.8333 117.5,63.5C 115.833,63.5 114.167,63.5 112.5,63.5C 112.5,64.5 112.5,65.5 112.5,66.5C 107.5,66.5 102.5,66.5 97.5,66.5C 97.5,65.5 97.5,64.5 97.5,63.5C 95.8333,63.5 94.1667,63.5 92.5,63.5C 92.5,61.8333 92.5,60.1667 92.5,58.5C 94.1667,58.5 95.8333,58.5 97.5,58.5C 97.5,59.8333 97.5,61.1667 97.5,62.5C 99.1667,62.5 100.833,62.5 102.5,62.5C 102.5,61.1667 102.5,59.8333 102.5,58.5C 104.167,58.5 105.833,58.5 107.5,58.5C 107.5,56.8333 107.5,55.1667 107.5,53.5C 105.833,53.5 104.167,53.5 102.5,53.5C 102.5,51.8333 102.5,50.1667 102.5,48.5C 100.833,48.5 99.1667,48.5 97.5,48.5C 97.5,46.8333 97.5,45.1667 97.5,43.5C 95.8333,43.5 94.1667,43.5 92.5,43.5C 92.5,41.8333 92.5,40.1667 92.5,38.5C 90.8333,38.5 89.1667,38.5 87.5,38.5C 87.5,36.8333 87.5,35.1667 87.5,33.5C 89.1667,33.5 90.8333,33.5 92.5,33.5C 92.5,31.8333 92.5,30.1667 92.5,28.5C 90.8333,28.5 89.1667,28.5 87.5,28.5C 87.5,27.1667 87.5,25.8333 87.5,24.5C 86.1667,24.5 84.8333,24.5 83.5,24.5C 83.5,25.8333 83.5,27.1667 83.5,28.5C 81.8333,28.5 80.1667,28.5 78.5,28.5C 78.5,26.8333 78.5,25.1667 78.5,23.5C 79.8333,23.5 81.1667,23.5 82.5,23.5C 82.5,22.1667 82.5,20.8333 82.5,19.5C 84.1667,19.5 85.8333,19.5 87.5,19.5C 87.5,20.8333 87.5,22.1667 87.5,23.5C 89.1667,23.5 90.8333,23.5 92.5,23.5C 92.5,22.1667 92.5,20.8333 92.5,19.5C 94.1667,19.5 95.8333,19.5 97.5,19.5C 97.5,20.8333 97.5,22.1667 97.5,23.5C 99.1667,23.5 100.833,23.5 102.5,23.5C 102.5,22.1667 102.5,20.8333 102.5,19.5C 104.167,19.5 105.833,19.5 107.5,19.5C 107.5,20.8333 107.5,22.1667 107.5,23.5C 109.167,23.5 110.833,23.5 112.5,23.5C 112.5,22.1667 112.5,20.8333 112.5,19.5C 114.167,19.5 115.833,19.5 117.5,19.5C 117.5,17.8333 117.5,16.1667 117.5,14.5C 115.833,14.5 114.167,14.5 112.5,14.5C 112.5,12.8333 112.5,11.1667 112.5,9.5C 114.167,9.5 115.833,9.5 117.5,9.5C 117.5,7.83333 117.5,6.16667 117.5,4.5C 119.167,4.5 120.833,4.5 122.5,4.5C 122.5,2.83333 122.5,1.16667 122.5,-0.5 Z"/></g>
<g><path style="opacity:1" fill="#efefef" d="M 230.5,-0.5 C 232.167,-0.5 233.833,-0.5 235.5,-0.5C 235.5,1.16667 235.5,2.83333 235.5,4.5C 236.833,4.5 238.167,4.5 239.5,4.5C 239.5,6.16667 239.5,7.83333 239.5,9.5C 238.167,9.5 236.833,9.5 235.5,9.5C 235.5,11.1667 235.5,12.8333 235.5,14.5C 233.833,14.5 232.167,14.5 230.5,14.5C 230.5,16.1667 230.5,17.8333 230.5,19.5C 231.833,19.5 233.167,19.5 234.5,19.5C 234.5,20.8333 234.5,22.1667 234.5,23.5C 233.167,23.5 231.833,23.5 230.5,23.5C 230.5,25.1667 230.5,26.8333 230.5,28.5C 232.167,28.5 233.833,28.5 235.5,28.5C 235.5,30.1667 235.5,31.8333 235.5,33.5C 236.833,33.5 238.167,33.5 239.5,33.5C 239.5,35.1667 239.5,36.8333 239.5,38.5C 238.167,38.5 236.833,38.5 235.5,38.5C 235.5,40.1667 235.5,41.8333 235.5,43.5C 236.833,43.5 238.167,43.5 239.5,43.5C 239.5,45.1667 239.5,46.8333 239.5,48.5C 238.167,48.5 236.833,48.5 235.5,48.5C 235.5,50.1667 235.5,51.8333 235.5,53.5C 233.833,53.5 232.167,53.5 230.5,53.5C 230.5,51.8333 230.5,50.1667 230.5,48.5C 228.833,48.5 227.167,48.5 225.5,48.5C 225.5,50.1667 225.5,51.8333 225.5,53.5C 223.833,53.5 222.167,53.5 220.5,53.5C 220.5,51.8333 220.5,50.1667 220.5,48.5C 218.833,48.5 217.167,48.5 215.5,48.5C 215.5,50.1667 215.5,51.8333 215.5,53.5C 214.209,53.2627 213.209,53.596 212.5,54.5C 208.772,46.7104 204.772,39.0437 200.5,31.5C 200.5,30.5 200.5,29.5 200.5,28.5C 202.167,28.5 203.833,28.5 205.5,28.5C 205.5,27.1667 205.5,25.8333 205.5,24.5C 203.833,24.5 202.167,24.5 200.5,24.5C 200.5,22.8333 200.5,21.1667 200.5,19.5C 202.167,19.5 203.833,19.5 205.5,19.5C 205.5,20.8333 205.5,22.1667 205.5,23.5C 207.167,23.5 208.833,23.5 210.5,23.5C 210.5,22.1667 210.5,20.8333 210.5,19.5C 212.167,19.5 213.833,19.5 215.5,19.5C 215.5,20.8333 215.5,22.1667 215.5,23.5C 217.167,23.5 218.833,23.5 220.5,23.5C 220.5,22.1667 220.5,20.8333 220.5,19.5C 222.167,19.5 223.833,19.5 225.5,19.5C 225.5,17.8333 225.5,16.1667 225.5,14.5C 223.833,14.5 222.167,14.5 220.5,14.5C 220.5,12.8333 220.5,11.1667 220.5,9.5C 222.167,9.5 223.833,9.5 225.5,9.5C 225.5,7.83333 225.5,6.16667 225.5,4.5C 227.167,4.5 228.833,4.5 230.5,4.5C 230.5,2.83333 230.5,1.16667 230.5,-0.5 Z"/></g>
<g><path style="opacity:1" fill="#f3f3f3" d="M 235.5,-0.5 C 257.167,-0.5 278.833,-0.5 300.5,-0.5C 300.5,7.5 300.5,15.5 300.5,23.5C 298.5,23.5 296.5,23.5 294.5,23.5C 294.5,22.1667 294.5,20.8333 294.5,19.5C 292.5,19.5 290.5,19.5 288.5,19.5C 288.335,22.5184 288.502,25.5184 289,28.5C 289.49,27.2068 289.657,25.8734 289.5,24.5C 290.833,24.5 292.167,24.5 293.5,24.5C 293.5,25.8333 293.5,27.1667 293.5,28.5C 295.167,28.5 296.833,28.5 298.5,28.5C 298.5,30.1667 298.5,31.8333 298.5,33.5C 296.833,33.5 295.167,33.5 293.5,33.5C 293.5,35.1667 293.5,36.8333 293.5,38.5C 292.167,38.5 290.833,38.5 289.5,38.5C 289.5,40.1667 289.5,41.8333 289.5,43.5C 290.833,43.5 292.167,43.5 293.5,43.5C 293.5,45.1667 293.5,46.8333 293.5,48.5C 292.167,48.5 290.833,48.5 289.5,48.5C 289.5,50.1667 289.5,51.8333 289.5,53.5C 287.833,53.5 286.167,53.5 284.5,53.5C 284.5,55.1667 284.5,56.8333 284.5,58.5C 285.833,58.5 287.167,58.5 288.5,58.5C 288.5,59.8333 288.5,61.1667 288.5,62.5C 284.5,61.8333 282.833,63.5 283.5,67.5C 281.833,67.5 280.167,67.5 278.5,67.5C 278.5,66.1667 278.5,64.8333 278.5,63.5C 277.167,63.5 275.833,63.5 274.5,63.5C 274.5,64.8333 274.5,66.1667 274.5,67.5C 272.833,67.5 271.167,67.5 269.5,67.5C 269.5,66.1667 269.5,64.8333 269.5,63.5C 267.833,63.5 266.167,63.5 264.5,63.5C 264.5,64.8333 264.5,66.1667 264.5,67.5C 262.833,67.5 261.167,67.5 259.5,67.5C 259.5,66.1667 259.5,64.8333 259.5,63.5C 257.833,63.5 256.167,63.5 254.5,63.5C 254.5,64.8333 254.5,66.1667 254.5,67.5C 253.167,67.5 251.833,67.5 250.5,67.5C 251.167,63.5 249.5,61.8333 245.5,62.5C 245.5,61.1667 245.5,59.8333 245.5,58.5C 246.833,58.5 248.167,58.5 249.5,58.5C 249.5,56.8333 249.5,55.1667 249.5,53.5C 251.167,53.5 252.833,53.5 254.5,53.5C 254.5,55.1667 254.5,56.8333 254.5,58.5C 256.167,58.5 257.833,58.5 259.5,58.5C 259.5,59.8333 259.5,61.1667 259.5,62.5C 261.167,62.5 262.833,62.5 264.5,62.5C 264.5,61.1667 264.5,59.8333 264.5,58.5C 266.167,58.5 267.833,58.5 269.5,58.5C 269.5,56.8333 269.5,55.1667 269.5,53.5C 267.833,53.5 266.167,53.5 264.5,53.5C 264.5,51.8333 264.5,50.1667 264.5,48.5C 262.833,48.5 261.167,48.5 259.5,48.5C 259.5,46.8333 259.5,45.1667 259.5,43.5C 257.833,43.5 256.167,43.5 254.5,43.5C 254.5,41.8333 254.5,40.1667 254.5,38.5C 252.833,38.5 251.167,38.5 249.5,38.5C 249.5,36.8333 249.5,35.1667 249.5,33.5C 247.833,33.5 246.167,33.5 244.5,33.5C 244.5,35.1667 244.5,36.8333 244.5,38.5C 243.167,38.5 241.833,38.5 240.5,38.5C 240.5,40.1667 240.5,41.8333 240.5,43.5C 241.833,43.5 243.167,43.5 244.5,43.5C 244.5,45.1667 244.5,46.8333 244.5,48.5C 243.167,48.5 241.833,48.5 240.5,48.5C 240.5,50.1667 240.5,51.8333 240.5,53.5C 241.833,53.5 243.167,53.5 244.5,53.5C 244.5,55.1667 244.5,56.8333 244.5,58.5C 243.167,58.5 241.833,58.5 240.5,58.5C 240.5,59.8333 240.5,61.1667 240.5,62.5C 238.833,62.5 237.167,62.5 235.5,62.5C 235.5,61.1667 235.5,59.8333 235.5,58.5C 233.833,58.5 232.167,58.5 230.5,58.5C 230.5,60.1667 230.5,61.8333 230.5,63.5C 228.833,63.5 227.167,63.5 225.5,63.5C 225.5,61.8333 225.5,60.1667 225.5,58.5C 223.833,58.5 222.167,58.5 220.5,58.5C 220.5,56.8333 220.5,55.1667 220.5,53.5C 222.167,53.5 223.833,53.5 225.5,53.5C 225.5,51.8333 225.5,50.1667 225.5,48.5C 227.167,48.5 228.833,48.5 230.5,48.5C 230.5,50.1667 230.5,51.8333 230.5,53.5C 232.167,53.5 233.833,53.5 235.5,53.5C 235.5,51.8333 235.5,50.1667 235.5,48.5C 236.833,48.5 238.167,48.5 239.5,48.5C 239.5,46.8333 239.5,45.1667 239.5,43.5C 238.167,43.5 236.833,43.5 235.5,43.5C 235.5,41.8333 235.5,40.1667 235.5,38.5C 236.833,38.5 238.167,38.5 239.5,38.5C 239.5,36.8333 239.5,35.1667 239.5,33.5C 238.167,33.5 236.833,33.5 235.5,33.5C 235.5,31.8333 235.5,30.1667 235.5,28.5C 233.833,28.5 232.167,28.5 230.5,28.5C 230.5,26.8333 230.5,25.1667 230.5,23.5C 231.833,23.5 233.167,23.5 234.5,23.5C 234.5,22.1667 234.5,20.8333 234.5,19.5C 233.167,19.5 231.833,19.5 230.5,19.5C 230.5,17.8333 230.5,16.1667 230.5,14.5C 232.167,14.5 233.833,14.5 235.5,14.5C 235.5,12.8333 235.5,11.1667 235.5,9.5C 236.833,9.5 238.167,9.5 239.5,9.5C 239.5,7.83333 239.5,6.16667 239.5,4.5C 238.167,4.5 236.833,4.5 235.5,4.5C 235.5,2.83333 235.5,1.16667 235.5,-0.5 Z"/></g>
<g><path style="opacity:1" fill="#0d0d0d" d="M 200.5,31.5 C 204.772,39.0437 208.772,46.7104 212.5,54.5C 217.73,66.9596 222.396,79.6262 226.5,92.5C 227.662,103.177 225.662,113.177 220.5,122.5C 213.092,132.721 203.092,139.221 190.5,142C 159.835,142.5 129.168,142.667 98.5,142.5C 96.7835,131.243 94.4501,120.243 91.5,109.5C 91.5,108.833 91.5,108.167 91.5,107.5C 89.0679,94.9967 86.4012,82.6633 83.5,70.5C 83.5,69.5 83.5,68.5 83.5,67.5C 102.845,67.8329 122.178,67.4996 141.5,66.5C 141.376,65.8933 141.043,65.56 140.5,65.5C 138.827,59.2634 138.327,52.93 139,46.5C 140.752,43.328 142.752,40.328 145,37.5C 162.05,22.5705 180.55,20.5705 200.5,31.5 Z"/></g>
<g><path style="opacity:1" fill="#efefef" d="M 170.5,27.5 C 180.42,27.1467 189.753,29.3134 198.5,34C 200.712,36.9212 202.545,40.0879 204,43.5C 207.233,51.5455 210.233,59.5455 213,67.5C 192.608,53.0246 173.608,54.6913 156,72.5C 153.027,76.7808 150.86,81.4475 149.5,86.5C 146.901,76.5334 144.401,66.5334 142,56.5C 140.993,51.8887 141.66,47.5554 144,43.5C 151.179,35.1716 160.012,29.8383 170.5,27.5 Z"/></g>
<g><path style="opacity:1" fill="#f5f5f5" d="M 19.5,53.5 C 19.5,55.1667 19.5,56.8333 19.5,58.5C 17.8333,58.5 16.1667,58.5 14.5,58.5C 14.5,60.1667 14.5,61.8333 14.5,63.5C 16.1667,63.5 17.8333,63.5 19.5,63.5C 19.5,64.8333 19.5,66.1667 19.5,67.5C 21.1667,67.5 22.8333,67.5 24.5,67.5C 24.5,66.1667 24.5,64.8333 24.5,63.5C 25.8333,63.5 27.1667,63.5 28.5,63.5C 28.5,61.8333 28.5,60.1667 28.5,58.5C 30.1667,58.5 31.8333,58.5 33.5,58.5C 33.5,60.1667 33.5,61.8333 33.5,63.5C 35.1667,63.5 36.8333,63.5 38.5,63.5C 38.5,61.8333 38.5,60.1667 38.5,58.5C 40.1667,58.5 41.8333,58.5 43.5,58.5C 43.5,59.8333 43.5,61.1667 43.5,62.5C 45.1667,62.5 46.8333,62.5 48.5,62.5C 48.5,61.1667 48.5,59.8333 48.5,58.5C 50.1667,58.5 51.8333,58.5 53.5,58.5C 53.5,59.8333 53.5,61.1667 53.5,62.5C 55.1667,62.5 56.8333,62.5 58.5,62.5C 58.5,61.1667 58.5,59.8333 58.5,58.5C 60.1667,58.5 61.8333,58.5 63.5,58.5C 63.5,59.8333 63.5,61.1667 63.5,62.5C 64.8333,62.5 66.1667,62.5 67.5,62.5C 67.2322,60.901 67.5655,59.5676 68.5,58.5C 70.1667,58.5 71.8333,58.5 73.5,58.5C 73.5,59.8333 73.5,61.1667 73.5,62.5C 75.1667,62.5 76.8333,62.5 78.5,62.5C 78.5,61.1667 78.5,59.8333 78.5,58.5C 79.8333,58.5 81.1667,58.5 82.5,58.5C 82.5,60.1667 82.5,61.8333 82.5,63.5C 84.1667,63.5 85.8333,63.5 87.5,63.5C 87.5,61.8333 87.5,60.1667 87.5,58.5C 89.1667,58.5 90.8333,58.5 92.5,58.5C 92.5,60.1667 92.5,61.8333 92.5,63.5C 94.1667,63.5 95.8333,63.5 97.5,63.5C 97.5,64.5 97.5,65.5 97.5,66.5C 92.6367,66.1805 87.97,66.5139 83.5,67.5C 83.5,68.5 83.5,69.5 83.5,70.5C 82.0101,72.2798 80.0101,72.9465 77.5,72.5C 77.5,71.1667 77.5,69.8333 77.5,68.5C 76.1667,68.5 74.8333,68.5 73.5,68.5C 73.5,69.8333 73.5,71.1667 73.5,72.5C 71.8333,72.5 70.1667,72.5 68.5,72.5C 67.5985,76.2407 68.9319,78.2407 72.5,78.5C 72.5,79.8333 72.5,81.1667 72.5,82.5C 71.1667,82.5 69.8333,82.5 68.5,82.5C 68.5,84.1667 68.5,85.8333 68.5,87.5C 66.8333,87.5 65.1667,87.5 63.5,87.5C 63.5,85.8333 63.5,84.1667 63.5,82.5C 61.8333,82.5 60.1667,82.5 58.5,82.5C 58.5,80.8333 58.5,79.1667 58.5,77.5C 60.1667,77.5 61.8333,77.5 63.5,77.5C 63.5,75.8333 63.5,74.1667 63.5,72.5C 61.8333,72.5 60.1667,72.5 58.5,72.5C 58.5,71.1667 58.5,69.8333 58.5,68.5C 56.8333,68.5 55.1667,68.5 53.5,68.5C 53.5,69.8333 53.5,71.1667 53.5,72.5C 51.8333,72.5 50.1667,72.5 48.5,72.5C 48.5,71.1667 48.5,69.8333 48.5,68.5C 46.8333,68.5 45.1667,68.5 43.5,68.5C 43.5,69.8333 43.5,71.1667 43.5,72.5C 41.8333,72.5 40.1667,72.5 38.5,72.5C 38.5,74.1667 38.5,75.8333 38.5,77.5C 40.1667,77.5 41.8333,77.5 43.5,77.5C 43.5,79.1667 43.5,80.8333 43.5,82.5C 41.8333,82.5 40.1667,82.5 38.5,82.5C 38.5,84.1667 38.5,85.8333 38.5,87.5C 36.8333,87.5 35.1667,87.5 33.5,87.5C 33.5,85.8333 33.5,84.1667 33.5,82.5C 31.8333,82.5 30.1667,82.5 28.5,82.5C 28.5,84.1667 28.5,85.8333 28.5,87.5C 27.1667,87.5 25.8333,87.5 24.5,87.5C 24.5,89.1667 24.5,90.8333 24.5,92.5C 25.8333,92.5 27.1667,92.5 28.5,92.5C 28.5,94.1667 28.5,95.8333 28.5,97.5C 27.1667,97.5 25.8333,97.5 24.5,97.5C 24.5,99.1667 24.5,100.833 24.5,102.5C 25.8333,102.5 27.1667,102.5 28.5,102.5C 28.5,104.167 28.5,105.833 28.5,107.5C 26.8333,107.5 25.1667,107.5 23.5,107.5C 23.5,108.833 23.5,110.167 23.5,111.5C 22.1667,111.5 20.8333,111.5 19.5,111.5C 19.5,110.167 19.5,108.833 19.5,107.5C 15.7593,106.599 13.7593,107.932 13.5,111.5C 12.1667,111.5 10.8333,111.5 9.5,111.5C 9.5,110.167 9.5,108.833 9.5,107.5C 7.83333,107.5 6.16667,107.5 4.5,107.5C 4.5,105.833 4.5,104.167 4.5,102.5C 6.16667,102.5 7.83333,102.5 9.5,102.5C 9.5,100.833 9.5,99.1667 9.5,97.5C 11.1667,97.5 12.8333,97.5 14.5,97.5C 14.5,99.1667 14.5,100.833 14.5,102.5C 16.1667,102.5 17.8333,102.5 19.5,102.5C 19.5,100.833 19.5,99.1667 19.5,97.5C 20.8333,97.5 22.1667,97.5 23.5,97.5C 23.5,95.8333 23.5,94.1667 23.5,92.5C 22.1667,92.5 20.8333,92.5 19.5,92.5C 19.5,90.8333 19.5,89.1667 19.5,87.5C 17.8333,87.5 16.1667,87.5 14.5,87.5C 14.5,85.8333 14.5,84.1667 14.5,82.5C 12.8333,82.5 11.1667,82.5 9.5,82.5C 9.5,80.8333 9.5,79.1667 9.5,77.5C 11.1667,77.5 12.8333,77.5 14.5,77.5C 14.5,75.8333 14.5,74.1667 14.5,72.5C 12.8333,72.5 11.1667,72.5 9.5,72.5C 9.5,71.1667 9.5,69.8333 9.5,68.5C 7.83333,68.5 6.16667,68.5 4.5,68.5C 4.5,69.8333 4.5,71.1667 4.5,72.5C 2.83333,72.5 1.16667,72.5 -0.5,72.5C -0.5,67.8333 -0.5,63.1667 -0.5,58.5C 1.16667,58.5 2.83333,58.5 4.5,58.5C 4.5,56.8333 4.5,55.1667 4.5,53.5C 6.16667,53.5 7.83333,53.5 9.5,53.5C 9.5,51.8333 9.5,50.1667 9.5,48.5C 11.1667,48.5 12.8333,48.5 14.5,48.5C 14.5,50.1667 14.5,51.8333 14.5,53.5C 16.1667,53.5 17.8333,53.5 19.5,53.5 Z"/></g>
<g><path style="opacity:1" fill="#f2f2f2" d="M 300.5,23.5 C 300.5,71.1667 300.5,118.833 300.5,166.5C 262.167,166.5 223.833,166.5 185.5,166.5C 184.432,165.566 183.099,165.232 181.5,165.5C 181.5,163.833 181.5,162.167 181.5,160.5C 182.833,160.5 184.167,160.5 185.5,160.5C 185.5,159.167 185.5,157.833 185.5,156.5C 184.167,156.5 182.833,156.5 181.5,156.5C 181.5,154.833 181.5,153.167 181.5,151.5C 182.833,151.5 184.167,151.5 185.5,151.5C 185.5,152.833 185.5,154.167 185.5,155.5C 187.167,155.5 188.833,155.5 190.5,155.5C 190.5,157.5 190.5,159.5 190.5,161.5C 189.167,161.5 187.833,161.5 186.5,161.5C 186.5,162.833 186.5,164.167 186.5,165.5C 188.167,165.5 189.833,165.5 191.5,165.5C 191.5,164.167 191.5,162.833 191.5,161.5C 192.833,161.5 194.167,161.5 195.5,161.5C 195.5,162.833 195.5,164.167 195.5,165.5C 197.167,165.5 198.833,165.5 200.5,165.5C 200.5,164.167 200.5,162.833 200.5,161.5C 202.167,161.5 203.833,161.5 205.5,161.5C 205.5,162.833 205.5,164.167 205.5,165.5C 207.167,165.5 208.833,165.5 210.5,165.5C 210.5,164.167 210.5,162.833 210.5,161.5C 212.167,161.5 213.833,161.5 215.5,161.5C 215.5,162.833 215.5,164.167 215.5,165.5C 217.167,165.5 218.833,165.5 220.5,165.5C 220.5,164.167 220.5,162.833 220.5,161.5C 222.167,161.5 223.833,161.5 225.5,161.5C 225.5,162.833 225.5,164.167 225.5,165.5C 227.167,165.5 228.833,165.5 230.5,165.5C 230.5,164.167 230.5,162.833 230.5,161.5C 231.833,161.5 233.167,161.5 234.5,161.5C 234.5,162.833 234.5,164.167 234.5,165.5C 236.5,165.5 238.5,165.5 240.5,165.5C 240.5,164.167 240.5,162.833 240.5,161.5C 241.833,161.5 243.167,161.5 244.5,161.5C 244.5,159.833 244.5,158.167 244.5,156.5C 243.167,156.5 241.833,156.5 240.5,156.5C 240.5,157.833 240.5,159.167 240.5,160.5C 238.833,160.5 237.167,160.5 235.5,160.5C 235.5,158.833 235.5,157.167 235.5,155.5C 236.833,155.5 238.167,155.5 239.5,155.5C 239.5,154.167 239.5,152.833 239.5,151.5C 238.167,151.5 236.833,151.5 235.5,151.5C 235.5,149.833 235.5,148.167 235.5,146.5C 236.833,146.5 238.167,146.5 239.5,146.5C 239.5,144.833 239.5,143.167 239.5,141.5C 238.167,141.5 236.833,141.5 235.5,141.5C 235.5,139.833 235.5,138.167 235.5,136.5C 236.833,136.5 238.167,136.5 239.5,136.5C 239.5,134.833 239.5,133.167 239.5,131.5C 238.167,131.5 236.833,131.5 235.5,131.5C 235.5,129.833 235.5,128.167 235.5,126.5C 236.833,126.5 238.167,126.5 239.5,126.5C 239.5,125.167 239.5,123.833 239.5,122.5C 238.167,122.5 236.833,122.5 235.5,122.5C 235.5,120.833 235.5,119.167 235.5,117.5C 236.833,117.5 238.167,117.5 239.5,117.5C 239.5,118.833 239.5,120.167 239.5,121.5C 241.167,121.5 242.833,121.5 244.5,121.5C 244.5,123.167 244.5,124.833 244.5,126.5C 243.167,126.5 241.833,126.5 240.5,126.5C 240.5,128.167 240.5,129.833 240.5,131.5C 241.833,131.5 243.167,131.5 244.5,131.5C 244.5,133.167 244.5,134.833 244.5,136.5C 243.167,136.5 241.833,136.5 240.5,136.5C 240.5,138.167 240.5,139.833 240.5,141.5C 241.833,141.5 243.167,141.5 244.5,141.5C 244.5,143.167 244.5,144.833 244.5,146.5C 246.167,146.5 247.833,146.5 249.5,146.5C 249.5,144.833 249.5,143.167 249.5,141.5C 251.167,141.5 252.833,141.5 254.5,141.5C 254.5,143.167 254.5,144.833 254.5,146.5C 256.167,146.5 257.833,146.5 259.5,146.5C 259.5,148.167 259.5,149.833 259.5,151.5C 257.833,151.5 256.167,151.5 254.5,151.5C 254.5,152.833 254.5,154.167 254.5,155.5C 253.167,155.5 251.833,155.5 250.5,155.5C 250.5,154.167 250.5,152.833 250.5,151.5C 248.833,151.5 247.167,151.5 245.5,151.5C 245.5,152.833 245.5,154.167 245.5,155.5C 249.5,154.833 251.167,156.5 250.5,160.5C 251.833,160.5 253.167,160.5 254.5,160.5C 254.5,159.167 254.5,157.833 254.5,156.5C 256.167,156.5 257.833,156.5 259.5,156.5C 259.5,157.833 259.5,159.167 259.5,160.5C 261.167,160.5 262.833,160.5 264.5,160.5C 264.5,159.167 264.5,157.833 264.5,156.5C 266.167,156.5 267.833,156.5 269.5,156.5C 269.5,157.833 269.5,159.167 269.5,160.5C 271.167,160.5 272.833,160.5 274.5,160.5C 274.5,159.167 274.5,157.833 274.5,156.5C 276.167,156.5 277.833,156.5 279.5,156.5C 279.5,158.167 279.5,159.833 279.5,161.5C 280.833,161.5 282.167,161.5 283.5,161.5C 283.5,162.833 283.5,164.167 283.5,165.5C 285.5,165.5 287.5,165.5 289.5,165.5C 289.5,164.167 289.5,162.833 289.5,161.5C 290.833,161.5 292.167,161.5 293.5,161.5C 293.5,162.833 293.5,164.167 293.5,165.5C 295.167,165.5 296.833,165.5 298.5,165.5C 298.5,163.833 298.5,162.167 298.5,160.5C 297.167,160.5 295.833,160.5 294.5,160.5C 294.5,158.833 294.5,157.167 294.5,155.5C 295.833,155.5 297.167,155.5 298.5,155.5C 298.5,153.833 298.5,152.167 298.5,150.5C 297.167,150.5 295.833,150.5 294.5,150.5C 294.5,149.167 294.5,147.833 294.5,146.5C 292.833,146.5 291.167,146.5 289.5,146.5C 289.5,144.833 289.5,143.167 289.5,141.5C 290.833,141.5 292.167,141.5 293.5,141.5C 293.5,139.833 293.5,138.167 293.5,136.5C 292.167,136.5 290.833,136.5 289.5,136.5C 289.5,134.833 289.5,133.167 289.5,131.5C 290.833,131.5 292.167,131.5 293.5,131.5C 293.5,129.833 293.5,128.167 293.5,126.5C 292.167,126.5 290.833,126.5 289.5,126.5C 289.5,124.833 289.5,123.167 289.5,121.5C 287.833,121.5 286.167,121.5 284.5,121.5C 284.5,119.833 284.5,118.167 284.5,116.5C 282.5,116.5 280.5,116.5 278.5,116.5C 278.5,115.167 278.5,113.833 278.5,112.5C 277.167,112.5 275.833,112.5 274.5,112.5C 274.5,113.833 274.5,115.167 274.5,116.5C 272.833,116.5 271.167,116.5 269.5,116.5C 269.5,115.167 269.5,113.833 269.5,112.5C 267.833,112.5 266.167,112.5 264.5,112.5C 264.5,113.833 264.5,115.167 264.5,116.5C 262.833,116.5 261.167,116.5 259.5,116.5C 259.5,115.167 259.5,113.833 259.5,112.5C 257.833,112.5 256.167,112.5 254.5,112.5C 254.5,113.833 254.5,115.167 254.5,116.5C 252.833,116.5 251.167,116.5 249.5,116.5C 249.5,114.833 249.5,113.167 249.5,111.5C 248.167,111.5 246.833,111.5 245.5,111.5C 245.5,110.167 245.5,108.833 245.5,107.5C 246.833,107.5 248.167,107.5 249.5,107.5C 249.5,105.833 249.5,104.167 249.5,102.5C 251.167,102.5 252.833,102.5 254.5,102.5C 254.5,104.167 254.5,105.833 254.5,107.5C 256.167,107.5 257.833,107.5 259.5,107.5C 259.5,108.833 259.5,110.167 259.5,111.5C 261.167,111.5 262.833,111.5 264.5,111.5C 264.5,110.167 264.5,108.833 264.5,107.5C 266.167,107.5 267.833,107.5 269.5,107.5C 269.5,105.833 269.5,104.167 269.5,102.5C 267.833,102.5 266.167,102.5 264.5,102.5C 264.5,100.833 264.5,99.1667 264.5,97.5C 262.833,97.5 261.167,97.5 259.5,97.5C 259.5,95.8333 259.5,94.1667 259.5,92.5C 257.833,92.5 256.167,92.5 254.5,92.5C 254.5,90.8333 254.5,89.1667 254.5,87.5C 252.833,87.5 251.167,87.5 249.5,87.5C 249.5,85.8333 249.5,84.1667 249.5,82.5C 247.833,82.5 246.167,82.5 244.5,82.5C 244.5,84.1667 244.5,85.8333 244.5,87.5C 243.167,87.5 241.833,87.5 240.5,87.5C 240.5,89.1667 240.5,90.8333 240.5,92.5C 241.833,92.5 243.167,92.5 244.5,92.5C 244.5,94.1667 244.5,95.8333 244.5,97.5C 243.167,97.5 241.833,97.5 240.5,97.5C 240.5,99.1667 240.5,100.833 240.5,102.5C 241.833,102.5 243.167,102.5 244.5,102.5C 244.5,104.167 244.5,105.833 244.5,107.5C 243.167,107.5 241.833,107.5 240.5,107.5C 240.5,108.833 240.5,110.167 240.5,111.5C 238.833,111.5 237.167,111.5 235.5,111.5C 235.5,110.167 235.5,108.833 235.5,107.5C 233.833,107.5 232.167,107.5 230.5,107.5C 230.5,105.833 230.5,104.167 230.5,102.5C 229.5,102.5 228.5,102.5 227.5,102.5C 227.335,99.4816 227.502,96.4816 228,93.5C 229.043,97.2259 229.543,96.8926 229.5,92.5C 228.5,92.5 227.5,92.5 226.5,92.5C 222.396,79.6262 217.73,66.9596 212.5,54.5C 213.209,53.596 214.209,53.2627 215.5,53.5C 215.5,51.8333 215.5,50.1667 215.5,48.5C 217.167,48.5 218.833,48.5 220.5,48.5C 220.5,50.1667 220.5,51.8333 220.5,53.5C 220.5,55.1667 220.5,56.8333 220.5,58.5C 222.167,58.5 223.833,58.5 225.5,58.5C 225.5,60.1667 225.5,61.8333 225.5,63.5C 227.167,63.5 228.833,63.5 230.5,63.5C 230.5,61.8333 230.5,60.1667 230.5,58.5C 232.167,58.5 233.833,58.5 235.5,58.5C 235.5,59.8333 235.5,61.1667 235.5,62.5C 237.167,62.5 238.833,62.5 240.5,62.5C 240.5,61.1667 240.5,59.8333 240.5,58.5C 241.833,58.5 243.167,58.5 244.5,58.5C 244.5,56.8333 244.5,55.1667 244.5,53.5C 243.167,53.5 241.833,53.5 240.5,53.5C 240.5,51.8333 240.5,50.1667 240.5,48.5C 241.833,48.5 243.167,48.5 244.5,48.5C 244.5,46.8333 244.5,45.1667 244.5,43.5C 243.167,43.5 241.833,43.5 240.5,43.5C 240.5,41.8333 240.5,40.1667 240.5,38.5C 241.833,38.5 243.167,38.5 244.5,38.5C 244.5,36.8333 244.5,35.1667 244.5,33.5C 246.167,33.5 247.833,33.5 249.5,33.5C 249.5,35.1667 249.5,36.8333 249.5,38.5C 251.167,38.5 252.833,38.5 254.5,38.5C 254.5,40.1667 254.5,41.8333 254.5,43.5C 256.167,43.5 257.833,43.5 259.5,43.5C 259.5,45.1667 259.5,46.8333 259.5,48.5C 261.167,48.5 262.833,48.5 264.5,48.5C 264.5,50.1667 264.5,51.8333 264.5,53.5C 266.167,53.5 267.833,53.5 269.5,53.5C 269.5,55.1667 269.5,56.8333 269.5,58.5C 267.833,58.5 266.167,58.5 264.5,58.5C 264.5,59.8333 264.5,61.1667 264.5,62.5C 262.833,62.5 261.167,62.5 259.5,62.5C 259.5,61.1667 259.5,59.8333 259.5,58.5C 257.833,58.5 256.167,58.5 254.5,58.5C 254.5,56.8333 254.5,55.1667 254.5,53.5C 252.833,53.5 251.167,53.5 249.5,53.5C 249.5,55.1667 249.5,56.8333 249.5,58.5C 248.167,58.5 246.833,58.5 245.5,58.5C 245.5,59.8333 245.5,61.1667 245.5,62.5C 249.5,61.8333 251.167,63.5 250.5,67.5C 251.833,67.5 253.167,67.5 254.5,67.5C 254.5,66.1667 254.5,64.8333 254.5,63.5C 256.167,63.5 257.833,63.5 259.5,63.5C 259.5,64.8333 259.5,66.1667 259.5,67.5C 261.167,67.5 262.833,67.5 264.5,67.5C 264.5,66.1667 264.5,64.8333 264.5,63.5C 266.167,63.5 267.833,63.5 269.5,63.5C 269.5,64.8333 269.5,66.1667 269.5,67.5C 271.167,67.5 272.833,67.5 274.5,67.5C 274.5,66.1667 274.5,64.8333 274.5,63.5C 275.833,63.5 277.167,63.5 278.5,63.5C 278.5,64.8333 278.5,66.1667 278.5,67.5C 280.167,67.5 281.833,67.5 283.5,67.5C 282.833,63.5 284.5,61.8333 288.5,62.5C 288.5,61.1667 288.5,59.8333 288.5,58.5C 287.167,58.5 285.833,58.5 284.5,58.5C 284.5,56.8333 284.5,55.1667 284.5,53.5C 286.167,53.5 287.833,53.5 289.5,53.5C 289.5,51.8333 289.5,50.1667 289.5,48.5C 290.833,48.5 292.167,48.5 293.5,48.5C 293.5,46.8333 293.5,45.1667 293.5,43.5C 292.167,43.5 290.833,43.5 289.5,43.5C 289.5,41.8333 289.5,40.1667 289.5,38.5C 290.833,38.5 292.167,38.5 293.5,38.5C 293.5,36.8333 293.5,35.1667 293.5,33.5C 295.167,33.5 296.833,33.5 298.5,33.5C 298.5,31.8333 298.5,30.1667 298.5,28.5C 296.833,28.5 295.167,28.5 293.5,28.5C 293.5,27.1667 293.5,25.8333 293.5,24.5C 292.167,24.5 290.833,24.5 289.5,24.5C 289.657,25.8734 289.49,27.2068 289,28.5C 288.502,25.5184 288.335,22.5184 288.5,19.5C 290.5,19.5 292.5,19.5 294.5,19.5C 294.5,20.8333 294.5,22.1667 294.5,23.5C 296.5,23.5 298.5,23.5 300.5,23.5 Z"/></g>
<g><path style="opacity:1" fill="#3b3b3b" d="M 140.5,65.5 C 141.043,65.56 141.376,65.8933 141.5,66.5C 122.178,67.4996 102.845,67.8329 83.5,67.5C 87.97,66.5139 92.6367,66.1805 97.5,66.5C 102.5,66.5 107.5,66.5 112.5,66.5C 122.015,66.8269 131.348,66.4936 140.5,65.5 Z"/></g>
<g><path style="opacity:1" fill="#ababab" d="M 142.5,71.5 C 124.069,70.1754 105.736,70.1754 87.5,71.5C 86.9569,71.44 86.6236,71.1067 86.5,70.5C 95.8333,70.1667 105.167,69.8333 114.5,69.5C 124.191,69.5016 133.525,70.1683 142.5,71.5 Z"/></g>
<g><path style="opacity:1" fill="#f1f1f1" d="M 142.5,71.5 C 145.657,83.4581 148.823,95.4581 152,107.5C 160.075,124.285 173.242,130.452 191.5,126C 200.228,123.437 206.228,117.937 209.5,109.5C 211.114,111.075 213.114,111.741 215.5,111.5C 215.5,109.833 215.5,108.167 215.5,106.5C 216.833,106.5 218.167,106.5 219.5,106.5C 219.5,105.167 219.5,103.833 219.5,102.5C 218.167,102.5 216.833,102.5 215.5,102.5C 215.5,100.833 215.5,99.1667 215.5,97.5C 217.167,97.5 218.833,97.5 220.5,97.5C 220.215,95.712 220.548,94.0453 221.5,92.5C 222.182,93.2427 222.849,93.9094 223.5,94.5C 223.872,120.464 211.206,135.464 185.5,139.5C 157.093,139.825 128.759,139.491 100.5,138.5C 96.0387,116.193 91.7054,93.8601 87.5,71.5C 105.736,70.1754 124.069,70.1754 142.5,71.5 Z"/></g>
<g><path style="opacity:1" fill="#eeeeee" d="M 83.5,70.5 C 86.4012,82.6633 89.0679,94.9967 91.5,107.5C 90.1667,107.5 88.8333,107.5 87.5,107.5C 87.5,105.833 87.5,104.167 87.5,102.5C 85.8333,102.5 84.1667,102.5 82.5,102.5C 82.5,100.833 82.5,99.1667 82.5,97.5C 81.1667,97.5 79.8333,97.5 78.5,97.5C 78.5,95.8333 78.5,94.1667 78.5,92.5C 79.8333,92.5 81.1667,92.5 82.5,92.5C 82.5,90.8333 82.5,89.1667 82.5,87.5C 81.1667,87.5 79.8333,87.5 78.5,87.5C 78.5,85.8333 78.5,84.1667 78.5,82.5C 79.8333,82.5 81.1667,82.5 82.5,82.5C 82.5,80.8333 82.5,79.1667 82.5,77.5C 80.8333,77.5 79.1667,77.5 77.5,77.5C 77.5,76.1667 77.5,74.8333 77.5,73.5C 76.1667,73.5 74.8333,73.5 73.5,73.5C 73.5,75.1667 73.5,76.8333 73.5,78.5C 74.8333,78.5 76.1667,78.5 77.5,78.5C 77.5,79.8333 77.5,81.1667 77.5,82.5C 76.1667,82.5 74.8333,82.5 73.5,82.5C 73.5,84.1667 73.5,85.8333 73.5,87.5C 74.8333,87.5 76.1667,87.5 77.5,87.5C 77.5,89.1667 77.5,90.8333 77.5,92.5C 76.1667,92.5 74.8333,92.5 73.5,92.5C 73.5,94.1667 73.5,95.8333 73.5,97.5C 74.8333,97.5 76.1667,97.5 77.5,97.5C 77.5,99.1667 77.5,100.833 77.5,102.5C 76.1667,102.5 74.8333,102.5 73.5,102.5C 73.5,104.167 73.5,105.833 73.5,107.5C 71.8333,107.5 70.1667,107.5 68.5,107.5C 68.5,105.833 68.5,104.167 68.5,102.5C 66.8333,102.5 65.1667,102.5 63.5,102.5C 63.5,104.167 63.5,105.833 63.5,107.5C 61.8333,107.5 60.1667,107.5 58.5,107.5C 58.5,105.833 58.5,104.167 58.5,102.5C 56.8333,102.5 55.1667,102.5 53.5,102.5C 53.5,100.833 53.5,99.1667 53.5,97.5C 51.8333,97.5 50.1667,97.5 48.5,97.5C 48.5,95.8333 48.5,94.1667 48.5,92.5C 46.8333,92.5 45.1667,92.5 43.5,92.5C 43.5,90.8333 43.5,89.1667 43.5,87.5C 41.8333,87.5 40.1667,87.5 38.5,87.5C 38.5,85.8333 38.5,84.1667 38.5,82.5C 40.1667,82.5 41.8333,82.5 43.5,82.5C 43.5,80.8333 43.5,79.1667 43.5,77.5C 41.8333,77.5 40.1667,77.5 38.5,77.5C 38.5,75.8333 38.5,74.1667 38.5,72.5C 40.1667,72.5 41.8333,72.5 43.5,72.5C 43.5,71.1667 43.5,69.8333 43.5,68.5C 45.1667,68.5 46.8333,68.5 48.5,68.5C 48.5,69.8333 48.5,71.1667 48.5,72.5C 50.1667,72.5 51.8333,72.5 53.5,72.5C 53.5,71.1667 53.5,69.8333 53.5,68.5C 55.1667,68.5 56.8333,68.5 58.5,68.5C 58.5,69.8333 58.5,71.1667 58.5,72.5C 60.1667,72.5 61.8333,72.5 63.5,72.5C 63.5,74.1667 63.5,75.8333 63.5,77.5C 61.8333,77.5 60.1667,77.5 58.5,77.5C 58.5,79.1667 58.5,80.8333 58.5,82.5C 60.1667,82.5 61.8333,82.5 63.5,82.5C 63.5,84.1667 63.5,85.8333 63.5,87.5C 65.1667,87.5 66.8333,87.5 68.5,87.5C 68.5,85.8333 68.5,84.1667 68.5,82.5C 69.8333,82.5 71.1667,82.5 72.5,82.5C 72.5,81.1667 72.5,79.8333 72.5,78.5C 68.9319,78.2407 67.5985,76.2407 68.5,72.5C 70.1667,72.5 71.8333,72.5 73.5,72.5C 73.5,71.1667 73.5,69.8333 73.5,68.5C 74.8333,68.5 76.1667,68.5 77.5,68.5C 77.5,69.8333 77.5,71.1667 77.5,72.5C 80.0101,72.9465 82.0101,72.2798 83.5,70.5 Z"/></g>
<g><path style="opacity:1" fill="#eeeeee" d="M 223.5,94.5 C 222.849,93.9094 222.182,93.2427 221.5,92.5C 220.548,94.0453 220.215,95.712 220.5,97.5C 218.833,97.5 217.167,97.5 215.5,97.5C 215.5,99.1667 215.5,100.833 215.5,102.5C 216.833,102.5 218.167,102.5 219.5,102.5C 219.5,103.833 219.5,105.167 219.5,106.5C 218.167,106.5 216.833,106.5 215.5,106.5C 215.5,108.167 215.5,109.833 215.5,111.5C 213.114,111.741 211.114,111.075 209.5,109.5C 214.619,92.9067 209.285,81.0733 193.5,74C 177.586,71.1083 167.919,77.4416 164.5,93C 164.667,104.331 170.333,110.831 181.5,112.5C 185.995,111.916 189.995,110.25 193.5,107.5C 193.81,108.738 194.31,108.738 195,107.5C 195.494,109.134 195.66,110.801 195.5,112.5C 194.167,112.5 192.833,112.5 191.5,112.5C 191.5,113.833 191.5,115.167 191.5,116.5C 193.167,116.5 194.833,116.5 196.5,116.5C 196.5,115.167 196.5,113.833 196.5,112.5C 197.833,112.5 199.167,112.5 200.5,112.5C 200.5,110.833 200.5,109.167 200.5,107.5C 202.621,107.325 204.621,107.659 206.5,108.5C 199.743,121.377 189.076,126.544 174.5,124C 156.084,116.001 149.251,102.168 154,82.5C 164.711,62.3699 180.878,56.2032 202.5,64C 214.808,70.4804 221.808,80.6471 223.5,94.5 Z"/></g>
<g><path style="opacity:1" fill="#efefef" d="M 206.5,108.5 C 204.621,107.659 202.621,107.325 200.5,107.5C 200.5,109.167 200.5,110.833 200.5,112.5C 199.167,112.5 197.833,112.5 196.5,112.5C 196.5,113.833 196.5,115.167 196.5,116.5C 194.833,116.5 193.167,116.5 191.5,116.5C 191.5,115.167 191.5,113.833 191.5,112.5C 192.833,112.5 194.167,112.5 195.5,112.5C 195.66,110.801 195.494,109.134 195,107.5C 194.31,108.738 193.81,108.738 193.5,107.5C 198.269,100.282 197.269,94.1156 190.5,89C 183.185,86.6809 179.685,89.1809 180,96.5C 181.396,98.5268 183.062,98.8602 185,97.5C 185.183,90.9984 187.516,89.9984 192,94.5C 194.486,103.499 190.986,108.499 181.5,109.5C 170.819,107.165 166.319,100.498 168,89.5C 172.775,78.1131 181.275,73.9465 193.5,77C 206.823,83.811 211.157,94.311 206.5,108.5 Z"/></g>
<g><path style="opacity:1" fill="#f3f3f3" d="M 91.5,107.5 C 91.5,108.167 91.5,108.833 91.5,109.5C 91.6458,113.519 91.9791,117.519 92.5,121.5C 87.7971,121.437 83.1304,121.771 78.5,122.5C 78.5,123.833 78.5,125.167 78.5,126.5C 79.8333,126.5 81.1667,126.5 82.5,126.5C 82.5,128.167 82.5,129.833 82.5,131.5C 81.1667,131.5 79.8333,131.5 78.5,131.5C 78.5,133.167 78.5,134.833 78.5,136.5C 79.8333,136.5 81.1667,136.5 82.5,136.5C 82.5,138.167 82.5,139.833 82.5,141.5C 81.1667,141.5 79.8333,141.5 78.5,141.5C 78.5,143.167 78.5,144.833 78.5,146.5C 76.8333,146.5 75.1667,146.5 73.5,146.5C 71.8333,146.5 70.1667,146.5 68.5,146.5C 68.5,144.833 68.5,143.167 68.5,141.5C 66.8333,141.5 65.1667,141.5 63.5,141.5C 63.5,143.167 63.5,144.833 63.5,146.5C 61.8333,146.5 60.1667,146.5 58.5,146.5C 56.8333,146.5 55.1667,146.5 53.5,146.5C 53.5,144.833 53.5,143.167 53.5,141.5C 51.8333,141.5 50.1667,141.5 48.5,141.5C 48.5,139.833 48.5,138.167 48.5,136.5C 46.8333,136.5 45.1667,136.5 43.5,136.5C 43.5,134.833 43.5,133.167 43.5,131.5C 41.8333,131.5 40.1667,131.5 38.5,131.5C 38.5,129.833 38.5,128.167 38.5,126.5C 36.8333,126.5 35.1667,126.5 33.5,126.5C 33.5,124.833 33.5,123.167 33.5,121.5C 31.8333,121.5 30.1667,121.5 28.5,121.5C 28.5,123.167 28.5,124.833 28.5,126.5C 27.1667,126.5 25.8333,126.5 24.5,126.5C 24.5,124.833 24.5,123.167 24.5,121.5C 22.8333,121.5 21.1667,121.5 19.5,121.5C 19.5,119.833 19.5,118.167 19.5,116.5C 21.1667,116.5 22.8333,116.5 24.5,116.5C 24.5,115.167 24.5,113.833 24.5,112.5C 25.8333,112.5 27.1667,112.5 28.5,112.5C 28.5,113.833 28.5,115.167 28.5,116.5C 30.1667,116.5 31.8333,116.5 33.5,116.5C 33.5,115.167 33.5,113.833 33.5,112.5C 35.1667,112.5 36.8333,112.5 38.5,112.5C 38.5,110.833 38.5,109.167 38.5,107.5C 40.1667,107.5 41.8333,107.5 43.5,107.5C 43.5,108.833 43.5,110.167 43.5,111.5C 45.1667,111.5 46.8333,111.5 48.5,111.5C 48.5,110.167 48.5,108.833 48.5,107.5C 50.1667,107.5 51.8333,107.5 53.5,107.5C 53.5,108.833 53.5,110.167 53.5,111.5C 55.1667,111.5 56.8333,111.5 58.5,111.5C 58.5,110.167 58.5,108.833 58.5,107.5C 60.1667,107.5 61.8333,107.5 63.5,107.5C 63.5,105.833 63.5,104.167 63.5,102.5C 65.1667,102.5 66.8333,102.5 68.5,102.5C 68.5,104.167 68.5,105.833 68.5,107.5C 70.1667,107.5 71.8333,107.5 73.5,107.5C 73.5,105.833 73.5,104.167 73.5,102.5C 74.8333,102.5 76.1667,102.5 77.5,102.5C 77.5,100.833 77.5,99.1667 77.5,97.5C 76.1667,97.5 74.8333,97.5 73.5,97.5C 73.5,95.8333 73.5,94.1667 73.5,92.5C 74.8333,92.5 76.1667,92.5 77.5,92.5C 77.5,90.8333 77.5,89.1667 77.5,87.5C 76.1667,87.5 74.8333,87.5 73.5,87.5C 73.5,85.8333 73.5,84.1667 73.5,82.5C 74.8333,82.5 76.1667,82.5 77.5,82.5C 77.5,81.1667 77.5,79.8333 77.5,78.5C 76.1667,78.5 74.8333,78.5 73.5,78.5C 73.5,76.8333 73.5,75.1667 73.5,73.5C 74.8333,73.5 76.1667,73.5 77.5,73.5C 77.5,74.8333 77.5,76.1667 77.5,77.5C 79.1667,77.5 80.8333,77.5 82.5,77.5C 82.5,79.1667 82.5,80.8333 82.5,82.5C 81.1667,82.5 79.8333,82.5 78.5,82.5C 78.5,84.1667 78.5,85.8333 78.5,87.5C 79.8333,87.5 81.1667,87.5 82.5,87.5C 82.5,89.1667 82.5,90.8333 82.5,92.5C 81.1667,92.5 79.8333,92.5 78.5,92.5C 78.5,94.1667 78.5,95.8333 78.5,97.5C 79.8333,97.5 81.1667,97.5 82.5,97.5C 82.5,99.1667 82.5,100.833 82.5,102.5C 84.1667,102.5 85.8333,102.5 87.5,102.5C 87.5,104.167 87.5,105.833 87.5,107.5C 88.8333,107.5 90.1667,107.5 91.5,107.5 Z"/></g>
<g><path style="opacity:1" fill="#ececec" d="M 249.5,116.5 C 248.432,117.434 247.099,117.768 245.5,117.5C 245.768,119.099 245.434,120.432 244.5,121.5C 242.833,121.5 241.167,121.5 239.5,121.5C 239.5,120.167 239.5,118.833 239.5,117.5C 238.167,117.5 236.833,117.5 235.5,117.5C 235.5,119.167 235.5,120.833 235.5,122.5C 236.833,122.5 238.167,122.5 239.5,122.5C 239.5,123.833 239.5,125.167 239.5,126.5C 238.167,126.5 236.833,126.5 235.5,126.5C 235.5,128.167 235.5,129.833 235.5,131.5C 236.833,131.5 238.167,131.5 239.5,131.5C 239.5,133.167 239.5,134.833 239.5,136.5C 238.167,136.5 236.833,136.5 235.5,136.5C 235.5,138.167 235.5,139.833 235.5,141.5C 236.833,141.5 238.167,141.5 239.5,141.5C 239.5,143.167 239.5,144.833 239.5,146.5C 238.167,146.5 236.833,146.5 235.5,146.5C 235.5,148.167 235.5,149.833 235.5,151.5C 236.833,151.5 238.167,151.5 239.5,151.5C 239.5,152.833 239.5,154.167 239.5,155.5C 238.167,155.5 236.833,155.5 235.5,155.5C 235.5,157.167 235.5,158.833 235.5,160.5C 237.167,160.5 238.833,160.5 240.5,160.5C 240.5,159.167 240.5,157.833 240.5,156.5C 241.833,156.5 243.167,156.5 244.5,156.5C 244.5,158.167 244.5,159.833 244.5,161.5C 243.167,161.5 241.833,161.5 240.5,161.5C 240.5,162.833 240.5,164.167 240.5,165.5C 238.5,165.5 236.5,165.5 234.5,165.5C 234.5,164.167 234.5,162.833 234.5,161.5C 233.167,161.5 231.833,161.5 230.5,161.5C 230.5,162.833 230.5,164.167 230.5,165.5C 228.833,165.5 227.167,165.5 225.5,165.5C 225.5,164.167 225.5,162.833 225.5,161.5C 223.833,161.5 222.167,161.5 220.5,161.5C 220.5,162.833 220.5,164.167 220.5,165.5C 218.833,165.5 217.167,165.5 215.5,165.5C 215.5,164.167 215.5,162.833 215.5,161.5C 213.833,161.5 212.167,161.5 210.5,161.5C 210.5,162.833 210.5,164.167 210.5,165.5C 208.833,165.5 207.167,165.5 205.5,165.5C 205.5,164.167 205.5,162.833 205.5,161.5C 203.833,161.5 202.167,161.5 200.5,161.5C 200.5,162.833 200.5,164.167 200.5,165.5C 198.833,165.5 197.167,165.5 195.5,165.5C 195.5,164.167 195.5,162.833 195.5,161.5C 196.919,160.549 198.585,160.216 200.5,160.5C 200.5,159.167 200.5,157.833 200.5,156.5C 202.167,156.5 203.833,156.5 205.5,156.5C 205.5,157.833 205.5,159.167 205.5,160.5C 207.167,160.5 208.833,160.5 210.5,160.5C 210.5,159.167 210.5,157.833 210.5,156.5C 212.167,156.5 213.833,156.5 215.5,156.5C 215.5,157.833 215.5,159.167 215.5,160.5C 217.167,160.5 218.833,160.5 220.5,160.5C 220.5,159.167 220.5,157.833 220.5,156.5C 222.167,156.5 223.833,156.5 225.5,156.5C 225.5,157.833 225.5,159.167 225.5,160.5C 227.167,160.5 228.833,160.5 230.5,160.5C 230.5,158.833 230.5,157.167 230.5,155.5C 231.833,155.5 233.167,155.5 234.5,155.5C 234.5,154.167 234.5,152.833 234.5,151.5C 233.167,151.5 231.833,151.5 230.5,151.5C 230.5,149.833 230.5,148.167 230.5,146.5C 231.833,146.5 233.167,146.5 234.5,146.5C 234.5,144.833 234.5,143.167 234.5,141.5C 233.167,141.5 231.833,141.5 230.5,141.5C 230.5,139.833 230.5,138.167 230.5,136.5C 228.833,136.5 227.167,136.5 225.5,136.5C 225.5,134.833 225.5,133.167 225.5,131.5C 223.833,131.5 222.167,131.5 220.5,131.5C 220.5,129.833 220.5,128.167 220.5,126.5C 222.167,126.5 223.833,126.5 225.5,126.5C 225.5,125.167 225.5,123.833 225.5,122.5C 223.833,122.5 222.167,122.5 220.5,122.5C 225.662,113.177 227.662,103.177 226.5,92.5C 227.5,92.5 228.5,92.5 229.5,92.5C 229.543,96.8926 229.043,97.2259 228,93.5C 227.502,96.4816 227.335,99.4816 227.5,102.5C 228.5,102.5 229.5,102.5 230.5,102.5C 230.5,104.167 230.5,105.833 230.5,107.5C 232.167,107.5 233.833,107.5 235.5,107.5C 235.5,108.833 235.5,110.167 235.5,111.5C 237.167,111.5 238.833,111.5 240.5,111.5C 240.5,110.167 240.5,108.833 240.5,107.5C 241.833,107.5 243.167,107.5 244.5,107.5C 244.5,105.833 244.5,104.167 244.5,102.5C 243.167,102.5 241.833,102.5 240.5,102.5C 240.5,100.833 240.5,99.1667 240.5,97.5C 241.833,97.5 243.167,97.5 244.5,97.5C 244.5,95.8333 244.5,94.1667 244.5,92.5C 243.167,92.5 241.833,92.5 240.5,92.5C 240.5,90.8333 240.5,89.1667 240.5,87.5C 241.833,87.5 243.167,87.5 244.5,87.5C 244.5,85.8333 244.5,84.1667 244.5,82.5C 246.167,82.5 247.833,82.5 249.5,82.5C 249.5,84.1667 249.5,85.8333 249.5,87.5C 251.167,87.5 252.833,87.5 254.5,87.5C 254.5,89.1667 254.5,90.8333 254.5,92.5C 256.167,92.5 257.833,92.5 259.5,92.5C 259.5,94.1667 259.5,95.8333 259.5,97.5C 261.167,97.5 262.833,97.5 264.5,97.5C 264.5,99.1667 264.5,100.833 264.5,102.5C 266.167,102.5 267.833,102.5 269.5,102.5C 269.5,104.167 269.5,105.833 269.5,107.5C 267.833,107.5 266.167,107.5 264.5,107.5C 264.5,108.833 264.5,110.167 264.5,111.5C 262.833,111.5 261.167,111.5 259.5,111.5C 259.5,110.167 259.5,108.833 259.5,107.5C 257.833,107.5 256.167,107.5 254.5,107.5C 254.5,105.833 254.5,104.167 254.5,102.5C 252.833,102.5 251.167,102.5 249.5,102.5C 249.5,104.167 249.5,105.833 249.5,107.5C 248.167,107.5 246.833,107.5 245.5,107.5C 245.5,108.833 245.5,110.167 245.5,111.5C 246.833,111.5 248.167,111.5 249.5,111.5C 249.5,113.167 249.5,114.833 249.5,116.5 Z"/></g>
<g><path style="opacity:1" fill="#f0f0f0" d="M 244.5,121.5 C 245.434,120.432 245.768,119.099 245.5,117.5C 247.099,117.768 248.432,117.434 249.5,116.5C 251.167,116.5 252.833,116.5 254.5,116.5C 254.5,115.167 254.5,113.833 254.5,112.5C 256.167,112.5 257.833,112.5 259.5,112.5C 259.5,113.833 259.5,115.167 259.5,116.5C 261.167,116.5 262.833,116.5 264.5,116.5C 264.5,115.167 264.5,113.833 264.5,112.5C 266.167,112.5 267.833,112.5 269.5,112.5C 269.5,113.833 269.5,115.167 269.5,116.5C 271.167,116.5 272.833,116.5 274.5,116.5C 274.5,115.167 274.5,113.833 274.5,112.5C 275.833,112.5 277.167,112.5 278.5,112.5C 278.5,113.833 278.5,115.167 278.5,116.5C 280.5,116.5 282.5,116.5 284.5,116.5C 284.5,118.167 284.5,119.833 284.5,121.5C 286.167,121.5 287.833,121.5 289.5,121.5C 289.5,123.167 289.5,124.833 289.5,126.5C 290.833,126.5 292.167,126.5 293.5,126.5C 293.5,128.167 293.5,129.833 293.5,131.5C 292.167,131.5 290.833,131.5 289.5,131.5C 289.5,133.167 289.5,134.833 289.5,136.5C 290.833,136.5 292.167,136.5 293.5,136.5C 293.5,138.167 293.5,139.833 293.5,141.5C 292.167,141.5 290.833,141.5 289.5,141.5C 289.5,143.167 289.5,144.833 289.5,146.5C 291.167,146.5 292.833,146.5 294.5,146.5C 294.5,147.833 294.5,149.167 294.5,150.5C 295.833,150.5 297.167,150.5 298.5,150.5C 298.5,152.167 298.5,153.833 298.5,155.5C 297.167,155.5 295.833,155.5 294.5,155.5C 294.5,157.167 294.5,158.833 294.5,160.5C 295.833,160.5 297.167,160.5 298.5,160.5C 298.5,162.167 298.5,163.833 298.5,165.5C 296.833,165.5 295.167,165.5 293.5,165.5C 293.5,164.167 293.5,162.833 293.5,161.5C 292.167,161.5 290.833,161.5 289.5,161.5C 289.5,162.833 289.5,164.167 289.5,165.5C 287.5,165.5 285.5,165.5 283.5,165.5C 283.5,164.167 283.5,162.833 283.5,161.5C 282.167,161.5 280.833,161.5 279.5,161.5C 279.5,159.833 279.5,158.167 279.5,156.5C 277.833,156.5 276.167,156.5 274.5,156.5C 274.5,157.833 274.5,159.167 274.5,160.5C 272.833,160.5 271.167,160.5 269.5,160.5C 269.5,159.167 269.5,157.833 269.5,156.5C 267.833,156.5 266.167,156.5 264.5,156.5C 264.5,157.833 264.5,159.167 264.5,160.5C 262.833,160.5 261.167,160.5 259.5,160.5C 259.5,159.167 259.5,157.833 259.5,156.5C 257.833,156.5 256.167,156.5 254.5,156.5C 254.5,157.833 254.5,159.167 254.5,160.5C 253.167,160.5 251.833,160.5 250.5,160.5C 251.167,156.5 249.5,154.833 245.5,155.5C 245.5,154.167 245.5,152.833 245.5,151.5C 247.167,151.5 248.833,151.5 250.5,151.5C 250.5,152.833 250.5,154.167 250.5,155.5C 251.833,155.5 253.167,155.5 254.5,155.5C 254.5,154.167 254.5,152.833 254.5,151.5C 256.167,151.5 257.833,151.5 259.5,151.5C 259.5,149.833 259.5,148.167 259.5,146.5C 257.833,146.5 256.167,146.5 254.5,146.5C 254.5,144.833 254.5,143.167 254.5,141.5C 252.833,141.5 251.167,141.5 249.5,141.5C 249.5,143.167 249.5,144.833 249.5,146.5C 247.833,146.5 246.167,146.5 244.5,146.5C 244.5,144.833 244.5,143.167 244.5,141.5C 243.167,141.5 241.833,141.5 240.5,141.5C 240.5,139.833 240.5,138.167 240.5,136.5C 241.833,136.5 243.167,136.5 244.5,136.5C 244.5,134.833 244.5,133.167 244.5,131.5C 243.167,131.5 241.833,131.5 240.5,131.5C 240.5,129.833 240.5,128.167 240.5,126.5C 241.833,126.5 243.167,126.5 244.5,126.5C 244.5,124.833 244.5,123.167 244.5,121.5 Z"/></g>
<g><path style="opacity:1" fill="#f0f0f0" d="M 38.5,87.5 C 40.1667,87.5 41.8333,87.5 43.5,87.5C 43.5,89.1667 43.5,90.8333 43.5,92.5C 45.1667,92.5 46.8333,92.5 48.5,92.5C 48.5,94.1667 48.5,95.8333 48.5,97.5C 50.1667,97.5 51.8333,97.5 53.5,97.5C 53.5,99.1667 53.5,100.833 53.5,102.5C 55.1667,102.5 56.8333,102.5 58.5,102.5C 58.5,104.167 58.5,105.833 58.5,107.5C 58.5,108.833 58.5,110.167 58.5,111.5C 56.8333,111.5 55.1667,111.5 53.5,111.5C 53.5,110.167 53.5,108.833 53.5,107.5C 51.8333,107.5 50.1667,107.5 48.5,107.5C 48.5,108.833 48.5,110.167 48.5,111.5C 46.8333,111.5 45.1667,111.5 43.5,111.5C 43.5,110.167 43.5,108.833 43.5,107.5C 41.8333,107.5 40.1667,107.5 38.5,107.5C 38.5,109.167 38.5,110.833 38.5,112.5C 36.8333,112.5 35.1667,112.5 33.5,112.5C 33.5,113.833 33.5,115.167 33.5,116.5C 31.8333,116.5 30.1667,116.5 28.5,116.5C 28.5,115.167 28.5,113.833 28.5,112.5C 27.1667,112.5 25.8333,112.5 24.5,112.5C 24.5,113.833 24.5,115.167 24.5,116.5C 22.8333,116.5 21.1667,116.5 19.5,116.5C 19.5,118.167 19.5,119.833 19.5,121.5C 21.1667,121.5 22.8333,121.5 24.5,121.5C 24.5,123.167 24.5,124.833 24.5,126.5C 25.8333,126.5 27.1667,126.5 28.5,126.5C 28.5,124.833 28.5,123.167 28.5,121.5C 30.1667,121.5 31.8333,121.5 33.5,121.5C 33.5,123.167 33.5,124.833 33.5,126.5C 35.1667,126.5 36.8333,126.5 38.5,126.5C 38.5,128.167 38.5,129.833 38.5,131.5C 40.1667,131.5 41.8333,131.5 43.5,131.5C 43.5,133.167 43.5,134.833 43.5,136.5C 45.1667,136.5 46.8333,136.5 48.5,136.5C 48.5,138.167 48.5,139.833 48.5,141.5C 50.1667,141.5 51.8333,141.5 53.5,141.5C 53.5,143.167 53.5,144.833 53.5,146.5C 55.1667,146.5 56.8333,146.5 58.5,146.5C 58.5,148.167 58.5,149.833 58.5,151.5C 60.1667,151.5 61.8333,151.5 63.5,151.5C 63.5,153.167 63.5,154.833 63.5,156.5C 61.8333,156.5 60.1667,156.5 58.5,156.5C 58.5,157.833 58.5,159.167 58.5,160.5C 56.8333,160.5 55.1667,160.5 53.5,160.5C 53.5,159.167 53.5,157.833 53.5,156.5C 51.8333,156.5 50.1667,156.5 48.5,156.5C 48.5,157.833 48.5,159.167 48.5,160.5C 46.8333,160.5 45.1667,160.5 43.5,160.5C 43.5,159.167 43.5,157.833 43.5,156.5C 41.8333,156.5 40.1667,156.5 38.5,156.5C 38.5,154.833 38.5,153.167 38.5,151.5C 40.1667,151.5 41.8333,151.5 43.5,151.5C 43.5,149.833 43.5,148.167 43.5,146.5C 41.8333,146.5 40.1667,146.5 38.5,146.5C 38.5,144.833 38.5,143.167 38.5,141.5C 36.8333,141.5 35.1667,141.5 33.5,141.5C 33.5,143.167 33.5,144.833 33.5,146.5C 31.8333,146.5 30.1667,146.5 28.5,146.5C 28.5,147.833 28.5,149.167 28.5,150.5C 27.1667,150.5 25.8333,150.5 24.5,150.5C 24.5,149.167 24.5,147.833 24.5,146.5C 22.8333,146.5 21.1667,146.5 19.5,146.5C 19.5,144.833 19.5,143.167 19.5,141.5C 20.8333,141.5 22.1667,141.5 23.5,141.5C 23.5,139.833 23.5,138.167 23.5,136.5C 22.1667,136.5 20.8333,136.5 19.5,136.5C 19.5,134.833 19.5,133.167 19.5,131.5C 20.8333,131.5 22.1667,131.5 23.5,131.5C 23.5,129.833 23.5,128.167 23.5,126.5C 21.8333,126.5 20.1667,126.5 18.5,126.5C 18.5,125.167 18.5,123.833 18.5,122.5C 17.1667,122.5 15.8333,122.5 14.5,122.5C 14.5,123.833 14.5,125.167 14.5,126.5C 12.8333,126.5 11.1667,126.5 9.5,126.5C 9.5,128.167 9.5,129.833 9.5,131.5C 11.1667,131.5 12.8333,131.5 14.5,131.5C 14.5,133.167 14.5,134.833 14.5,136.5C 15.8333,136.5 17.1667,136.5 18.5,136.5C 18.5,138.167 18.5,139.833 18.5,141.5C 17.1667,141.5 15.8333,141.5 14.5,141.5C 14.5,143.167 14.5,144.833 14.5,146.5C 12.8333,146.5 11.1667,146.5 9.5,146.5C 9.5,148.167 9.5,149.833 9.5,151.5C 7.83333,151.5 6.16667,151.5 4.5,151.5C 4.5,152.833 4.5,154.167 4.5,155.5C 2.83333,155.5 1.16667,155.5 -0.5,155.5C -0.5,127.833 -0.5,100.167 -0.5,72.5C 1.16667,72.5 2.83333,72.5 4.5,72.5C 4.5,71.1667 4.5,69.8333 4.5,68.5C 6.16667,68.5 7.83333,68.5 9.5,68.5C 9.5,69.8333 9.5,71.1667 9.5,72.5C 11.1667,72.5 12.8333,72.5 14.5,72.5C 14.5,74.1667 14.5,75.8333 14.5,77.5C 12.8333,77.5 11.1667,77.5 9.5,77.5C 9.5,79.1667 9.5,80.8333 9.5,82.5C 11.1667,82.5 12.8333,82.5 14.5,82.5C 14.5,84.1667 14.5,85.8333 14.5,87.5C 16.1667,87.5 17.8333,87.5 19.5,87.5C 19.5,89.1667 19.5,90.8333 19.5,92.5C 20.8333,92.5 22.1667,92.5 23.5,92.5C 23.5,94.1667 23.5,95.8333 23.5,97.5C 22.1667,97.5 20.8333,97.5 19.5,97.5C 19.5,99.1667 19.5,100.833 19.5,102.5C 17.8333,102.5 16.1667,102.5 14.5,102.5C 14.5,100.833 14.5,99.1667 14.5,97.5C 12.8333,97.5 11.1667,97.5 9.5,97.5C 9.5,99.1667 9.5,100.833 9.5,102.5C 7.83333,102.5 6.16667,102.5 4.5,102.5C 4.5,104.167 4.5,105.833 4.5,107.5C 6.16667,107.5 7.83333,107.5 9.5,107.5C 9.5,108.833 9.5,110.167 9.5,111.5C 10.8333,111.5 12.1667,111.5 13.5,111.5C 13.7593,107.932 15.7593,106.599 19.5,107.5C 19.5,108.833 19.5,110.167 19.5,111.5C 20.8333,111.5 22.1667,111.5 23.5,111.5C 23.5,110.167 23.5,108.833 23.5,107.5C 25.1667,107.5 26.8333,107.5 28.5,107.5C 28.5,105.833 28.5,104.167 28.5,102.5C 27.1667,102.5 25.8333,102.5 24.5,102.5C 24.5,100.833 24.5,99.1667 24.5,97.5C 25.8333,97.5 27.1667,97.5 28.5,97.5C 28.5,95.8333 28.5,94.1667 28.5,92.5C 27.1667,92.5 25.8333,92.5 24.5,92.5C 24.5,90.8333 24.5,89.1667 24.5,87.5C 25.8333,87.5 27.1667,87.5 28.5,87.5C 28.5,85.8333 28.5,84.1667 28.5,82.5C 30.1667,82.5 31.8333,82.5 33.5,82.5C 33.5,84.1667 33.5,85.8333 33.5,87.5C 35.1667,87.5 36.8333,87.5 38.5,87.5 Z"/></g>
<g><path style="opacity:1" fill="#626262" d="M 100.5,138.5 C 128.759,139.491 157.093,139.825 185.5,139.5C 171.504,140.167 157.337,140.5 143,140.5C 128.484,140.499 114.317,139.833 100.5,138.5 Z"/></g>
<g><path style="opacity:1" fill="#f1f1f1" d="M 91.5,109.5 C 94.4501,120.243 96.7835,131.243 98.5,142.5C 111.323,143.495 124.323,143.829 137.5,143.5C 137.5,144.5 137.5,145.5 137.5,146.5C 138.833,146.5 140.167,146.5 141.5,146.5C 141.5,148.167 141.5,149.833 141.5,151.5C 143.167,151.5 144.833,151.5 146.5,151.5C 146.5,152.833 146.5,154.167 146.5,155.5C 148.167,155.5 149.833,155.5 151.5,155.5C 151.5,154.167 151.5,152.833 151.5,151.5C 153.167,151.5 154.833,151.5 156.5,151.5C 156.5,152.833 156.5,154.167 156.5,155.5C 158.167,155.5 159.833,155.5 161.5,155.5C 161.5,154.167 161.5,152.833 161.5,151.5C 163.167,151.5 164.833,151.5 166.5,151.5C 166.5,152.833 166.5,154.167 166.5,155.5C 168.167,155.5 169.833,155.5 171.5,155.5C 171.5,154.167 171.5,152.833 171.5,151.5C 173.167,151.5 174.833,151.5 176.5,151.5C 176.5,153.167 176.5,154.833 176.5,156.5C 177.833,156.5 179.167,156.5 180.5,156.5C 180.5,157.833 180.5,159.167 180.5,160.5C 179.167,160.5 177.833,160.5 176.5,160.5C 176.5,162.167 176.5,163.833 176.5,165.5C 174.833,165.5 173.167,165.5 171.5,165.5C 171.5,163.833 171.5,162.167 171.5,160.5C 169.833,160.5 168.167,160.5 166.5,160.5C 166.5,159.167 166.5,157.833 166.5,156.5C 164.833,156.5 163.167,156.5 161.5,156.5C 161.5,157.833 161.5,159.167 161.5,160.5C 159.833,160.5 158.167,160.5 156.5,160.5C 156.5,159.167 156.5,157.833 156.5,156.5C 154.833,156.5 153.167,156.5 151.5,156.5C 151.5,157.833 151.5,159.167 151.5,160.5C 149.833,160.5 148.167,160.5 146.5,160.5C 146.5,159.167 146.5,157.833 146.5,156.5C 143.5,156.5 140.5,156.5 137.5,156.5C 137.5,157.833 137.5,159.167 137.5,160.5C 142.833,160.833 142.833,161.167 137.5,161.5C 137.5,162.833 137.5,164.167 137.5,165.5C 139.099,165.232 140.432,165.566 141.5,166.5C 136.833,166.5 132.167,166.5 127.5,166.5C 126.699,164.958 126.366,163.292 126.5,161.5C 125.167,161.5 123.833,161.5 122.5,161.5C 122.5,162.833 122.5,164.167 122.5,165.5C 120.833,165.5 119.167,165.5 117.5,165.5C 117.5,164.167 117.5,162.833 117.5,161.5C 115.833,161.5 114.167,161.5 112.5,161.5C 112.5,162.833 112.5,164.167 112.5,165.5C 110.833,165.5 109.167,165.5 107.5,165.5C 107.5,164.167 107.5,162.833 107.5,161.5C 105.833,161.5 104.167,161.5 102.5,161.5C 102.5,162.833 102.5,164.167 102.5,165.5C 100.833,165.5 99.1667,165.5 97.5,165.5C 97.5,164.167 97.5,162.833 97.5,161.5C 95.8333,161.5 94.1667,161.5 92.5,161.5C 92.5,162.833 92.5,164.167 92.5,165.5C 90.8333,165.5 89.1667,165.5 87.5,165.5C 87.5,163.833 87.5,162.167 87.5,160.5C 89.1667,160.5 90.8333,160.5 92.5,160.5C 92.5,159.167 92.5,157.833 92.5,156.5C 94.1667,156.5 95.8333,156.5 97.5,156.5C 97.5,157.833 97.5,159.167 97.5,160.5C 99.1667,160.5 100.833,160.5 102.5,160.5C 102.5,159.167 102.5,157.833 102.5,156.5C 104.167,156.5 105.833,156.5 107.5,156.5C 107.5,157.833 107.5,159.167 107.5,160.5C 109.167,160.5 110.833,160.5 112.5,160.5C 112.5,159.167 112.5,157.833 112.5,156.5C 114.167,156.5 115.833,156.5 117.5,156.5C 117.5,157.833 117.5,159.167 117.5,160.5C 119.167,160.5 120.833,160.5 122.5,160.5C 122.5,158.833 122.5,157.167 122.5,155.5C 123.833,155.5 125.167,155.5 126.5,155.5C 126.5,154.167 126.5,152.833 126.5,151.5C 124.833,151.5 123.167,151.5 121.5,151.5C 121.5,152.833 121.5,154.167 121.5,155.5C 120.167,155.5 118.833,155.5 117.5,155.5C 117.5,154.167 117.5,152.833 117.5,151.5C 115.833,151.5 114.167,151.5 112.5,151.5C 112.5,152.833 112.5,154.167 112.5,155.5C 110.833,155.5 109.167,155.5 107.5,155.5C 107.5,154.167 107.5,152.833 107.5,151.5C 105.833,151.5 104.167,151.5 102.5,151.5C 102.5,152.833 102.5,154.167 102.5,155.5C 100.833,155.5 99.1667,155.5 97.5,155.5C 97.5,154.167 97.5,152.833 97.5,151.5C 95.8333,151.5 94.1667,151.5 92.5,151.5C 92.5,152.833 92.5,154.167 92.5,155.5C 91.1667,155.5 89.8333,155.5 88.5,155.5C 88.5,154.167 88.5,152.833 88.5,151.5C 86.5,151.5 84.5,151.5 82.5,151.5C 82.5,153.167 82.5,154.833 82.5,156.5C 81.1667,156.5 79.8333,156.5 78.5,156.5C 78.5,157.833 78.5,159.167 78.5,160.5C 76.8333,160.5 75.1667,160.5 73.5,160.5C 73.5,162.167 73.5,163.833 73.5,165.5C 71.8333,165.5 70.1667,165.5 68.5,165.5C 68.5,163.833 68.5,162.167 68.5,160.5C 69.8333,160.5 71.1667,160.5 72.5,160.5C 72.5,159.167 72.5,157.833 72.5,156.5C 71.1667,156.5 69.8333,156.5 68.5,156.5C 68.5,154.833 68.5,153.167 68.5,151.5C 70.1667,151.5 71.8333,151.5 73.5,151.5C 73.5,149.833 73.5,148.167 73.5,146.5C 75.1667,146.5 76.8333,146.5 78.5,146.5C 78.5,144.833 78.5,143.167 78.5,141.5C 79.8333,141.5 81.1667,141.5 82.5,141.5C 82.5,139.833 82.5,138.167 82.5,136.5C 81.1667,136.5 79.8333,136.5 78.5,136.5C 78.5,134.833 78.5,133.167 78.5,131.5C 79.8333,131.5 81.1667,131.5 82.5,131.5C 82.5,129.833 82.5,128.167 82.5,126.5C 81.1667,126.5 79.8333,126.5 78.5,126.5C 78.5,125.167 78.5,123.833 78.5,122.5C 83.1304,121.771 87.7971,121.437 92.5,121.5C 91.9791,117.519 91.6458,113.519 91.5,109.5 Z"/></g>
<g><path style="opacity:1" fill="#ededed" d="M 220.5,122.5 C 222.167,122.5 223.833,122.5 225.5,122.5C 225.5,123.833 225.5,125.167 225.5,126.5C 223.833,126.5 222.167,126.5 220.5,126.5C 220.5,128.167 220.5,129.833 220.5,131.5C 222.167,131.5 223.833,131.5 225.5,131.5C 225.5,133.167 225.5,134.833 225.5,136.5C 227.167,136.5 228.833,136.5 230.5,136.5C 230.5,138.167 230.5,139.833 230.5,141.5C 231.833,141.5 233.167,141.5 234.5,141.5C 234.5,143.167 234.5,144.833 234.5,146.5C 233.167,146.5 231.833,146.5 230.5,146.5C 230.5,148.167 230.5,149.833 230.5,151.5C 231.833,151.5 233.167,151.5 234.5,151.5C 234.5,152.833 234.5,154.167 234.5,155.5C 233.167,155.5 231.833,155.5 230.5,155.5C 230.5,157.167 230.5,158.833 230.5,160.5C 228.833,160.5 227.167,160.5 225.5,160.5C 225.5,159.167 225.5,157.833 225.5,156.5C 223.833,156.5 222.167,156.5 220.5,156.5C 220.5,157.833 220.5,159.167 220.5,160.5C 218.833,160.5 217.167,160.5 215.5,160.5C 215.5,159.167 215.5,157.833 215.5,156.5C 213.833,156.5 212.167,156.5 210.5,156.5C 210.5,157.833 210.5,159.167 210.5,160.5C 208.833,160.5 207.167,160.5 205.5,160.5C 205.5,159.167 205.5,157.833 205.5,156.5C 203.833,156.5 202.167,156.5 200.5,156.5C 200.5,157.833 200.5,159.167 200.5,160.5C 198.585,160.216 196.919,160.549 195.5,161.5C 194.167,161.5 192.833,161.5 191.5,161.5C 191.5,162.833 191.5,164.167 191.5,165.5C 189.833,165.5 188.167,165.5 186.5,165.5C 186.5,164.167 186.5,162.833 186.5,161.5C 187.833,161.5 189.167,161.5 190.5,161.5C 190.5,159.5 190.5,157.5 190.5,155.5C 188.833,155.5 187.167,155.5 185.5,155.5C 185.5,154.167 185.5,152.833 185.5,151.5C 184.167,151.5 182.833,151.5 181.5,151.5C 181.5,153.167 181.5,154.833 181.5,156.5C 182.833,156.5 184.167,156.5 185.5,156.5C 185.5,157.833 185.5,159.167 185.5,160.5C 184.167,160.5 182.833,160.5 181.5,160.5C 181.5,162.167 181.5,163.833 181.5,165.5C 183.099,165.232 184.432,165.566 185.5,166.5C 170.833,166.5 156.167,166.5 141.5,166.5C 140.432,165.566 139.099,165.232 137.5,165.5C 137.5,164.167 137.5,162.833 137.5,161.5C 142.833,161.167 142.833,160.833 137.5,160.5C 137.5,159.167 137.5,157.833 137.5,156.5C 140.5,156.5 143.5,156.5 146.5,156.5C 146.5,157.833 146.5,159.167 146.5,160.5C 148.167,160.5 149.833,160.5 151.5,160.5C 151.5,159.167 151.5,157.833 151.5,156.5C 153.167,156.5 154.833,156.5 156.5,156.5C 156.5,157.833 156.5,159.167 156.5,160.5C 158.167,160.5 159.833,160.5 161.5,160.5C 161.5,159.167 161.5,157.833 161.5,156.5C 163.167,156.5 164.833,156.5 166.5,156.5C 166.5,157.833 166.5,159.167 166.5,160.5C 168.167,160.5 169.833,160.5 171.5,160.5C 171.5,162.167 171.5,163.833 171.5,165.5C 173.167,165.5 174.833,165.5 176.5,165.5C 176.5,163.833 176.5,162.167 176.5,160.5C 177.833,160.5 179.167,160.5 180.5,160.5C 180.5,159.167 180.5,157.833 180.5,156.5C 179.167,156.5 177.833,156.5 176.5,156.5C 176.5,154.833 176.5,153.167 176.5,151.5C 174.833,151.5 173.167,151.5 171.5,151.5C 171.5,152.833 171.5,154.167 171.5,155.5C 169.833,155.5 168.167,155.5 166.5,155.5C 166.5,154.167 166.5,152.833 166.5,151.5C 164.833,151.5 163.167,151.5 161.5,151.5C 161.5,152.833 161.5,154.167 161.5,155.5C 159.833,155.5 158.167,155.5 156.5,155.5C 156.5,154.167 156.5,152.833 156.5,151.5C 154.833,151.5 153.167,151.5 151.5,151.5C 151.5,152.833 151.5,154.167 151.5,155.5C 149.833,155.5 148.167,155.5 146.5,155.5C 146.5,154.167 146.5,152.833 146.5,151.5C 144.833,151.5 143.167,151.5 141.5,151.5C 141.5,149.833 141.5,148.167 141.5,146.5C 140.167,146.5 138.833,146.5 137.5,146.5C 137.5,145.5 137.5,144.5 137.5,143.5C 124.323,143.829 111.323,143.495 98.5,142.5C 129.168,142.667 159.835,142.5 190.5,142C 203.092,139.221 213.092,132.721 220.5,122.5 Z"/></g>
<g><path style="opacity:1" fill="#f5f5f5" d="M 58.5,146.5 C 60.1667,146.5 61.8333,146.5 63.5,146.5C 63.5,144.833 63.5,143.167 63.5,141.5C 65.1667,141.5 66.8333,141.5 68.5,141.5C 68.5,143.167 68.5,144.833 68.5,146.5C 70.1667,146.5 71.8333,146.5 73.5,146.5C 73.5,148.167 73.5,149.833 73.5,151.5C 71.8333,151.5 70.1667,151.5 68.5,151.5C 68.5,153.167 68.5,154.833 68.5,156.5C 69.8333,156.5 71.1667,156.5 72.5,156.5C 72.5,157.833 72.5,159.167 72.5,160.5C 71.1667,160.5 69.8333,160.5 68.5,160.5C 68.5,162.167 68.5,163.833 68.5,165.5C 70.1667,165.5 71.8333,165.5 73.5,165.5C 73.5,163.833 73.5,162.167 73.5,160.5C 75.1667,160.5 76.8333,160.5 78.5,160.5C 78.5,159.167 78.5,157.833 78.5,156.5C 79.8333,156.5 81.1667,156.5 82.5,156.5C 82.5,154.833 82.5,153.167 82.5,151.5C 84.5,151.5 86.5,151.5 88.5,151.5C 88.5,152.833 88.5,154.167 88.5,155.5C 89.8333,155.5 91.1667,155.5 92.5,155.5C 92.5,154.167 92.5,152.833 92.5,151.5C 94.1667,151.5 95.8333,151.5 97.5,151.5C 97.5,152.833 97.5,154.167 97.5,155.5C 99.1667,155.5 100.833,155.5 102.5,155.5C 102.5,154.167 102.5,152.833 102.5,151.5C 104.167,151.5 105.833,151.5 107.5,151.5C 107.5,152.833 107.5,154.167 107.5,155.5C 109.167,155.5 110.833,155.5 112.5,155.5C 112.5,154.167 112.5,152.833 112.5,151.5C 114.167,151.5 115.833,151.5 117.5,151.5C 117.5,152.833 117.5,154.167 117.5,155.5C 118.833,155.5 120.167,155.5 121.5,155.5C 121.5,154.167 121.5,152.833 121.5,151.5C 123.167,151.5 124.833,151.5 126.5,151.5C 126.5,152.833 126.5,154.167 126.5,155.5C 125.167,155.5 123.833,155.5 122.5,155.5C 122.5,157.167 122.5,158.833 122.5,160.5C 120.833,160.5 119.167,160.5 117.5,160.5C 117.5,159.167 117.5,157.833 117.5,156.5C 115.833,156.5 114.167,156.5 112.5,156.5C 112.5,157.833 112.5,159.167 112.5,160.5C 110.833,160.5 109.167,160.5 107.5,160.5C 107.5,159.167 107.5,157.833 107.5,156.5C 105.833,156.5 104.167,156.5 102.5,156.5C 102.5,157.833 102.5,159.167 102.5,160.5C 100.833,160.5 99.1667,160.5 97.5,160.5C 97.5,159.167 97.5,157.833 97.5,156.5C 95.8333,156.5 94.1667,156.5 92.5,156.5C 92.5,157.833 92.5,159.167 92.5,160.5C 90.8333,160.5 89.1667,160.5 87.5,160.5C 87.5,162.167 87.5,163.833 87.5,165.5C 89.1667,165.5 90.8333,165.5 92.5,165.5C 92.5,164.167 92.5,162.833 92.5,161.5C 94.1667,161.5 95.8333,161.5 97.5,161.5C 97.5,162.833 97.5,164.167 97.5,165.5C 99.1667,165.5 100.833,165.5 102.5,165.5C 102.5,164.167 102.5,162.833 102.5,161.5C 104.167,161.5 105.833,161.5 107.5,161.5C 107.5,162.833 107.5,164.167 107.5,165.5C 109.167,165.5 110.833,165.5 112.5,165.5C 112.5,164.167 112.5,162.833 112.5,161.5C 114.167,161.5 115.833,161.5 117.5,161.5C 117.5,162.833 117.5,164.167 117.5,165.5C 119.167,165.5 120.833,165.5 122.5,165.5C 122.5,164.167 122.5,162.833 122.5,161.5C 123.833,161.5 125.167,161.5 126.5,161.5C 126.366,163.292 126.699,164.958 127.5,166.5C 84.8333,166.5 42.1667,166.5 -0.5,166.5C -0.5,162.833 -0.5,159.167 -0.5,155.5C 1.16667,155.5 2.83333,155.5 4.5,155.5C 4.5,154.167 4.5,152.833 4.5,151.5C 6.16667,151.5 7.83333,151.5 9.5,151.5C 9.5,149.833 9.5,148.167 9.5,146.5C 11.1667,146.5 12.8333,146.5 14.5,146.5C 14.5,144.833 14.5,143.167 14.5,141.5C 15.8333,141.5 17.1667,141.5 18.5,141.5C 18.5,139.833 18.5,138.167 18.5,136.5C 17.1667,136.5 15.8333,136.5 14.5,136.5C 14.5,134.833 14.5,133.167 14.5,131.5C 12.8333,131.5 11.1667,131.5 9.5,131.5C 9.5,129.833 9.5,128.167 9.5,126.5C 11.1667,126.5 12.8333,126.5 14.5,126.5C 14.5,125.167 14.5,123.833 14.5,122.5C 15.8333,122.5 17.1667,122.5 18.5,122.5C 18.5,123.833 18.5,125.167 18.5,126.5C 20.1667,126.5 21.8333,126.5 23.5,126.5C 23.5,128.167 23.5,129.833 23.5,131.5C 22.1667,131.5 20.8333,131.5 19.5,131.5C 19.5,133.167 19.5,134.833 19.5,136.5C 20.8333,136.5 22.1667,136.5 23.5,136.5C 23.5,138.167 23.5,139.833 23.5,141.5C 22.1667,141.5 20.8333,141.5 19.5,141.5C 19.5,143.167 19.5,144.833 19.5,146.5C 21.1667,146.5 22.8333,146.5 24.5,146.5C 24.5,147.833 24.5,149.167 24.5,150.5C 25.8333,150.5 27.1667,150.5 28.5,150.5C 28.5,149.167 28.5,147.833 28.5,146.5C 30.1667,146.5 31.8333,146.5 33.5,146.5C 33.5,144.833 33.5,143.167 33.5,141.5C 35.1667,141.5 36.8333,141.5 38.5,141.5C 38.5,143.167 38.5,144.833 38.5,146.5C 40.1667,146.5 41.8333,146.5 43.5,146.5C 43.5,148.167 43.5,149.833 43.5,151.5C 41.8333,151.5 40.1667,151.5 38.5,151.5C 38.5,153.167 38.5,154.833 38.5,156.5C 40.1667,156.5 41.8333,156.5 43.5,156.5C 43.5,157.833 43.5,159.167 43.5,160.5C 45.1667,160.5 46.8333,160.5 48.5,160.5C 48.5,159.167 48.5,157.833 48.5,156.5C 50.1667,156.5 51.8333,156.5 53.5,156.5C 53.5,157.833 53.5,159.167 53.5,160.5C 55.1667,160.5 56.8333,160.5 58.5,160.5C 58.5,159.167 58.5,157.833 58.5,156.5C 60.1667,156.5 61.8333,156.5 63.5,156.5C 63.5,154.833 63.5,153.167 63.5,151.5C 61.8333,151.5 60.1667,151.5 58.5,151.5C 58.5,149.833 58.5,148.167 58.5,146.5 Z"/></g>
</svg>
