<?xml version="1.0" encoding="UTF-8"?>
<!DOCTYPE svg PUBLIC "-//W3C//DTD SVG 1.1//EN" "http://www.w3.org/Graphics/SVG/1.1/DTD/svg11.dtd">
<svg xmlns="http://www.w3.org/2000/svg" version="1.1" width="214px" height="235px" style="shape-rendering:geometricPrecision; text-rendering:geometricPrecision; image-rendering:optimizeQuality; fill-rule:evenodd; clip-rule:evenodd" xmlns:xlink="http://www.w3.org/1999/xlink">
<g><path style="opacity:1" fill="#fefefe" d="M -0.5,-0.5 C 70.8333,-0.5 142.167,-0.5 213.5,-0.5C 213.5,77.8333 213.5,156.167 213.5,234.5C 142.167,234.5 70.8333,234.5 -0.5,234.5C -0.5,156.167 -0.5,77.8333 -0.5,-0.5 Z"/></g>
<g><path style="opacity:1" fill="#3b3b3a" d="M 66.5,185.5 C 66.8328,168.82 66.4995,152.153 65.5,135.5C 64.7025,135.957 64.3691,136.624 64.5,137.5C 63.0779,151.876 61.4113,166.209 59.5,180.5C 57.808,181.969 55.808,182.635 53.5,182.5C 48.5094,181.91 43.5094,181.41 38.5,181C 35.0178,180.511 31.8512,179.345 29,177.5C 33.7525,143.898 38.4191,110.231 43,76.5C 42.9262,68.3704 45.7596,61.5371 51.5,56C 60.3821,51.7254 69.3821,47.7254 78.5,44C 81.2026,40.962 84.2026,38.2954 87.5,36C 99.8333,35.3333 112.167,35.3333 124.5,36C 128.41,37.9066 131.744,40.5733 134.5,44C 142.833,47.6667 151.167,51.3333 159.5,55C 162.333,56.5 164.5,58.6667 166,61.5C 167.867,67.034 169.201,72.7007 170,78.5C 174.242,110.374 178.742,142.207 183.5,174C 183.534,177.966 181.534,179.966 177.5,180C 170.995,180.792 164.495,181.626 158,182.5C 155.966,182.646 154.299,181.98 153,180.5C 150.641,165.215 148.641,149.881 147,134.5C 146.667,151.833 146.333,169.167 146,186.5C 140.56,189.609 135.393,193.109 130.5,197C 126.186,199.66 121.519,201.327 116.5,202C 109.167,202.667 101.833,202.667 94.5,202C 90.5328,201.517 86.8662,200.184 83.5,198C 77.7657,193.812 72.0991,189.646 66.5,185.5 Z"/></g>
<g><path style="opacity:1" fill="#a6a6a6" d="M 120.5,39.5 C 110.985,39.1731 101.652,39.5064 92.5,40.5C 91.9569,40.44 91.6236,40.1067 91.5,39.5C 96.5,39.1667 101.5,38.8333 106.5,38.5C 111.918,38.4729 116.585,38.8063 120.5,39.5 Z"/></g>
<g><path style="opacity:1" fill="#f9f9f9" d="M 92.5,40.5 C 101.652,39.5064 110.985,39.1731 120.5,39.5C 116.11,43.3753 111.277,46.7087 106,49.5C 101.574,46.3717 97.0742,43.3717 92.5,40.5 Z"/></g>
<g><path style="opacity:1" fill="#f7f7f7" d="M 85.5,41.5 C 86.552,41.3505 87.552,41.5172 88.5,42C 92.8333,45.1667 97.1667,48.3333 101.5,51.5C 98.8061,55.5399 95.6395,59.2065 92,62.5C 88.6966,57.0314 85.1966,51.6981 81.5,46.5C 82.8569,44.8144 84.1902,43.1477 85.5,41.5 Z"/></g>
<g><path style="opacity:1" fill="#f8f8f8" d="M 124.5,41.5 C 127.272,42.4364 129.272,44.2697 130.5,47C 127.406,52.4297 123.906,57.5964 120,62.5C 117.153,58.9888 114.32,55.4888 111.5,52C 115.672,48.3309 120.005,44.8309 124.5,41.5 Z"/></g>
<g><path style="opacity:1" fill="#fdfdfd" d="M 99.5,60.5 C 99.5,106.5 99.5,152.5 99.5,198.5C 95.313,198.605 91.313,197.772 87.5,196C 82.1791,191.672 76.5125,187.838 70.5,184.5C 69.5002,156.175 69.1669,127.841 69.5,99.5C 68.1667,99.5 66.8333,99.5 65.5,99.5C 63.2325,120.509 60.8992,141.509 58.5,162.5C 50.8333,161.833 43.1667,161.167 35.5,160.5C 38.834,133.829 42.334,107.162 46,80.5C 46.6564,73.8783 48.323,67.545 51,61.5C 59.3256,56.2543 68.159,51.921 77.5,48.5C 81.9954,54.5049 86.3288,60.6716 90.5,67C 91.5,67.6667 92.5,67.6667 93.5,67C 94.9984,64.3363 96.9984,62.1696 99.5,60.5 Z"/></g>
<g><path style="opacity:1" fill="#fcfcfc" d="M 133.5,48.5 C 142.832,51.4475 151.832,55.2809 160.5,60C 163.642,65.3958 165.475,71.2291 166,77.5C 169.725,104.848 173.558,132.181 177.5,159.5C 169.868,160.746 162.201,161.746 154.5,162.5C 151.752,141.518 149.086,120.518 146.5,99.5C 145.167,99.5 143.833,99.5 142.5,99.5C 142.667,127.835 142.5,156.169 142,184.5C 136.167,188.333 130.333,192.167 124.5,196C 121.077,197.904 117.41,198.737 113.5,198.5C 113.333,152.832 113.5,107.165 114,61.5C 116.064,64.2736 118.564,66.1069 121.5,67C 125.895,61.0322 129.895,54.8655 133.5,48.5 Z"/></g>
<g><path style="opacity:1" fill="#fcfcfc" d="M 101.5,198.5 C 101.5,151.833 101.5,105.167 101.5,58.5C 102.748,56.3509 104.248,54.3509 106,52.5C 108,54.5 110,56.5 112,58.5C 112.5,105.165 112.667,151.832 112.5,198.5C 108.833,198.5 105.167,198.5 101.5,198.5 Z"/></g>
<g><path style="opacity:1" fill="#3c3c3b" d="M 104.5,57.5 C 105.833,57.5 107.167,57.5 108.5,57.5C 108.465,63.0241 106.799,63.6908 103.5,59.5C 103.863,58.8165 104.196,58.1499 104.5,57.5 Z"/></g>
<g><path style="opacity:1" fill="#7b7b7a" d="M 101.5,58.5 C 101.5,105.167 101.5,151.833 101.5,198.5C 100.833,198.5 100.167,198.5 99.5,198.5C 99.5,152.5 99.5,106.5 99.5,60.5C 99.8333,59.5 100.5,58.8333 101.5,58.5 Z"/></g>
<g><path style="opacity:1" fill="#3b3b3a" d="M 104.5,78.5 C 108.161,78.3501 109.161,79.8501 107.5,83C 103.707,83.4866 102.707,81.9866 104.5,78.5 Z"/></g>
<g><path style="opacity:1" fill="#3d3d3c" d="M 104.5,99.5 C 108.161,99.3501 109.161,100.85 107.5,104C 103.707,104.487 102.707,102.987 104.5,99.5 Z"/></g>
<g><path style="opacity:1" fill="#3a3a39" d="M 104.5,120.5 C 108.161,120.35 109.161,121.85 107.5,125C 103.707,125.487 102.707,123.987 104.5,120.5 Z"/></g>
<g><path style="opacity:1" fill="#616160" d="M 66.5,185.5 C 65.8333,169.5 65.1667,153.5 64.5,137.5C 64.3691,136.624 64.7025,135.957 65.5,135.5C 66.4995,152.153 66.8328,168.82 66.5,185.5 Z"/></g>
<g><path style="opacity:1" fill="#393938" d="M 104.5,141.5 C 108.161,141.35 109.161,142.85 107.5,146C 103.707,146.487 102.707,144.987 104.5,141.5 Z"/></g>
<g><path style="opacity:1" fill="#f7f7f7" d="M 34.5,162.5 C 42.1836,163.407 49.8503,164.407 57.5,165.5C 57.0728,169.824 56.7395,174.158 56.5,178.5C 48.7329,178.571 41.0663,177.737 33.5,176C 32.9781,175.439 32.6448,174.772 32.5,174C 33.2086,170.159 33.8752,166.326 34.5,162.5 Z"/></g>
<g><path style="opacity:1" fill="#f7f7f7" d="M 170.5,162.5 C 173.167,162.5 175.833,162.5 178.5,162.5C 179.474,167.064 179.474,171.564 178.5,176C 171.217,177.327 163.884,178.16 156.5,178.5C 156.013,174.272 155.347,170.105 154.5,166C 159.825,164.507 165.158,163.34 170.5,162.5 Z"/></g>
<g><path style="opacity:1" fill="#3a3a39" d="M 105.5,162.5 C 108.084,163.048 109.084,164.715 108.5,167.5C 103.516,167.856 102.516,166.189 105.5,162.5 Z"/></g>
<g><path style="opacity:1" fill="#3d3d3c" d="M 172.5,168.5 C 173.833,168.5 175.167,168.5 176.5,168.5C 176.465,174.024 174.799,174.691 171.5,170.5C 171.863,169.817 172.196,169.15 172.5,168.5 Z"/></g>
<g><path style="opacity:1" fill="#3a3a39" d="M 36.5,168.5 C 39.5,168.167 40.8333,169.5 40.5,172.5C 38.8333,172.5 37.1667,172.5 35.5,172.5C 35.4326,171.041 35.7659,169.708 36.5,168.5 Z"/></g>
<g><path style="opacity:1" fill="#343433" d="M 104.5,184.5 C 105.833,184.5 107.167,184.5 108.5,184.5C 108.5,185.833 108.5,187.167 108.5,188.5C 104.56,189.234 103.227,187.901 104.5,184.5 Z"/></g>
</svg>
