<?xml version="1.0" encoding="UTF-8"?>
<!DOCTYPE svg PUBLIC "-//W3C//DTD SVG 1.1//EN" "http://www.w3.org/Graphics/SVG/1.1/DTD/svg11.dtd">
<svg xmlns="http://www.w3.org/2000/svg" version="1.1" width="225px" height="225px" style="shape-rendering:geometricPrecision; text-rendering:geometricPrecision; image-rendering:optimizeQuality; fill-rule:evenodd; clip-rule:evenodd" xmlns:xlink="http://www.w3.org/1999/xlink">
<g><path style="opacity:1" fill="#f4f4f4" d="M -0.5,-0.5 C 74.5,-0.5 149.5,-0.5 224.5,-0.5C 224.5,74.5 224.5,149.5 224.5,224.5C 204.5,224.5 184.5,224.5 164.5,224.5C 164.5,220.833 164.5,217.167 164.5,213.5C 175.99,205.53 187.656,197.696 199.5,190C 201.049,188.786 202.215,187.286 203,185.5C 205.865,148.225 206.865,110.892 206,73.5C 196.581,58.994 186.914,44.6606 177,30.5C 175.338,22.0203 174.171,13.5203 173.5,5C 171.913,4.13759 170.246,3.47093 168.5,3C 139.489,3.28233 110.489,4.28233 81.5,6C 74.2263,6.81068 67.0597,7.97734 60,9.5C 59.3333,10.8333 58.6667,12.1667 58,13.5C 57.6223,20.1891 57.6223,26.8558 58,33.5C 45.8691,52.3136 34.5357,71.647 24,91.5C 23.4984,131.966 25.4984,172.3 30,212.5C 30.4652,213.931 31.2986,215.097 32.5,216C 43.0268,218.253 53.6935,219.419 64.5,219.5C 68.3123,220.324 72.3123,220.824 76.5,221C 100.831,221.5 125.164,221.667 149.5,221.5C 149.5,222.5 149.5,223.5 149.5,224.5C 99.5,224.5 49.5,224.5 -0.5,224.5C -0.5,149.5 -0.5,74.5 -0.5,-0.5 Z"/></g>
<g><path style="opacity:1" fill="#040404" d="M 164.5,213.5 C 159.749,217.04 154.416,219.207 148.5,220C 120.492,220.688 92.4924,220.522 64.5,219.5C 53.6935,219.419 43.0268,218.253 32.5,216C 31.2986,215.097 30.4652,213.931 30,212.5C 25.4984,172.3 23.4984,131.966 24,91.5C 34.5357,71.647 45.8691,52.3136 58,33.5C 57.6223,26.8558 57.6223,20.1891 58,13.5C 58.6667,12.1667 59.3333,10.8333 60,9.5C 67.0597,7.97734 74.2263,6.81068 81.5,6C 110.489,4.28233 139.489,3.28233 168.5,3C 170.246,3.47093 171.913,4.13759 173.5,5C 174.171,13.5203 175.338,22.0203 177,30.5C 186.914,44.6606 196.581,58.994 206,73.5C 206.865,110.892 205.865,148.225 203,185.5C 202.215,187.286 201.049,188.786 199.5,190C 187.656,197.696 175.99,205.53 164.5,213.5 Z"/></g>
<g><path style="opacity:1" fill="#f0f0f0" d="M 172.5,37.5 C 180.934,49.5138 189.267,61.6805 197.5,74C 194.5,75.5 191.5,77 188.5,78.5C 183.15,64.7736 177.817,51.107 172.5,37.5 Z"/></g>
<g><path style="opacity:1" fill="#fafafa" d="M 147.5,34.5 C 153.69,34.1771 159.69,34.5104 165.5,35.5C 160.343,55.129 155.343,74.7957 150.5,94.5C 110.828,94.8332 71.1611,94.4999 31.5,93.5C 41.9016,74.2774 52.9016,55.4441 64.5,37C 92.1311,35.0637 119.798,34.2304 147.5,34.5 Z"/></g>
<g><path style="opacity:1" fill="#0f0f0f" d="M 92.5,39.5 C 100.426,38.4977 107.759,39.9977 114.5,44C 130.55,69.0141 123.883,83.8474 94.5,88.5C 86.8654,88.4583 80.6987,85.4583 76,79.5C 65.309,59.236 70.809,45.9027 92.5,39.5 Z"/></g>
<g><path style="opacity:1" fill="#f2f2f2" d="M 91.5,45.5 C 97.7316,44.9386 103.732,45.772 109.5,48C 114.289,51.9216 114.789,56.4216 111,61.5C 101.955,69.7568 91.788,71.5902 80.5,67C 74.8582,60.7979 75.5249,55.1313 82.5,50C 85.462,48.15 88.462,46.65 91.5,45.5 Z"/></g>
<g><path style="opacity:1" fill="#191919" d="M 107.5,56.5 C 109.028,56.5173 109.528,57.184 109,58.5C 106.855,61.9035 104.021,63.5702 100.5,63.5C 103.577,61.8172 105.91,59.4839 107.5,56.5 Z"/></g>
<g><path style="opacity:1" fill="#1b1b1b" d="M 94.5,46.5 C 98.8056,46.492 102.806,47.492 106.5,49.5C 106,49.8333 105.5,50.1667 105,50.5C 95.8427,47.0614 88.1761,49.0614 82,56.5C 82,58.5 82,60.5 82,62.5C 78.8397,59.2536 78.8397,55.9203 82,52.5C 85.8115,49.5089 89.9781,47.5089 94.5,46.5 Z"/></g>
<g><path style="opacity:1" fill="#a0a0a0" d="M 147.5,34.5 C 153.678,33.1826 160.012,33.1826 166.5,34.5C 166.376,35.1067 166.043,35.44 165.5,35.5C 159.69,34.5104 153.69,34.1771 147.5,34.5 Z"/></g>
<g><path style="opacity:1" fill="#8c8c8c" d="M 93.5,13.5 C 94.4889,18.9753 94.8222,24.642 94.5,30.5C 93.1667,30.5 91.8333,30.5 90.5,30.5C 91.209,29.596 92.209,29.2627 93.5,29.5C 93.5,24.1667 93.5,18.8333 93.5,13.5 Z"/></g>
<g><path style="opacity:1" fill="#a6a6a6" d="M 154.5,21.5 C 155.461,23.2646 155.795,25.2646 155.5,27.5C 159.833,27.5 164.167,27.5 168.5,27.5C 164.03,28.4861 159.363,28.8195 154.5,28.5C 154.5,26.1667 154.5,23.8333 154.5,21.5 Z"/></g>
<g><path style="opacity:1" fill="#f0f0f0" d="M 66.5,14.5 C 69.5,14.5 72.5,14.5 75.5,14.5C 75.5,19.8333 75.5,25.1667 75.5,30.5C 72.1667,30.5 68.8333,30.5 65.5,30.5C 65.332,26.9899 64.9987,23.4899 64.5,20C 64.6975,17.8794 65.3642,16.0461 66.5,14.5 Z"/></g>
<g><path style="opacity:1" fill="#f7f7f7" d="M 93.5,13.5 C 93.5,18.8333 93.5,24.1667 93.5,29.5C 92.209,29.2627 91.209,29.596 90.5,30.5C 86.5,30.5 82.5,30.5 78.5,30.5C 78.5,24.8333 78.5,19.1667 78.5,13.5C 83.5,13.5 88.5,13.5 93.5,13.5 Z"/></g>
<g><path style="opacity:1" fill="#f5f5f5" d="M 106.5,11.5 C 108.5,11.5 110.5,11.5 112.5,11.5C 112.5,17.5 112.5,23.5 112.5,29.5C 107.167,29.5 101.833,29.5 96.5,29.5C 96.5,23.8333 96.5,18.1667 96.5,12.5C 100.042,12.8128 103.375,12.4794 106.5,11.5 Z"/></g>
<g><path style="opacity:1" fill="#f9f9f9" d="M 168.5,27.5 C 164.167,27.5 159.833,27.5 155.5,27.5C 155.795,25.2646 155.461,23.2646 154.5,21.5C 154.5,17.8333 154.5,14.1667 154.5,10.5C 158.833,10.5 163.167,10.5 167.5,10.5C 167.532,16.1886 167.866,21.8552 168.5,27.5 Z"/></g>
<g><path style="opacity:1" fill="#f3f3f3" d="M 134.5,10.5 C 140.167,10.5 145.833,10.5 151.5,10.5C 151.593,16.5164 151.926,22.5164 152.5,28.5C 146.833,28.5 141.167,28.5 135.5,28.5C 134.637,22.5451 134.303,16.5451 134.5,10.5 Z"/></g>
<g><path style="opacity:1" fill="#f1f1f1" d="M 115.5,11.5 C 120.833,11.5 126.167,11.5 131.5,11.5C 132.307,17.4638 132.64,23.4638 132.5,29.5C 126.833,29.5 121.167,29.5 115.5,29.5C 115.5,23.5 115.5,17.5 115.5,11.5 Z"/></g>
<g><path style="opacity:1" fill="#e2e2e2" d="M 115.5,63.5 C 118.086,66.7088 117.919,70.0422 115,73.5C 113.058,70.1183 113.225,66.785 115.5,63.5 Z"/></g>
<g><path style="opacity:1" fill="#ececec" d="M 109.5,69.5 C 112.247,70.9728 113.081,73.3061 112,76.5C 107.803,80.93 105.636,79.93 105.5,73.5C 106.437,71.712 107.77,70.3786 109.5,69.5 Z"/></g>
<g><path style="opacity:1" fill="#e9e9e9" d="M 79.5,74.5 C 81.3093,73.7093 83.3093,73.7093 85.5,74.5C 85.7463,76.7805 85.7463,78.7805 85.5,80.5C 83.0457,78.8967 81.0457,76.8967 79.5,74.5 Z"/></g>
<g><path style="opacity:1" fill="#eaeaea" d="M 99.5,73.5 C 104.258,74.0217 105.592,76.5217 103.5,81C 101.975,82.0086 100.308,82.5086 98.5,82.5C 98.2437,80.0628 97.5771,77.7294 96.5,75.5C 97.6016,74.8243 98.6016,74.1577 99.5,73.5 Z"/></g>
<g><path style="opacity:1" fill="#ebebeb" d="M 87.5,76.5 C 93.4732,73.8073 96.4732,75.8073 96.5,82.5C 94.1432,82.6633 91.8098,82.4966 89.5,82C 88.8906,80.0517 88.224,78.2184 87.5,76.5 Z"/></g>
<g><path style="opacity:1" fill="#fafafa" d="M 197.5,80.5 C 198.497,98.3256 198.83,116.326 198.5,134.5C 198.666,138.514 198.499,142.514 198,146.5C 197.031,142.118 194.531,140.451 190.5,141.5C 188.552,148.052 186.552,154.552 184.5,161C 182.167,161.667 179.833,161.667 177.5,161C 174.661,157.75 172.661,154.084 171.5,150C 167.5,148 163.5,148 159.5,150C 158.874,150.75 158.374,151.584 158,152.5C 157.802,160.578 157.302,168.578 156.5,176.5C 155.503,157.007 155.17,137.34 155.5,117.5C 155.19,111.242 155.524,105.076 156.5,99C 170.204,92.9314 183.87,86.7648 197.5,80.5 Z"/></g>
<g><path style="opacity:1" fill="#505050" d="M 197.5,80.5 C 197.56,79.9569 197.893,79.6236 198.5,79.5C 199.827,97.9956 199.827,116.329 198.5,134.5C 198.83,116.326 198.497,98.3256 197.5,80.5 Z"/></g>
<g><path style="opacity:1" fill="#848484" d="M 67.5,100.5 C 55.5,100.5 43.5,100.5 31.5,100.5C 31.5,107.833 31.5,115.167 31.5,122.5C 30.508,115.018 30.1746,107.352 30.5,99.5C 43.0113,99.1714 55.3446,99.5048 67.5,100.5 Z"/></g>
<g><path style="opacity:1" fill="#1c1c1c" d="M 184.5,91.5 C 186.225,91.8425 186.725,92.8425 186,94.5C 178.369,101.785 171.203,109.452 164.5,117.5C 163.5,118.833 162.5,118.833 161.5,117.5C 169.211,108.794 176.878,100.127 184.5,91.5 Z"/></g>
<g><path style="opacity:1" fill="#f7f7f7" d="M 67.5,100.5 C 94.8333,100.5 122.167,100.5 149.5,100.5C 149.5,126.833 149.5,153.167 149.5,179.5C 146.215,179.731 143.715,178.397 142,175.5C 139.47,169.387 137.803,163.053 137,156.5C 130.387,153.7 124.053,154.367 118,158.5C 116.297,163.401 116.131,168.401 117.5,173.5C 117.596,175.926 116.93,178.093 115.5,180C 110.618,181.555 105.618,181.888 100.5,181C 96.865,176.806 96.6983,172.306 100,167.5C 101.069,157.738 96.5691,153.405 86.5,154.5C 77.8622,153.801 73.1955,157.801 72.5,166.5C 73.4647,170.809 73.6313,175.143 73,179.5C 68.7291,184.4 63.5624,185.9 57.5,184C 56.1068,182.829 55.2735,181.329 55,179.5C 56.1066,163.151 48.9399,157.485 33.5,162.5C 32.1683,149.2 31.5017,135.867 31.5,122.5C 31.5,115.167 31.5,107.833 31.5,100.5C 43.5,100.5 55.5,100.5 67.5,100.5 Z"/></g>
<g><path style="opacity:1" fill="#090909" d="M 114.5,104.5 C 116.017,104.511 117.184,105.177 118,106.5C 118.333,110.5 118.667,114.5 119,118.5C 122.167,115.333 125.333,112.167 128.5,109C 133.1,107.417 134.934,108.917 134,113.5C 130.167,117.333 126.333,121.167 122.5,125C 127.968,129.467 133.135,134.3 138,139.5C 138.167,142.667 136.667,144.167 133.5,144C 128.351,139.685 123.351,135.185 118.5,130.5C 117.673,134.459 117.173,138.459 117,142.5C 115.333,143.833 113.667,143.833 112,142.5C 111.333,132.833 111.333,123.167 112,113.5C 112.079,110.169 112.913,107.169 114.5,104.5 Z"/></g>
<g><path style="opacity:1" fill="#0c0c0c" d="M 97.5,131.5 C 96.5386,133.265 96.2053,135.265 96.5,137.5C 98.099,137.768 99.4324,137.434 100.5,136.5C 102.401,136.567 104.234,136.233 106,135.5C 109.345,136.719 110.179,138.886 108.5,142C 103.673,143.684 98.8401,143.85 94,142.5C 92.2315,130.891 92.0649,119.224 93.5,107.5C 94.8333,106.167 96.1667,106.167 97.5,107.5C 98.4352,115.486 98.4352,123.486 97.5,131.5 Z"/></g>
<g><path style="opacity:1" fill="#0a0a0a" d="M 46.5,107.5 C 50.2789,107.47 53.7789,108.47 57,110.5C 66.6369,105.162 71.6369,108.162 72,119.5C 72.6667,126.833 72.6667,134.167 72,141.5C 70,144.167 68,144.167 66,141.5C 66.3685,132.85 66.3685,124.183 66,115.5C 64.9505,114.483 63.7839,114.316 62.5,115C 61.5399,116.419 60.7065,117.919 60,119.5C 59.6667,126.833 59.3333,134.167 59,141.5C 57.0624,142.86 55.3957,142.527 54,140.5C 53.6667,132.5 53.3333,124.5 53,116.5C 51.2672,114.398 49.2672,114.065 47,115.5C 46.6667,125.5 46.3333,135.5 46,145.5C 44.0624,146.86 42.3957,146.527 41,144.5C 38.6906,133.036 39.0239,121.702 42,110.5C 43.6516,109.601 45.1516,108.601 46.5,107.5 Z"/></g>
<g><path style="opacity:1" fill="#060606" d="M 82.5,107.5 C 86.9764,107.8 88.3097,109.967 86.5,114C 85.552,114.483 84.552,114.649 83.5,114.5C 84.214,121.133 84.714,127.8 85,134.5C 85.9906,135.939 87.324,136.939 89,137.5C 89.7203,139.112 89.5536,140.612 88.5,142C 84.2452,142.796 80.0785,142.629 76,141.5C 75.3333,140.167 75.3333,138.833 76,137.5C 77.6032,136.114 78.4366,134.281 78.5,132C 77.7519,126.523 77.4186,121.023 77.5,115.5C 73.7747,115.22 72.608,113.22 74,109.5C 76.9386,108.872 79.7719,108.205 82.5,107.5 Z"/></g>
<g><path style="opacity:1" fill="#1d1d1d" d="M 180.5,109.5 C 182.355,109.272 183.188,109.939 183,111.5C 177,118.833 171,126.167 165,133.5C 164.333,132.5 164.333,131.5 165,130.5C 170.795,123.885 175.961,116.885 180.5,109.5 Z"/></g>
<g><path style="opacity:1" fill="#6c6c6c" d="M 97.5,131.5 C 97.5,133.167 97.5,134.833 97.5,136.5C 98.5,136.5 99.5,136.5 100.5,136.5C 99.4324,137.434 98.099,137.768 96.5,137.5C 96.2053,135.265 96.5386,133.265 97.5,131.5 Z"/></g>
<g><path style="opacity:1" fill="#6a6a6a" d="M 155.5,117.5 C 155.17,137.34 155.503,157.007 156.5,176.5C 156.44,177.043 156.107,177.376 155.5,177.5C 154.172,157.337 154.172,137.337 155.5,117.5 Z"/></g>
<g><path style="opacity:1" fill="#dadada" d="M 164.5,213.5 C 164.5,217.167 164.5,220.833 164.5,224.5C 159.5,224.5 154.5,224.5 149.5,224.5C 149.5,223.5 149.5,222.5 149.5,221.5C 125.164,221.667 100.831,221.5 76.5,221C 72.3123,220.824 68.3123,220.324 64.5,219.5C 92.4924,220.522 120.492,220.688 148.5,220C 154.416,219.207 159.749,217.04 164.5,213.5 Z"/></g>
</svg>
