<?xml version="1.0" encoding="UTF-8"?>
<!DOCTYPE svg PUBLIC "-//W3C//DTD SVG 1.1//EN" "http://www.w3.org/Graphics/SVG/1.1/DTD/svg11.dtd">
<svg xmlns="http://www.w3.org/2000/svg" version="1.1" width="200px" height="200px" style="shape-rendering:geometricPrecision; text-rendering:geometricPrecision; image-rendering:optimizeQuality; fill-rule:evenodd; clip-rule:evenodd" xmlns:xlink="http://www.w3.org/1999/xlink">
<g><path style="opacity:1" fill="#fdfdfd" d="M -0.5,-0.5 C 66.1667,-0.5 132.833,-0.5 199.5,-0.5C 199.5,66.1667 199.5,132.833 199.5,199.5C 132.833,199.5 66.1667,199.5 -0.5,199.5C -0.5,132.833 -0.5,66.1667 -0.5,-0.5 Z"/></g>
<g><path style="opacity:1" fill="#0f0f0f" d="M 82.5,33.5 C 94.1714,33.3335 105.838,33.5001 117.5,34C 118.701,34.9025 119.535,36.0692 120,37.5C 120.186,39.9005 120.686,42.2338 121.5,44.5C 134.852,47.0895 146.018,53.4228 155,63.5C 158.919,69.6697 162.586,76.0031 166,82.5C 170.083,96.2515 174.416,109.918 179,123.5C 180.998,132.813 182.998,142.146 185,151.5C 185.821,154.554 185.655,157.554 184.5,160.5C 177.715,163.554 170.715,164.888 163.5,164.5C 158.473,157.973 153.64,151.307 149,144.5C 148.807,149.75 148.307,154.917 147.5,160C 115.502,160.5 83.5017,160.667 51.5,160.5C 51.666,155.156 51.4994,149.823 51,144.5C 46.3602,151.307 41.5269,157.973 36.5,164.5C 28.9597,165.493 21.793,164.16 15,160.5C 14.3333,157.167 14.3333,153.833 15,150.5C 16.9835,142.566 18.6502,134.566 20,126.5C 24.7094,112.623 29.0428,98.6227 33,84.5C 37.7081,75.1355 43.2081,66.3022 49.5,58C 58.4004,51.0497 68.4004,46.5497 79.5,44.5C 78.9439,40.3344 79.9439,36.6677 82.5,33.5 Z"/></g>
<g><path style="opacity:1" fill="#e6e6e6" d="M 88.5,38.5 C 95.9887,37.3443 103.655,37.1777 111.5,38C 103.885,42.431 96.2182,42.5977 88.5,38.5 Z"/></g>
<g><path style="opacity:1" fill="#f3f3f3" d="M 97.5,45.5 C 97.8064,48.3854 97.4731,51.0521 96.5,53.5C 87.8313,52.6725 83.6646,48.0058 84,39.5C 88.0572,42.7845 92.5572,44.7845 97.5,45.5 Z"/></g>
<g><path style="opacity:1" fill="#f4f4f4" d="M 103.5,53.5 C 102.527,51.0521 102.194,48.3854 102.5,45.5C 103.791,45.7373 104.791,45.404 105.5,44.5C 109.449,43.7754 112.949,42.1087 116,39.5C 115.66,47.3509 111.494,52.0176 103.5,53.5 Z"/></g>
<g><path style="opacity:1" fill="#7b7b7b" d="M 97.5,45.5 C 98.8032,48.3553 98.8032,51.3553 97.5,54.5C 96.8933,54.3764 96.56,54.0431 96.5,53.5C 97.4731,51.0521 97.8064,48.3854 97.5,45.5 Z"/></g>
<g><path style="opacity:1" fill="#777777" d="M 105.5,44.5 C 104.791,45.404 103.791,45.7373 102.5,45.5C 102.194,48.3854 102.527,51.0521 103.5,53.5C 103.44,54.0431 103.107,54.3764 102.5,54.5C 101.513,51.2317 101.18,47.8984 101.5,44.5C 102.833,44.5 104.167,44.5 105.5,44.5 Z"/></g>
<g><path style="opacity:1" fill="#fafafa" d="M 77.5,48.5 C 81.3257,48.7967 84.3257,50.6301 86.5,54C 90.0937,56.2174 93.9271,57.7174 98,58.5C 98.4994,63.8229 98.666,69.1563 98.5,74.5C 86.4797,74.3283 74.4797,74.6617 62.5,75.5C 62.8778,68.9384 61.8778,62.6051 59.5,56.5C 65.1135,52.6876 71.1135,50.0209 77.5,48.5 Z"/></g>
<g><path style="opacity:1" fill="#f8f8f8" d="M 118.5,48.5 C 126.438,49.4673 133.771,52.1339 140.5,56.5C 138.007,62.5846 137.007,68.9179 137.5,75.5C 125.508,74.9246 113.508,74.5913 101.5,74.5C 101.334,69.1563 101.501,63.8229 102,58.5C 108.866,57.2825 114.366,53.9492 118.5,48.5 Z"/></g>
<g><path style="opacity:1" fill="#f3f3f3" d="M 57.5,66.5 C 57.815,70.3714 57.4816,74.0381 56.5,77.5C 53.1575,74.4979 49.8242,71.4979 46.5,68.5C 48.7881,64.5442 51.7881,61.2109 55.5,58.5C 57.0538,60.9329 57.7204,63.5995 57.5,66.5 Z"/></g>
<g><path style="opacity:1" fill="#efefef" d="M 143.5,58.5 C 148.006,60.84 151.339,64.34 153.5,69C 149.667,72.1667 145.833,75.3333 142,78.5C 141.201,71.7192 141.701,65.0525 143.5,58.5 Z"/></g>
<g><path style="opacity:1" fill="#151515" d="M 120.5,67.5 C 122.857,67.3367 125.19,67.5034 127.5,68C 128.833,69 128.833,70 127.5,71C 125.19,71.4966 122.857,71.6633 120.5,71.5C 120.5,70.1667 120.5,68.8333 120.5,67.5 Z"/></g>
<g><path style="opacity:1" fill="#8c8c8c" d="M 57.5,66.5 C 58.8095,70.3507 58.8095,74.3507 57.5,78.5C 56.8933,78.3764 56.56,78.0431 56.5,77.5C 57.4816,74.0381 57.815,70.3714 57.5,66.5 Z"/></g>
<g><path style="opacity:1" fill="#f7f7f7" d="M 43.5,73.5 C 49.1846,75.6984 53.8513,79.3651 57.5,84.5C 56.4157,88.9322 55.0824,93.2656 53.5,97.5C 48.1667,95.1667 42.8333,92.8333 37.5,90.5C 36.3691,88.9255 36.2025,87.2588 37,85.5C 38.9249,81.3133 41.0916,77.3133 43.5,73.5 Z"/></g>
<g><path style="opacity:1" fill="#f8f8f8" d="M 153.5,73.5 C 154.822,73.33 155.989,73.6634 157,74.5C 159.973,78.7808 162.14,83.4475 163.5,88.5C 163.167,89.1667 162.833,89.8333 162.5,90.5C 156.86,92.5452 151.36,94.8785 146,97.5C 144.408,93.2805 143.241,88.9472 142.5,84.5C 145.881,80.4518 149.548,76.7852 153.5,73.5 Z"/></g>
<g><path style="opacity:1" fill="#858585" d="M 68.5,79.5 C 78.3194,78.506 88.3194,78.1726 98.5,78.5C 98.8257,86.6841 98.4924,94.6841 97.5,102.5C 97.5,94.8333 97.5,87.1667 97.5,79.5C 87.8333,79.5 78.1667,79.5 68.5,79.5 Z"/></g>
<g><path style="opacity:1" fill="#fcfcfc" d="M 68.5,79.5 C 78.1667,79.5 87.8333,79.5 97.5,79.5C 97.5,87.1667 97.5,94.8333 97.5,102.5C 84.1519,102.389 70.8185,102.723 57.5,103.5C 58.8338,95.4987 60.1671,87.4987 61.5,79.5C 63.8333,79.5 66.1667,79.5 68.5,79.5 Z"/></g>
<g><path style="opacity:1" fill="#fcfcfc" d="M 129.5,79.5 C 132.5,79.5 135.5,79.5 138.5,79.5C 139.415,87.2441 140.749,94.9108 142.5,102.5C 129.205,102.756 115.872,102.756 102.5,102.5C 102.5,94.8333 102.5,87.1667 102.5,79.5C 111.5,79.5 120.5,79.5 129.5,79.5 Z"/></g>
<g><path style="opacity:1" fill="#6f6f6f" d="M 129.5,79.5 C 120.5,79.5 111.5,79.5 102.5,79.5C 102.5,87.1667 102.5,94.8333 102.5,102.5C 101.508,94.6841 101.174,86.6841 101.5,78.5C 111.015,78.1731 120.348,78.5064 129.5,79.5 Z"/></g>
<g><path style="opacity:1" fill="#f8f8f8" d="M 34.5,94.5 C 40.9202,96.1404 47.0869,98.4737 53,101.5C 53.3253,108.903 52.6587,116.236 51,123.5C 43.8359,120.89 36.8359,117.89 30,114.5C 29.9408,107.504 31.4408,100.838 34.5,94.5 Z"/></g>
<g><path style="opacity:1" fill="#f8f8f8" d="M 162.5,94.5 C 165.05,94.5608 166.55,95.8941 167,98.5C 168.971,103.703 169.971,109.037 170,114.5C 162.906,117.629 155.739,120.629 148.5,123.5C 147.288,116.195 146.788,108.861 147,101.5C 152.209,99.0507 157.376,96.7173 162.5,94.5 Z"/></g>
<g><path style="opacity:1" fill="#a4a4a4" d="M 136.5,107.5 C 125.167,107.5 113.833,107.5 102.5,107.5C 102.5,115.167 102.5,122.833 102.5,130.5C 101.508,122.684 101.174,114.684 101.5,106.5C 113.345,106.172 125.012,106.505 136.5,107.5 Z"/></g>
<g><path style="opacity:1" fill="#fafafa" d="M 97.5,134.5 C 97.5,141.833 97.5,149.167 97.5,156.5C 83.5,156.5 69.5,156.5 55.5,156.5C 55.2602,140.146 55.5935,123.812 56.5,107.5C 70.1371,106.573 83.8038,106.24 97.5,106.5C 97.5,114.5 97.5,122.5 97.5,130.5C 87.5,130.5 77.5,130.5 67.5,130.5C 68.4883,125.211 69.155,119.878 69.5,114.5C 68.1779,114.33 67.0113,114.663 66,115.5C 64.2226,125.44 62.0559,135.274 59.5,145C 60.0069,147.341 61.1735,147.841 63,146.5C 64.4774,142.57 65.6441,138.57 66.5,134.5C 76.8333,134.5 87.1667,134.5 97.5,134.5 Z"/></g>
<g><path style="opacity:1" fill="#fdfdfd" d="M 136.5,107.5 C 138.792,107.244 140.959,107.577 143,108.5C 143.497,111.146 143.664,113.813 143.5,116.5C 143.5,129.833 143.5,143.167 143.5,156.5C 129.833,156.5 116.167,156.5 102.5,156.5C 102.5,149.167 102.5,141.833 102.5,134.5C 112.833,134.5 123.167,134.5 133.5,134.5C 133.808,139.435 135.475,143.768 138.5,147.5C 139.647,145.235 139.814,142.902 139,140.5C 137.077,132.218 135.41,123.885 134,115.5C 132.989,114.663 131.822,114.33 130.5,114.5C 130.524,119.923 131.19,125.257 132.5,130.5C 122.5,130.5 112.5,130.5 102.5,130.5C 102.5,122.833 102.5,115.167 102.5,107.5C 113.833,107.5 125.167,107.5 136.5,107.5 Z"/></g>
<g><path style="opacity:1" fill="#f9f9f9" d="M 27.5,118.5 C 35.2218,121.297 42.8885,124.297 50.5,127.5C 51.657,130.784 51.8236,134.118 51,137.5C 49.3573,139.977 47.524,142.31 45.5,144.5C 37.9455,141.927 30.4455,139.26 23,136.5C 22.6151,130.039 24.1151,124.039 27.5,118.5 Z"/></g>
<g><path style="opacity:1" fill="#f7f7f7" d="M 169.5,118.5 C 170.822,118.33 171.989,118.663 173,119.5C 175.942,124.916 177.109,130.582 176.5,136.5C 168.945,139.073 161.445,141.74 154,144.5C 152,141.833 150,139.167 148,136.5C 147.179,133.446 147.345,130.446 148.5,127.5C 155.706,124.724 162.706,121.724 169.5,118.5 Z"/></g>
<g><path style="opacity:1" fill="#f7f7f7" d="M 20.5,140.5 C 28.1683,142.889 35.835,145.389 43.5,148C 40.3164,153.174 36.483,157.674 32,161.5C 27.4601,160.764 23.1268,159.431 19,157.5C 18.6447,151.77 19.1447,146.103 20.5,140.5 Z"/></g>
<g><path style="opacity:1" fill="#f6f6f6" d="M 175.5,140.5 C 176.822,140.33 177.989,140.663 179,141.5C 180.893,146.767 181.393,152.1 180.5,157.5C 175.577,159.655 170.577,160.655 165.5,160.5C 162.306,156.473 159.306,152.306 156.5,148C 163.052,145.767 169.385,143.267 175.5,140.5 Z"/></g>
<g><path style="opacity:1" fill="#686868" d="M 97.5,134.5 C 98.492,141.982 98.8254,149.648 98.5,157.5C 83.9903,157.829 69.6569,157.496 55.5,156.5C 69.5,156.5 83.5,156.5 97.5,156.5C 97.5,149.167 97.5,141.833 97.5,134.5 Z"/></g>
<g><path style="opacity:1" fill="#666666" d="M 143.5,116.5 C 144.496,129.99 144.829,143.656 144.5,157.5C 130.323,157.829 116.323,157.496 102.5,156.5C 116.167,156.5 129.833,156.5 143.5,156.5C 143.5,143.167 143.5,129.833 143.5,116.5 Z"/></g>
</svg>
