<?xml version="1.0" encoding="UTF-8"?>
<!DOCTYPE svg PUBLIC "-//W3C//DTD SVG 1.1//EN" "http://www.w3.org/Graphics/SVG/1.1/DTD/svg11.dtd">
<svg xmlns="http://www.w3.org/2000/svg" version="1.1" width="225px" height="225px" style="shape-rendering:geometricPrecision; text-rendering:geometricPrecision; image-rendering:optimizeQuality; fill-rule:evenodd; clip-rule:evenodd" xmlns:xlink="http://www.w3.org/1999/xlink">
<g><path style="opacity:1" fill="#fdfdfd" d="M -0.5,-0.5 C 2.5,-0.5 5.5,-0.5 8.5,-0.5C 5.24076,1.13154 4.74076,3.46487 7,6.5C 45.0072,54.0025 83.1739,101.336 121.5,148.5C 123.63,147.533 125.63,146.366 127.5,145C 88.2394,96.9135 49.5728,48.4135 11.5,-0.5C 82.5,-0.5 153.5,-0.5 224.5,-0.5C 224.5,74.5 224.5,149.5 224.5,224.5C 180.5,224.5 136.5,224.5 92.5,224.5C 134.96,196.563 176.794,167.563 218,137.5C 218.684,136.216 218.517,135.049 217.5,134C 200.829,132.277 184.163,130.444 167.5,128.5C 157.627,130.934 148.294,134.767 139.5,140C 142.132,140.449 144.632,141.283 147,142.5C 152.985,138.591 159.485,135.924 166.5,134.5C 180.224,135.288 193.891,136.621 207.5,138.5C 169.167,165.333 130.833,192.167 92.5,219C 68.4289,215.989 44.4289,212.322 20.5,208C 51.3235,192.422 81.9902,176.589 112.5,160.5C 113.59,158.209 114.09,155.876 114,153.5C 85.9117,168.128 57.745,182.628 29.5,197C 22.7529,200.455 16.2529,204.289 10,208.5C 9.28885,210.367 9.78885,211.867 11.5,213C 36.6803,216.602 61.6803,220.435 86.5,224.5C 57.5,224.5 28.5,224.5 -0.5,224.5C -0.5,149.5 -0.5,74.5 -0.5,-0.5 Z"/></g>
<g><path style="opacity:1" fill="#080808" d="M 8.5,-0.5 C 9.5,-0.5 10.5,-0.5 11.5,-0.5C 49.5728,48.4135 88.2394,96.9135 127.5,145C 125.63,146.366 123.63,147.533 121.5,148.5C 83.1739,101.336 45.0072,54.0025 7,6.5C 4.74076,3.46487 5.24076,1.13154 8.5,-0.5 Z"/></g>
<g><path style="opacity:1" fill="#0a0a0a" d="M 92.5,224.5 C 90.5,224.5 88.5,224.5 86.5,224.5C 61.6803,220.435 36.6803,216.602 11.5,213C 9.78885,211.867 9.28885,210.367 10,208.5C 16.2529,204.289 22.7529,200.455 29.5,197C 57.745,182.628 85.9117,168.128 114,153.5C 114.09,155.876 113.59,158.209 112.5,160.5C 81.9902,176.589 51.3235,192.422 20.5,208C 44.4289,212.322 68.4289,215.989 92.5,219C 130.833,192.167 169.167,165.333 207.5,138.5C 193.891,136.621 180.224,135.288 166.5,134.5C 159.485,135.924 152.985,138.591 147,142.5C 144.632,141.283 142.132,140.449 139.5,140C 148.294,134.767 157.627,130.934 167.5,128.5C 184.163,130.444 200.829,132.277 217.5,134C 218.517,135.049 218.684,136.216 218,137.5C 176.794,167.563 134.96,196.563 92.5,224.5 Z"/></g>
<g><path style="opacity:1" fill="#030303" d="M 163.5,138.5 C 174.819,139.443 186.153,140.277 197.5,141C 162.992,164.754 128.659,188.754 94.5,213C 92.6341,213.985 90.6341,214.485 88.5,214.5C 70.1271,211.882 51.7938,209.049 33.5,206C 60.2362,192.549 86.7362,178.716 113,164.5C 112.566,168.452 112.566,172.452 113,176.5C 116.825,178.886 120.992,180.053 125.5,180C 133,175.167 140.5,170.333 148,165.5C 148.169,159.141 148.669,152.807 149.5,146.5C 154.229,143.806 158.896,141.14 163.5,138.5 Z"/></g>
<g><path style="opacity:1" fill="#020202" d="M 142.5,147.5 C 143.812,149.743 144.478,152.41 144.5,155.5C 144.333,158.167 144.167,160.833 144,163.5C 138.333,167.167 132.667,170.833 127,174.5C 126.333,168.5 126.333,162.5 127,156.5C 132.148,153.347 137.314,150.347 142.5,147.5 Z"/></g>
<g><path style="opacity:1" fill="#131313" d="M 136.5,144.5 C 137.873,144.343 139.207,144.51 140.5,145C 135.659,147.921 130.659,150.588 125.5,153C 123.951,154.214 122.785,155.714 122,157.5C 121.501,163.491 121.334,169.491 121.5,175.5C 118.468,175.822 116.801,174.489 116.5,171.5C 117.132,167.183 117.632,162.85 118,158.5C 118.792,156.413 119.959,154.579 121.5,153C 126.887,150.646 131.887,147.812 136.5,144.5 Z"/></g>
</svg>
