<?xml version="1.0" encoding="UTF-8"?>
<!DOCTYPE svg PUBLIC "-//W3C//DTD SVG 1.1//EN" "http://www.w3.org/Graphics/SVG/1.1/DTD/svg11.dtd">
<svg xmlns="http://www.w3.org/2000/svg" version="1.1" width="214px" height="235px" style="shape-rendering:geometricPrecision; text-rendering:geometricPrecision; image-rendering:optimizeQuality; fill-rule:evenodd; clip-rule:evenodd" xmlns:xlink="http://www.w3.org/1999/xlink">
<g><path style="opacity:1" fill="#fefefe" d="M -0.5,-0.5 C 70.8333,-0.5 142.167,-0.5 213.5,-0.5C 213.5,77.8333 213.5,156.167 213.5,234.5C 142.167,234.5 70.8333,234.5 -0.5,234.5C -0.5,156.167 -0.5,77.8333 -0.5,-0.5 Z"/></g>
<g><path style="opacity:1" fill="#353534" d="M 125.5,194.5 C 125.5,193.167 126.167,192.5 127.5,192.5C 127.5,193.833 127.5,195.167 127.5,196.5C 127.5,198.5 127.5,200.5 127.5,202.5C 134.5,202.5 141.5,202.5 148.5,202.5C 148.5,195.5 148.5,188.5 148.5,181.5C 148.308,147.816 148.975,114.15 150.5,80.5C 150.457,71.8051 149.957,63.1385 149,54.5C 135.134,54.1327 126.967,47.1327 124.5,33.5C 118.5,33.5 112.5,33.5 106.5,33.5C 105.833,60.1667 105.167,60.1667 104.5,33.5C 98.5,33.5 92.5,33.5 86.5,33.5C 84.2155,46.614 76.3822,53.614 63,54.5C 62.1163,62.4756 61.6163,70.4756 61.5,78.5C 63.186,111.811 63.8526,145.144 63.5,178.5C 63.5,186.5 63.5,194.5 63.5,202.5C 70.5,202.5 77.5,202.5 84.5,202.5C 84.5,201.167 84.5,199.833 84.5,198.5C 84.5,196.167 84.5,193.833 84.5,191.5C 85.1667,191.5 85.8333,191.5 86.5,191.5C 86.5,197.833 86.5,204.167 86.5,210.5C 78.1667,210.5 69.8333,210.5 61.5,210.5C 60.938,166.999 60.2713,123.499 59.5,80C 59.368,59.9352 61.368,40.1019 65.5,20.5C 92.5,20.5 119.5,20.5 146.5,20.5C 150.233,38.8004 152.233,57.3004 152.5,76C 151.72,120.832 151.053,165.666 150.5,210.5C 142.167,210.5 133.833,210.5 125.5,210.5C 125.5,205.167 125.5,199.833 125.5,194.5 Z"/></g>
<g><path style="opacity:1" fill="#a6a6a5" d="M 106.5,22.5 C 110.833,22.5 115.167,22.5 119.5,22.5C 119.5,25.5 119.5,28.5 119.5,31.5C 115.167,31.5 110.833,31.5 106.5,31.5C 106.5,28.5 106.5,25.5 106.5,22.5 Z"/></g>
<g><path style="opacity:1" fill="#fdfdfd" d="M 144.5,23.5 C 145.219,25.7638 145.552,28.0971 145.5,30.5C 137.833,30.5 130.167,30.5 122.5,30.5C 122.5,28.1667 122.5,25.8333 122.5,23.5C 129.833,23.5 137.167,23.5 144.5,23.5 Z"/></g>
<g><path style="opacity:1" fill="#fafafa" d="M 107.5,23.5 C 111.167,23.5 114.833,23.5 118.5,23.5C 118.5,25.8333 118.5,28.1667 118.5,30.5C 114.833,30.5 111.167,30.5 107.5,30.5C 107.5,28.1667 107.5,25.8333 107.5,23.5 Z"/></g>
<g><path style="opacity:1" fill="#858585" d="M 109.5,25.5 C 110.995,25.4148 111.995,26.0815 112.5,27.5C 111.167,28.8333 109.833,28.8333 108.5,27.5C 108.863,26.8165 109.196,26.1499 109.5,25.5 Z"/></g>
<g><path style="opacity:1" fill="#f3f3f3" d="M 104.5,23.5 C 104.5,26.1667 104.5,28.8333 104.5,31.5C 100.629,31.815 96.9619,31.4816 93.5,30.5C 93.5,28.1667 93.5,25.8333 93.5,23.5C 97.1667,23.5 100.833,23.5 104.5,23.5 Z"/></g>
<g><path style="opacity:1" fill="#818180" d="M 104.5,23.5 C 100.833,23.5 97.1667,23.5 93.5,23.5C 93.5,25.8333 93.5,28.1667 93.5,30.5C 92.5269,28.0521 92.1936,25.3854 92.5,22.5C 96.7016,22.1832 100.702,22.5166 104.5,23.5 Z"/></g>
<g><path style="opacity:1" fill="#ececeb" d="M 67.5,22.5 C 75.1667,22.5 82.8333,22.5 90.5,22.5C 90.5,25.5 90.5,28.5 90.5,31.5C 82.5,31.5 74.5,31.5 66.5,31.5C 66.3677,28.4299 66.701,25.4299 67.5,22.5 Z"/></g>
<g><path style="opacity:1" fill="#adadad" d="M 144.5,23.5 C 137.167,23.5 129.833,23.5 122.5,23.5C 122.5,25.8333 122.5,28.1667 122.5,30.5C 130.167,30.5 137.833,30.5 145.5,30.5C 137.684,31.4924 129.684,31.8257 121.5,31.5C 121.5,28.5 121.5,25.5 121.5,22.5C 129.352,22.1746 137.018,22.508 144.5,23.5 Z"/></g>
<g><path style="opacity:1" fill="#f8f8f8" d="M 65.5,33.5 C 71.8333,33.5 78.1667,33.5 84.5,33.5C 82.4548,45.2081 75.4548,51.2081 63.5,51.5C 63.8389,45.4564 64.5056,39.4564 65.5,33.5 Z"/></g>
<g><path style="opacity:1" fill="#fdfdfc" d="M 148.5,181.5 C 147.509,187.979 147.176,194.646 147.5,201.5C 141.167,201.5 134.833,201.5 128.5,201.5C 128.784,199.585 128.451,197.919 127.5,196.5C 127.5,195.167 127.5,193.833 127.5,192.5C 125.238,149.166 118.738,106.499 108,64.5C 107.612,63.572 106.945,62.9054 106,62.5C 104.265,63.6819 103.265,65.3485 103,67.5C 92.9083,108.23 86.7417,149.563 84.5,191.5C 84.5,193.833 84.5,196.167 84.5,198.5C 83.596,199.209 83.2627,200.209 83.5,201.5C 77.1667,201.5 70.8333,201.5 64.5,201.5C 64.8254,193.648 64.492,185.982 63.5,178.5C 63.8526,145.144 63.186,111.811 61.5,78.5C 61.6163,70.4756 62.1163,62.4756 63,54.5C 76.3822,53.614 84.2155,46.614 86.5,33.5C 92.5,33.5 98.5,33.5 104.5,33.5C 105.167,60.1667 105.833,60.1667 106.5,33.5C 112.5,33.5 118.5,33.5 124.5,33.5C 126.967,47.1327 135.134,54.1327 149,54.5C 149.957,63.1385 150.457,71.8051 150.5,80.5C 148.975,114.15 148.308,147.816 148.5,181.5 Z"/></g>
<g><path style="opacity:1" fill="#fafafa" d="M 127.5,33.5 C 133.833,33.5 140.167,33.5 146.5,33.5C 147.26,39.4888 147.927,45.4888 148.5,51.5C 136.528,51.1893 129.528,45.1893 127.5,33.5 Z"/></g>
<g><path style="opacity:1" fill="#393938" d="M 127.5,192.5 C 126.167,192.5 125.5,193.167 125.5,194.5C 123.535,151.586 117.035,109.252 106,67.5C 95.0754,108.26 88.5754,149.594 86.5,191.5C 85.8333,191.5 85.1667,191.5 84.5,191.5C 86.7417,149.563 92.9083,108.23 103,67.5C 103.265,65.3485 104.265,63.6819 106,62.5C 106.945,62.9054 107.612,63.572 108,64.5C 118.738,106.499 125.238,149.166 127.5,192.5 Z"/></g>
<g><path style="opacity:1" fill="#b5b5b4" d="M 63.5,178.5 C 64.492,185.982 64.8254,193.648 64.5,201.5C 70.8333,201.5 77.1667,201.5 83.5,201.5C 83.2627,200.209 83.596,199.209 84.5,198.5C 84.5,199.833 84.5,201.167 84.5,202.5C 77.5,202.5 70.5,202.5 63.5,202.5C 63.5,194.5 63.5,186.5 63.5,178.5 Z"/></g>
<g><path style="opacity:1" fill="#b2b2b1" d="M 148.5,181.5 C 148.5,188.5 148.5,195.5 148.5,202.5C 141.5,202.5 134.5,202.5 127.5,202.5C 127.5,200.5 127.5,198.5 127.5,196.5C 128.451,197.919 128.784,199.585 128.5,201.5C 134.833,201.5 141.167,201.5 147.5,201.5C 147.176,194.646 147.509,187.979 148.5,181.5 Z"/></g>
<g><path style="opacity:1" fill="#f2f2f2" d="M 127.5,204.5 C 134.5,204.5 141.5,204.5 148.5,204.5C 148.5,205.833 148.5,207.167 148.5,208.5C 141.5,208.5 134.5,208.5 127.5,208.5C 127.5,207.167 127.5,205.833 127.5,204.5 Z"/></g>
<g><path style="opacity:1" fill="#f2f2f2" d="M 63.5,204.5 C 70.1667,204.5 76.8333,204.5 83.5,204.5C 83.5,205.833 83.5,207.167 83.5,208.5C 76.8333,208.5 70.1667,208.5 63.5,208.5C 63.5,207.167 63.5,205.833 63.5,204.5 Z"/></g>
</svg>
