<?xml version="1.0" encoding="UTF-8"?>
<!DOCTYPE svg PUBLIC "-//W3C//DTD SVG 1.1//EN" "http://www.w3.org/Graphics/SVG/1.1/DTD/svg11.dtd">
<svg xmlns="http://www.w3.org/2000/svg" version="1.1" width="255px" height="197px" style="shape-rendering:geometricPrecision; text-rendering:geometricPrecision; image-rendering:optimizeQuality; fill-rule:evenodd; clip-rule:evenodd" xmlns:xlink="http://www.w3.org/1999/xlink">
<g><path style="opacity:1" fill="#fdfdfd" d="M -0.5,-0.5 C 84.5,-0.5 169.5,-0.5 254.5,-0.5C 254.5,65.1667 254.5,130.833 254.5,196.5C 169.5,196.5 84.5,196.5 -0.5,196.5C -0.5,130.833 -0.5,65.1667 -0.5,-0.5 Z"/></g>
<g><path style="opacity:1" fill="#141414" d="M 183.5,37.5 C 191.473,37.0408 195.307,40.7075 195,48.5C 193.096,54.0274 189.262,56.1941 183.5,55C 175.555,49.1697 175.555,43.3363 183.5,37.5 Z"/></g>
<g><path style="opacity:1" fill="#f3f3f3" d="M 183.5,41.5 C 188.083,40.343 190.75,42.0096 191.5,46.5C 189.624,51.7065 186.457,52.7065 182,49.5C 181.109,46.5024 181.609,43.8357 183.5,41.5 Z"/></g>
<g><path style="opacity:1" fill="#0f0f0f" d="M 205.5,51.5 C 212.486,51.331 214.153,54.1643 210.5,60C 203.416,60.475 201.749,57.6417 205.5,51.5 Z"/></g>
<g><path style="opacity:1" fill="#efefef" d="M 206.5,53.5 C 212.175,53.8597 212.842,55.8597 208.5,59.5C 205.61,58.1627 204.943,56.1627 206.5,53.5 Z"/></g>
<g><path style="opacity:1" fill="#0e0e0e" d="M 207.5,95.5 C 206.887,101.271 207.554,106.604 209.5,111.5C 218.34,114.86 219.673,120.193 213.5,127.5C 215.841,136.636 212.841,143.469 204.5,148C 194.42,153.12 183.754,154.787 172.5,153C 163.785,150.8 159.451,145.3 159.5,136.5C 154.026,135.941 148.526,135.607 143,135.5C 131.178,136.722 119.344,137.555 107.5,138C 99.3785,135.545 93.3785,130.545 89.5,123C 82.4904,124.406 75.8237,123.406 69.5,120C 64.3949,114.554 64.3949,109.22 69.5,104C 61.6749,100.181 58.8416,94.0139 61,85.5C 62.5857,82.0809 64.7524,79.0809 67.5,76.5C 64.725,63.4187 70.0584,55.9187 83.5,54C 86.2506,45.7891 91.9173,42.4557 100.5,44C 103.428,45.3801 106.262,46.8801 109,48.5C 115.795,47.3884 122.629,47.2217 129.5,48C 138.554,51.7176 143.887,58.3843 145.5,68C 149.833,68.6667 154.167,68.6667 158.5,68C 186.82,56.4829 203.153,65.6496 207.5,95.5 Z"/></g>
<g><path style="opacity:1" fill="#f8f8f8" d="M 90.5,46.5 C 97.956,44.7861 103.623,47.1194 107.5,53.5C 116.512,49.0366 125.178,49.5366 133.5,55C 137.719,58.602 139.219,63.102 138,68.5C 130.084,81.6983 118.584,86.5316 103.5,83C 105.017,84.6851 106.684,86.1851 108.5,87.5C 103.064,96.7949 102.231,106.462 106,116.5C 109.289,121.894 114.122,124.227 120.5,123.5C 136.781,120.228 153.115,118.061 169.5,117C 153.617,115.587 137.951,116.754 122.5,120.5C 111.896,120.139 106.896,114.639 107.5,104C 107.323,98.9897 108.156,94.1564 110,89.5C 118.536,89.4295 126.703,87.5962 134.5,84C 138.623,81.0657 141.29,77.2323 142.5,72.5C 148.509,72.6662 154.509,72.4995 160.5,72C 169.035,69.6939 177.701,69.0273 186.5,70C 194.216,73.2295 198.716,79.0628 200,87.5C 201.879,95.0511 202.713,102.718 202.5,110.5C 196.546,110.936 190.879,112.436 185.5,115C 183.586,116.413 182.253,118.247 181.5,120.5C 173.063,122.3 165.896,126.3 160,132.5C 155.037,131.871 150.037,131.538 145,131.5C 132.51,132.541 120.01,133.041 107.5,133C 95.355,128.599 92.5216,121.099 99,110.5C 99.7026,107.287 99.5359,104.121 98.5,101C 104.61,92.8149 103.61,85.6482 95.5,79.5C 95.1667,79.6667 94.8333,79.8333 94.5,80C 98.9323,89.0849 96.5989,95.7515 87.5,100C 95.8691,107.18 95.2024,113.513 85.5,119C 81.1667,119.667 76.8333,119.667 72.5,119C 68.7885,116.487 67.6218,112.987 69,108.5C 70.1411,106.391 71.6411,104.558 73.5,103C 65.3162,100.463 61.8162,94.9632 63,86.5C 65.843,83.3246 69.0097,80.4913 72.5,78C 66.4751,73.0137 65.9751,67.5137 71,61.5C 75.2208,57.077 80.3874,55.4104 86.5,56.5C 86.3379,54.4727 86.5045,52.4727 87,50.5C 88.3756,49.2949 89.5423,47.9616 90.5,46.5 Z"/></g>
<g><path style="opacity:1" fill="#414141" d="M 116.5,59.5 C 117.833,59.5 119.167,59.5 120.5,59.5C 120.671,62.7973 120.005,63.1306 118.5,60.5C 116.995,63.1306 116.329,62.7973 116.5,59.5 Z"/></g>
<g><path style="opacity:1" fill="#2d2d2d" d="M 123.5,57.5 C 128.123,56.4082 129.956,58.0748 129,62.5C 124.325,64.334 122.492,62.6673 123.5,57.5 Z"/></g>
<g><path style="opacity:1" fill="#f9f9f9" d="M 124.5,58.5 C 125.5,58.5 126.5,58.5 127.5,58.5C 127.5,59.5 127.5,60.5 127.5,61.5C 126.5,61.5 125.5,61.5 124.5,61.5C 124.5,60.5 124.5,59.5 124.5,58.5 Z"/></g>
<g><path style="opacity:1" fill="#434343" d="M 208.5,67.5 C 209.37,65.4012 210.703,65.0679 212.5,66.5C 214.23,70.6062 212.897,72.1062 208.5,71C 207.209,69.7083 207.209,68.5417 208.5,67.5 Z"/></g>
<g><path style="opacity:1" fill="#525252" d="M 123.5,65.5 C 124.404,66.209 124.737,67.209 124.5,68.5C 123.167,68.5 121.833,68.5 120.5,68.5C 120.5,67.1667 120.5,65.8333 120.5,64.5C 121.791,64.2627 122.791,64.596 123.5,65.5 Z"/></g>
<g><path style="opacity:1" fill="#f9f9f9" d="M 123.5,65.5 C 123.361,67.337 122.694,67.6704 121.5,66.5C 121.957,65.7025 122.624,65.3691 123.5,65.5 Z"/></g>
<g><path style="opacity:1" fill="#ebebeb" d="M 208.5,67.5 C 209.978,67.238 211.311,67.5713 212.5,68.5C 210.537,71.1939 209.203,70.8606 208.5,67.5 Z"/></g>
<g><path style="opacity:1" fill="#151515" d="M 159.5,75.5 C 165.176,75.3339 170.843,75.5006 176.5,76C 183.989,79.4831 187.489,85.3165 187,93.5C 184.685,86.5129 180.185,81.3462 173.5,78C 166.07,77.3892 158.737,77.7226 151.5,79C 154.309,77.9066 156.976,76.7399 159.5,75.5 Z"/></g>
<g><path style="opacity:1" fill="#373737" d="M 86.5,80.5 C 90.2635,81.385 91.2635,83.5516 89.5,87C 86.4333,88.1642 84.7666,87.1642 84.5,84C 84.8618,82.5657 85.5285,81.3991 86.5,80.5 Z"/></g>
<g><path style="opacity:1" fill="#ebebeb" d="M 85.5,82.5 C 87.3464,82.2222 88.6798,82.8888 89.5,84.5C 88.3112,85.4287 86.9778,85.762 85.5,85.5C 85.5,84.5 85.5,83.5 85.5,82.5 Z"/></g>
<g><path style="opacity:1" fill="#181818" d="M 167.5,89.5 C 170.602,89.154 173.435,89.8207 176,91.5C 177.324,97.009 175.157,99.6756 169.5,99.5C 169.808,101.924 169.474,104.257 168.5,106.5C 166.339,100.913 166.006,95.2463 167.5,89.5 Z"/></g>
<g><path style="opacity:1" fill="#121212" d="M 158.5,91.5 C 159.75,91.5774 160.583,92.244 161,93.5C 161.964,97.3935 163.131,101.227 164.5,105C 164.167,105.5 163.833,106 163.5,106.5C 162.155,105.653 161.155,104.487 160.5,103C 158.833,102.333 157.167,102.333 155.5,103C 154.95,104.845 153.95,106.345 152.5,107.5C 151.386,106.277 151.219,104.944 152,103.5C 153.925,99.3133 156.092,95.3133 158.5,91.5 Z"/></g>
<g><path style="opacity:1" fill="#141414" d="M 139.5,92.5 C 150.939,91.991 153.606,96.8243 147.5,107C 138.216,110.285 134.383,107.118 136,97.5C 136.997,95.6769 138.164,94.0103 139.5,92.5 Z"/></g>
<g><path style="opacity:1" fill="#d9d9d9" d="M 169.5,91.5 C 176.167,93.5 176.167,95.5 169.5,97.5C 169.5,95.5 169.5,93.5 169.5,91.5 Z"/></g>
<g><path style="opacity:1" fill="#161616" d="M 125.5,93.5 C 127.827,93.2471 129.827,93.9137 131.5,95.5C 121.914,97.1543 121.581,98.6543 130.5,100C 134.483,103.408 134.15,106.408 129.5,109C 126.833,109.667 124.167,109.667 121.5,109C 119.441,107.815 119.274,106.648 121,105.5C 124.513,108.329 127.68,107.995 130.5,104.5C 127.418,103.116 124.251,101.783 121,100.5C 121.004,97.307 122.504,94.9737 125.5,93.5 Z"/></g>
<g><path style="opacity:1" fill="#e6e6e6" d="M 19.5,80.5 C 20.5585,81.6002 21.3918,82.9336 22,84.5C 22.9145,80.8149 23.5811,81.1482 24,85.5C 26.2659,81.666 26.9326,81.9993 26,86.5C 30.4445,83.9918 30.6112,84.4918 26.5,88C 28.3008,88.3173 28.6341,88.984 27.5,90C 28.8333,90.3333 30.1667,90.6667 31.5,91C 27.1935,91.8661 26.8601,92.8661 30.5,94C 29.1667,94.3333 27.8333,94.6667 26.5,95C 30.334,97.2659 30.0007,97.9326 25.5,97C 28.0082,101.444 27.5082,101.611 24,97.5C 24.9326,102.001 24.2659,102.334 22,98.5C 21.6667,99.5 21.3333,100.5 21,101.5C 19.4741,96.373 18.4741,96.373 18,101.5C 17.6667,100.167 17.3333,98.8333 17,97.5C 16.5814,98.6721 15.9147,99.6721 15,100.5C 14.7351,98.8374 15.2351,97.3374 16.5,96C 15.2575,95.6886 14.2575,96.1886 13.5,97.5C 13.0894,96.7376 12.9227,95.7376 13,94.5C 9.88969,95.6734 9.72303,95.1734 12.5,93C 11.8333,92.6667 11.1667,92.3333 10.5,92C 11.6226,90.9563 12.9559,90.2896 14.5,90C 10.5,89.3333 10.5,88.6667 14.5,88C 12.3855,87.5756 11.5521,86.4089 12,84.5C 13.3946,85.8146 14.3946,85.4812 15,83.5C 15.7175,84.4506 16.5509,84.6172 17.5,84C 16.3266,80.8897 16.8266,80.723 19,83.5C 19.4828,82.552 19.6495,81.552 19.5,80.5 Z"/></g>
<g><path style="opacity:1" fill="#f4f4f4" d="M 141.5,94.5 C 147.204,94.1464 149.037,96.813 147,102.5C 145.06,105.608 142.394,106.275 139,104.5C 137.861,100.579 138.695,97.2456 141.5,94.5 Z"/></g>
<g><path style="opacity:1" fill="#afafaf" d="M 157.5,96.5 C 159.176,97.1834 159.843,98.5168 159.5,100.5C 158.448,100.649 157.448,100.483 156.5,100C 157.337,98.9887 157.67,97.8221 157.5,96.5 Z"/></g>
<g><path style="opacity:1" fill="#808080" d="M 207.5,95.5 C 208.21,100.732 208.877,106.065 209.5,111.5C 207.554,106.604 206.887,101.271 207.5,95.5 Z"/></g>
<g><path style="opacity:1" fill="#f7f7f7" d="M 195.5,113.5 C 198.85,113.335 202.183,113.502 205.5,114C 210.54,116.196 211.707,119.696 209,124.5C 206.833,126 204.667,127.5 202.5,129C 205.245,133.32 204.912,137.486 201.5,141.5C 193.088,148.52 183.421,151.02 172.5,149C 164.913,146.997 162.08,142.164 164,134.5C 169.486,128.508 176.32,125.341 184.5,125C 182.923,121.518 183.923,118.852 187.5,117C 190.158,115.522 192.825,114.355 195.5,113.5 Z"/></g>
<g><path style="opacity:1" fill="#7c7c7c" d="M 202.5,119.5 C 203.849,118.203 205.182,118.37 206.5,120C 205.603,122.127 204.269,122.627 202.5,121.5C 203.167,121.167 203.833,120.833 204.5,120.5C 204.043,119.702 203.376,119.369 202.5,119.5 Z"/></g>
<g><path style="opacity:1" fill="#252525" d="M 183.5,132.5 C 186.797,132.329 187.131,132.995 184.5,134.5C 187.131,136.005 186.797,136.671 183.5,136.5C 183.5,135.167 183.5,133.833 183.5,132.5 Z"/></g>
<g><path style="opacity:1" fill="#0a0a0a" d="M 175.5,132.5 C 180.159,132.015 181.492,133.848 179.5,138C 174.728,138.81 173.395,136.977 175.5,132.5 Z"/></g>
<g><path style="opacity:1" fill="#eeeeee" d="M 176.5,133.5 C 179.861,134.203 180.194,135.537 177.5,137.5C 175.358,136.563 175.024,135.23 176.5,133.5 Z"/></g>
<g><path style="opacity:1" fill="#818181" d="M 181.5,138.5 C 186.049,138.932 186.549,140.599 183,143.5C 180.676,142.225 180.176,140.558 181.5,138.5 Z"/></g>
<g><path style="opacity:1" fill="#242424" d="M 110.5,146.5 C 109.508,146.328 108.842,146.662 108.5,147.5C 107.596,148.209 107.263,149.209 107.5,150.5C 106.402,149.399 106.235,148.066 107,146.5C 108.292,145.209 109.458,145.209 110.5,146.5 Z"/></g>
<g><path style="opacity:1" fill="#bebebe" d="M 108.5,147.5 C 110.048,147.821 110.715,148.821 110.5,150.5C 109.5,151.833 108.5,151.833 107.5,150.5C 107.263,149.209 107.596,148.209 108.5,147.5 Z"/></g>
<g><path style="opacity:1" fill="#777777" d="M 108.5,147.5 C 108.842,146.662 109.508,146.328 110.5,146.5C 113.167,147.833 113.167,149.167 110.5,150.5C 110.715,148.821 110.048,147.821 108.5,147.5 Z"/></g>
<g><path style="opacity:1" fill="#191919" d="M 91.5,149.5 C 98.251,149.38 100.251,152.214 97.5,158C 89.749,159.091 87.749,156.258 91.5,149.5 Z"/></g>
<g><path style="opacity:1" fill="#e3e3e3" d="M 92.5,151.5 C 97.1585,151.015 98.4919,152.848 96.5,157C 92.2662,157.267 90.9329,155.434 92.5,151.5 Z"/></g>
</svg>
