<?xml version="1.0" encoding="UTF-8"?>
<!DOCTYPE svg PUBLIC "-//W3C//DTD SVG 1.1//EN" "http://www.w3.org/Graphics/SVG/1.1/DTD/svg11.dtd">
<svg xmlns="http://www.w3.org/2000/svg" version="1.1" width="225px" height="225px" style="shape-rendering:geometricPrecision; text-rendering:geometricPrecision; image-rendering:optimizeQuality; fill-rule:evenodd; clip-rule:evenodd" xmlns:xlink="http://www.w3.org/1999/xlink">
<g><path style="opacity:1" fill="#fdfdfd" d="M -0.5,-0.5 C 28.5,-0.5 57.5,-0.5 86.5,-0.5C 86.2172,0.28913 85.7172,0.955796 85,1.5C 84.1676,12.1823 84.3343,22.8489 85.5,33.5C 86.1667,33.8333 86.8333,34.1667 87.5,34.5C 88.6609,38.7953 88.8275,43.1287 88,47.5C 80.2792,55.2208 72.6126,62.8874 65,70.5C 63.6033,75.7081 63.1033,81.0414 63.5,86.5C 62.5,86.5 61.5,86.5 60.5,86.5C 60.3335,98.5046 60.5001,110.505 61,122.5C 63,124.167 63,125.833 61,127.5C 60.3333,139.167 60.3333,150.833 61,162.5C 63,164.167 63,165.833 61,167.5C 60.3333,179.167 60.3333,190.833 61,202.5C 61.414,202.957 61.914,203.291 62.5,203.5C 61.3529,212.866 64.6862,219.866 72.5,224.5C 48.1667,224.5 23.8333,224.5 -0.5,224.5C -0.5,149.5 -0.5,74.5 -0.5,-0.5 Z"/></g>
<g><path style="opacity:1" fill="#060606" d="M 86.5,-0.5 C 103.5,-0.5 120.5,-0.5 137.5,-0.5C 138.787,5.09122 139.454,10.9246 139.5,17C 139.333,22.5 139.167,28 139,33.5C 138.586,33.9574 138.086,34.2907 137.5,34.5C 136.338,39.1313 136.172,43.798 137,48.5C 144.303,54.8016 151.303,61.4683 158,68.5C 159.439,70.2746 160.439,72.2746 161,74.5C 161.173,78.5408 161.673,82.5408 162.5,86.5C 163.086,86.7093 163.586,87.0426 164,87.5C 164.667,98.8333 164.667,110.167 164,121.5C 160.831,123.619 160.831,125.619 164,127.5C 164.667,138.833 164.667,150.167 164,161.5C 160.667,163.833 160.667,166.167 164,168.5C 164.667,179.833 164.667,191.167 164,202.5C 163.586,202.957 163.086,203.291 162.5,203.5C 163.252,213.002 159.586,220.002 151.5,224.5C 125.167,224.5 98.8333,224.5 72.5,224.5C 64.6862,219.866 61.3529,212.866 62.5,203.5C 61.914,203.291 61.414,202.957 61,202.5C 60.3333,190.833 60.3333,179.167 61,167.5C 63,165.833 63,164.167 61,162.5C 60.3333,150.833 60.3333,139.167 61,127.5C 63,125.833 63,124.167 61,122.5C 60.5001,110.505 60.3335,98.5046 60.5,86.5C 61.5,86.5 62.5,86.5 63.5,86.5C 63.1033,81.0414 63.6033,75.7081 65,70.5C 72.6126,62.8874 80.2792,55.2208 88,47.5C 88.8275,43.1287 88.6609,38.7953 87.5,34.5C 86.8333,34.1667 86.1667,33.8333 85.5,33.5C 84.3343,22.8489 84.1676,12.1823 85,1.5C 85.7172,0.955796 86.2172,0.28913 86.5,-0.5 Z"/></g>
<g><path style="opacity:1" fill="#fefefe" d="M 137.5,-0.5 C 166.5,-0.5 195.5,-0.5 224.5,-0.5C 224.5,74.5 224.5,149.5 224.5,224.5C 200.167,224.5 175.833,224.5 151.5,224.5C 159.586,220.002 163.252,213.002 162.5,203.5C 163.086,203.291 163.586,202.957 164,202.5C 164.667,191.167 164.667,179.833 164,168.5C 160.667,166.167 160.667,163.833 164,161.5C 164.667,150.167 164.667,138.833 164,127.5C 160.831,125.619 160.831,123.619 164,121.5C 164.667,110.167 164.667,98.8333 164,87.5C 163.586,87.0426 163.086,86.7093 162.5,86.5C 161.673,82.5408 161.173,78.5408 161,74.5C 160.439,72.2746 159.439,70.2746 158,68.5C 151.303,61.4683 144.303,54.8016 137,48.5C 136.172,43.798 136.338,39.1313 137.5,34.5C 138.086,34.2907 138.586,33.9574 139,33.5C 139.167,28 139.333,22.5 139.5,17C 139.454,10.9246 138.787,5.09122 137.5,-0.5 Z"/></g>
<g><path style="opacity:1" fill="#919191" d="M 133.5,6.5 C 119.5,6.5 105.5,6.5 91.5,6.5C 91.5,10.5 91.5,14.5 91.5,18.5C 90.5151,14.3656 90.1818,10.0323 90.5,5.5C 105.01,5.17075 119.343,5.50408 133.5,6.5 Z"/></g>
<g><path style="opacity:1" fill="#fcfcfc" d="M 133.5,6.5 C 133.5,13.8333 133.5,21.1667 133.5,28.5C 119.5,28.5 105.5,28.5 91.5,28.5C 91.5,27.5 91.5,26.5 91.5,25.5C 102.679,25.8279 113.679,25.4946 124.5,24.5C 127.066,22.7123 127.066,20.879 124.5,19C 113.505,18.5002 102.505,18.3335 91.5,18.5C 91.5,14.5 91.5,10.5 91.5,6.5C 105.5,6.5 119.5,6.5 133.5,6.5 Z"/></g>
<g><path style="opacity:1" fill="#a7a7a7" d="M 124.5,24.5 C 113.679,25.4946 102.679,25.8279 91.5,25.5C 91.5,26.5 91.5,27.5 91.5,28.5C 90.5655,27.4324 90.2322,26.099 90.5,24.5C 101.833,24.5 113.167,24.5 124.5,24.5 Z"/></g>
<g><path style="opacity:1" fill="#fafafa" d="M 157.5,92.5 C 157.5,100.5 157.5,108.5 157.5,116.5C 155.265,116.205 153.265,116.539 151.5,117.5C 149.727,118.314 149.227,119.648 150,121.5C 151.444,123.155 153.278,123.822 155.5,123.5C 155.5,124.5 155.5,125.5 155.5,126.5C 150.877,125.408 149.044,127.075 150,131.5C 152.381,132.435 154.881,132.768 157.5,132.5C 157.5,140.5 157.5,148.5 157.5,156.5C 155.265,156.205 153.265,156.539 151.5,157.5C 149.623,158.659 149.123,160.326 150,162.5C 151.699,163.406 153.533,163.739 155.5,163.5C 155.5,164.5 155.5,165.5 155.5,166.5C 151.491,166.014 149.658,167.68 150,171.5C 150.383,172.056 150.883,172.389 151.5,172.5C 153.265,173.461 155.265,173.795 157.5,173.5C 157.5,181.5 157.5,189.5 157.5,197.5C 154.606,197.042 152.106,197.709 150,199.5C 149.316,200.784 149.483,201.951 150.5,203C 152.134,203.494 153.801,203.66 155.5,203.5C 156.659,209.43 154.993,214.263 150.5,218C 125.167,218.667 99.8333,218.667 74.5,218C 72.3333,217.167 70.8333,215.667 70,213.5C 69.5017,210.183 69.335,206.85 69.5,203.5C 93.1667,203.5 116.833,203.5 140.5,203.5C 140.739,201.533 140.406,199.699 139.5,198C 115.169,197.5 90.8356,197.333 66.5,197.5C 66.5,189.5 66.5,181.5 66.5,173.5C 90.6725,173.831 114.672,173.498 138.5,172.5C 141.139,170.841 141.139,169.008 138.5,167C 115.502,166.5 92.5024,166.333 69.5,166.5C 69.5,165.5 69.5,164.5 69.5,163.5C 92.8357,163.667 116.169,163.5 139.5,163C 140.554,161.612 140.72,160.112 140,158.5C 115.575,157.506 91.0747,157.172 66.5,157.5C 66.5,149.167 66.5,140.833 66.5,132.5C 91.0747,132.828 115.575,132.494 140,131.5C 140.72,129.888 140.554,128.388 139.5,127C 116.169,126.5 92.8357,126.333 69.5,126.5C 69.5,125.5 69.5,124.5 69.5,123.5C 92.5024,123.667 115.502,123.5 138.5,123C 140.192,121.599 140.859,119.766 140.5,117.5C 115.833,117.5 91.1667,117.5 66.5,117.5C 66.5,109.167 66.5,100.833 66.5,92.5C 90.8356,92.6666 115.169,92.5 139.5,92C 140.406,90.3005 140.739,88.4672 140.5,86.5C 116.833,86.5 93.1667,86.5 69.5,86.5C 69.1211,81.7027 69.6211,77.036 71,72.5C 77.8794,65.3205 85.046,58.4871 92.5,52C 101.827,51.5002 111.161,51.3335 120.5,51.5C 120.739,49.5328 120.406,47.6995 119.5,46C 111.173,45.5003 102.84,45.3336 94.5,45.5C 94.5,41.8333 94.5,38.1667 94.5,34.5C 106.5,34.5 118.5,34.5 130.5,34.5C 130.334,40.1764 130.501,45.8431 131,51.5C 138.996,58.4964 146.663,65.8297 154,73.5C 155.29,77.7305 155.79,82.0638 155.5,86.5C 149.791,85.6779 148.457,87.5112 151.5,92C 153.473,92.4955 155.473,92.6621 157.5,92.5 Z"/></g>
<g><path style="opacity:1" fill="#a9a9a9" d="M 157.5,92.5 C 158.493,100.65 158.826,108.983 158.5,117.5C 156.167,117.5 153.833,117.5 151.5,117.5C 153.265,116.539 155.265,116.205 157.5,116.5C 157.5,108.5 157.5,100.5 157.5,92.5 Z"/></g>
<g><path style="opacity:1" fill="#b8b8b8" d="M 157.5,132.5 C 158.493,140.65 158.826,148.983 158.5,157.5C 156.167,157.5 153.833,157.5 151.5,157.5C 153.265,156.539 155.265,156.205 157.5,156.5C 157.5,148.5 157.5,140.5 157.5,132.5 Z"/></g>
<g><path style="opacity:1" fill="#646464" d="M 138.5,172.5 C 114.672,173.498 90.6725,173.831 66.5,173.5C 66.5,181.5 66.5,189.5 66.5,197.5C 65.5073,189.35 65.1739,181.017 65.5,172.5C 89.8333,172.5 114.167,172.5 138.5,172.5 Z"/></g>
<g><path style="opacity:1" fill="#adadad" d="M 151.5,172.5 C 153.833,172.5 156.167,172.5 158.5,172.5C 158.826,181.017 158.493,189.35 157.5,197.5C 157.5,189.5 157.5,181.5 157.5,173.5C 155.265,173.795 153.265,173.461 151.5,172.5 Z"/></g>
</svg>
