<?xml version="1.0" encoding="UTF-8"?>
<!DOCTYPE svg PUBLIC "-//W3C//DTD SVG 1.1//EN" "http://www.w3.org/Graphics/SVG/1.1/DTD/svg11.dtd">
<svg xmlns="http://www.w3.org/2000/svg" version="1.1" width="225px" height="225px" style="shape-rendering:geometricPrecision; text-rendering:geometricPrecision; image-rendering:optimizeQuality; fill-rule:evenodd; clip-rule:evenodd" xmlns:xlink="http://www.w3.org/1999/xlink">
<g><path style="opacity:1" fill="#fdfdfd" d="M -0.5,-0.5 C 32.5,-0.5 65.5,-0.5 98.5,-0.5C 92.1793,1.3301 85.846,3.49676 79.5,6C 74.9003,8.21499 70.7336,11.0483 67,14.5C 64.6974,22.3455 63.0307,30.3455 62,38.5C 56.7498,41.5412 51.5832,44.7079 46.5,48C 43.0982,51.9676 40.5982,56.4676 39,61.5C 34.9825,102.823 31.1492,144.156 27.5,185.5C 29.798,193.635 30.9647,201.969 31,210.5C 35.9708,211.831 40.9708,213.165 46,214.5C 46.772,214.355 47.4387,214.022 48,213.5C 49.1495,206.717 51.4828,200.384 55,194.5C 56.435,181.149 57.935,167.816 59.5,154.5C 60.4944,164.987 60.8278,175.654 60.5,186.5C 59.5915,192.579 61.0915,197.912 65,202.5C 65.1911,208.083 65.6911,213.583 66.5,219C 77.5041,221.723 88.5041,223.556 99.5,224.5C 66.1667,224.5 32.8333,224.5 -0.5,224.5C -0.5,149.5 -0.5,74.5 -0.5,-0.5 Z"/></g>
<g><path style="opacity:1" fill="#0c0c0c" d="M 98.5,-0.5 C 105.5,-0.5 112.5,-0.5 119.5,-0.5C 132.101,0.788764 143.767,4.95543 154.5,12C 156.049,13.214 157.215,14.714 158,16.5C 159.605,23.7648 160.772,31.0981 161.5,38.5C 166.998,41.4148 172.332,44.5815 177.5,48C 180.567,51.2975 182.733,55.1308 184,59.5C 188.711,101.437 192.878,143.437 196.5,185.5C 194.366,193.668 193.032,202.001 192.5,210.5C 187.461,211.676 182.461,213.01 177.5,214.5C 176.5,214.167 175.833,213.5 175.5,212.5C 174.774,209.148 173.941,205.815 173,202.5C 171.139,200.112 169.806,197.446 169,194.5C 167.565,181.149 166.065,167.816 164.5,154.5C 164.436,150.78 163.936,147.114 163,143.5C 162.172,158.672 162.339,173.672 163.5,188.5C 164.094,193.884 162.594,198.55 159,202.5C 158.809,208.083 158.309,213.583 157.5,219C 145.462,221.552 133.462,223.385 121.5,224.5C 114.167,224.5 106.833,224.5 99.5,224.5C 88.5041,223.556 77.5041,221.723 66.5,219C 65.6911,213.583 65.1911,208.083 65,202.5C 61.0915,197.912 59.5915,192.579 60.5,186.5C 61.6611,171.672 61.8277,156.672 61,141.5C 60.2646,145.813 59.7646,150.147 59.5,154.5C 57.935,167.816 56.435,181.149 55,194.5C 51.4828,200.384 49.1495,206.717 48,213.5C 47.4387,214.022 46.772,214.355 46,214.5C 40.9708,213.165 35.9708,211.831 31,210.5C 30.9647,201.969 29.798,193.635 27.5,185.5C 31.1492,144.156 34.9825,102.823 39,61.5C 40.5982,56.4676 43.0982,51.9676 46.5,48C 51.5832,44.7079 56.7498,41.5412 62,38.5C 63.0307,30.3455 64.6974,22.3455 67,14.5C 70.7336,11.0483 74.9003,8.21499 79.5,6C 85.846,3.49676 92.1793,1.3301 98.5,-0.5 Z"/></g>
<g><path style="opacity:1" fill="#fdfdfd" d="M 119.5,-0.5 C 154.5,-0.5 189.5,-0.5 224.5,-0.5C 224.5,74.5 224.5,149.5 224.5,224.5C 190.167,224.5 155.833,224.5 121.5,224.5C 133.462,223.385 145.462,221.552 157.5,219C 158.309,213.583 158.809,208.083 159,202.5C 162.594,198.55 164.094,193.884 163.5,188.5C 163.172,176.988 163.505,165.654 164.5,154.5C 166.065,167.816 167.565,181.149 169,194.5C 169.806,197.446 171.139,200.112 173,202.5C 173.941,205.815 174.774,209.148 175.5,212.5C 175.833,213.5 176.5,214.167 177.5,214.5C 182.461,213.01 187.461,211.676 192.5,210.5C 193.032,202.001 194.366,193.668 196.5,185.5C 192.878,143.437 188.711,101.437 184,59.5C 182.733,55.1308 180.567,51.2975 177.5,48C 172.332,44.5815 166.998,41.4148 161.5,38.5C 160.772,31.0981 159.605,23.7648 158,16.5C 157.215,14.714 156.049,13.214 154.5,12C 143.767,4.95543 132.101,0.788764 119.5,-0.5 Z"/></g>
<g><path style="opacity:1" fill="#f6f6f6" d="M 98.5,4.5 C 117.994,1.70969 135.994,5.54303 152.5,16C 155.007,19.2073 154.841,22.374 152,25.5C 130.495,13.4423 107.995,11.2757 84.5,19C 79.9715,20.5139 75.8048,22.6806 72,25.5C 69.1592,22.374 68.9925,19.2073 71.5,16C 79.8695,10.4764 88.8695,6.64304 98.5,4.5 Z"/></g>
<g><path style="opacity:1" fill="#fbfbfb" d="M 97.5,19.5 C 108.216,19.1557 118.882,19.6557 129.5,21C 136.628,22.234 142.961,25.0673 148.5,29.5C 145.647,33.1868 142.314,36.3535 138.5,39C 129.919,44.8756 121.085,50.3756 112,55.5C 102.915,50.3756 94.0814,44.8756 85.5,39C 81.6865,36.3535 78.3531,33.1868 75.5,29.5C 77.2827,27.7684 79.2827,26.2684 81.5,25C 86.8439,22.8409 92.1772,21.0076 97.5,19.5 Z"/></g>
<g><path style="opacity:1" fill="#e5e5e5" d="M 67.5,28.5 C 75.819,37.1727 85.1524,44.6727 95.5,51C 85.4777,48.9088 76.311,44.7421 68,38.5C 67.5017,35.1832 67.335,31.8499 67.5,28.5 Z"/></g>
<g><path style="opacity:1" fill="#e7e7e7" d="M 154.5,28.5 C 155.777,29.6936 156.444,31.3603 156.5,33.5C 156.712,36.0114 156.045,38.1781 154.5,40C 146.313,45.0543 137.646,48.721 128.5,51C 133.833,47.3333 139.167,43.6667 144.5,40C 148.439,36.5706 151.772,32.7372 154.5,28.5 Z"/></g>
<g><path style="opacity:1" fill="#fcfcfc" d="M 63.5,42.5 C 73.5093,48.0842 84.0093,52.7508 95,56.5C 95.3333,79.1667 95.6667,101.833 96,124.5C 97.3333,125.833 98.6667,125.833 100,124.5C 100.333,102.167 100.667,79.8333 101,57.5C 108.135,60.1394 115.302,60.1394 122.5,57.5C 123.333,79.8259 123.833,102.159 124,124.5C 125.333,125.833 126.667,125.833 128,124.5C 128.5,101.502 128.667,78.5024 128.5,55.5C 139.477,53.0097 149.643,48.6763 159,42.5C 170.816,45.9809 178.15,53.6476 181,65.5C 185.36,107.787 188.693,150.12 191,192.5C 190.333,193.833 189.667,195.167 189,196.5C 185.109,197.817 181.109,198.817 177,199.5C 174.907,197.652 173.574,195.319 173,192.5C 169.616,162.172 166.282,131.839 163,101.5C 161.667,100.167 160.333,100.167 159,101.5C 158.667,133.167 158.333,164.833 158,196.5C 154.818,199.596 150.984,201.429 146.5,202C 120.674,207.182 95.0074,206.516 69.5,200C 68.3333,198.833 67.1667,197.667 66,196.5C 65.6667,164.833 65.3333,133.167 65,101.5C 63.6667,100.167 62.3333,100.167 61,101.5C 57.7978,131.523 54.4644,161.523 51,191.5C 50.6966,193.888 49.8633,196.055 48.5,198C 43.826,198.814 39.326,198.314 35,196.5C 33.001,192.606 32.1677,188.44 32.5,184C 35.8796,144.158 39.3796,104.324 43,64.5C 44.5061,58.3247 47.6728,53.1581 52.5,49C 56.5599,47.3109 60.2266,45.1442 63.5,42.5 Z"/></g>
<g><path style="opacity:1" fill="#bebebe" d="M 60.5,186.5 C 60.8278,175.654 60.4944,164.987 59.5,154.5C 59.7646,150.147 60.2646,145.813 61,141.5C 61.8277,156.672 61.6611,171.672 60.5,186.5 Z"/></g>
<g><path style="opacity:1" fill="#c1c1c1" d="M 164.5,154.5 C 163.505,165.654 163.172,176.988 163.5,188.5C 162.339,173.672 162.172,158.672 163,143.5C 163.936,147.114 164.436,150.78 164.5,154.5 Z"/></g>
<g><path style="opacity:1" fill="#ededed" d="M 35.5,201.5 C 38.8333,202.167 42.1667,202.833 45.5,203.5C 45.5792,204.93 45.2458,206.264 44.5,207.5C 41.5274,208.509 38.5274,208.509 35.5,207.5C 35.5,205.5 35.5,203.5 35.5,201.5 Z"/></g>
<g><path style="opacity:1" fill="#ececec" d="M 185.5,201.5 C 186.5,201.5 187.5,201.5 188.5,201.5C 188.5,203.5 188.5,205.5 188.5,207.5C 185.167,207.833 181.833,208.167 178.5,208.5C 178.215,206.712 178.548,205.045 179.5,203.5C 181.657,202.95 183.657,202.283 185.5,201.5 Z"/></g>
<g><path style="opacity:1" fill="#f8f8f8" d="M 71.5,205.5 C 84.1471,208.518 96.9805,210.185 110,210.5C 124.312,210.003 138.479,208.336 152.5,205.5C 153.479,208.625 153.813,211.958 153.5,215.5C 125.802,220.818 98.1356,220.818 70.5,215.5C 70.1872,211.958 70.5206,208.625 71.5,205.5 Z"/></g>
<g><path style="opacity:1" fill="#6c6c6c" d="M 152.5,205.5 C 152.56,204.957 152.893,204.624 153.5,204.5C 154.808,208.315 154.808,211.981 153.5,215.5C 153.813,211.958 153.479,208.625 152.5,205.5 Z"/></g>
<g><path style="opacity:1" fill="#6e6e6e" d="M 71.5,205.5 C 70.5206,208.625 70.1872,211.958 70.5,215.5C 69.1923,211.981 69.1923,208.315 70.5,204.5C 71.1067,204.624 71.44,204.957 71.5,205.5 Z"/></g>
</svg>
