<?xml version="1.0" encoding="UTF-8"?>
<!DOCTYPE svg PUBLIC "-//W3C//DTD SVG 1.1//EN" "http://www.w3.org/Graphics/SVG/1.1/DTD/svg11.dtd">
<svg xmlns="http://www.w3.org/2000/svg" version="1.1" width="225px" height="225px" style="shape-rendering:geometricPrecision; text-rendering:geometricPrecision; image-rendering:optimizeQuality; fill-rule:evenodd; clip-rule:evenodd" xmlns:xlink="http://www.w3.org/1999/xlink">
<g><path style="opacity:1" fill="#fefefe" d="M -0.5,-0.5 C 24.5,-0.5 49.5,-0.5 74.5,-0.5C 72.525,0.646381 71.025,2.31305 70,4.5C 69.3333,15.8333 69.3333,27.1667 70,38.5C 71.6909,41.3589 74.1909,42.6923 77.5,42.5C 77.8537,46.6372 77.3537,50.6372 76,54.5C 74.5905,55.7875 73.0905,56.9542 71.5,58C 54.8783,58.2877 44.3783,66.4544 40,82.5C 39.3333,127.5 39.3333,172.5 40,217.5C 40.9668,220.621 42.8001,222.954 45.5,224.5C 30.1667,224.5 14.8333,224.5 -0.5,224.5C -0.5,149.5 -0.5,74.5 -0.5,-0.5 Z"/></g>
<g><path style="opacity:1" fill="#040404" d="M 74.5,-0.5 C 98.8333,-0.5 123.167,-0.5 147.5,-0.5C 150.562,-0.158603 152.728,1.50806 154,4.5C 154.667,15.8333 154.667,27.1667 154,38.5C 152.423,41.5388 149.923,42.8721 146.5,42.5C 146.146,46.6372 146.646,50.6372 148,54.5C 149.214,56.0488 150.714,57.2155 152.5,58C 169.122,58.2877 179.622,66.4544 184,82.5C 184.667,127.5 184.667,172.5 184,217.5C 182.955,221.04 180.788,223.374 177.5,224.5C 133.5,224.5 89.5,224.5 45.5,224.5C 42.8001,222.954 40.9668,220.621 40,217.5C 39.3333,172.5 39.3333,127.5 40,82.5C 44.3783,66.4544 54.8783,58.2877 71.5,58C 73.0905,56.9542 74.5905,55.7875 76,54.5C 77.3537,50.6372 77.8537,46.6372 77.5,42.5C 74.1909,42.6923 71.6909,41.3589 70,38.5C 69.3333,27.1667 69.3333,15.8333 70,4.5C 71.025,2.31305 72.525,0.646381 74.5,-0.5 Z"/></g>
<g><path style="opacity:1" fill="#fefefe" d="M 147.5,-0.5 C 173.167,-0.5 198.833,-0.5 224.5,-0.5C 224.5,74.5 224.5,149.5 224.5,224.5C 208.833,224.5 193.167,224.5 177.5,224.5C 180.788,223.374 182.955,221.04 184,217.5C 184.667,172.5 184.667,127.5 184,82.5C 179.622,66.4544 169.122,58.2877 152.5,58C 150.714,57.2155 149.214,56.0488 148,54.5C 146.646,50.6372 146.146,46.6372 146.5,42.5C 149.923,42.8721 152.423,41.5388 154,38.5C 154.667,27.1667 154.667,15.8333 154,4.5C 152.728,1.50806 150.562,-0.158603 147.5,-0.5 Z"/></g>
<g><path style="opacity:1" fill="#838383" d="M 86.5,16.5 C 86.5,19.5 86.5,22.5 86.5,25.5C 103.5,25.5 120.5,25.5 137.5,25.5C 137.5,22.5 137.5,19.5 137.5,16.5C 138.479,19.6248 138.813,22.9581 138.5,26.5C 120.833,26.5 103.167,26.5 85.5,26.5C 85.1872,22.9581 85.5206,19.6248 86.5,16.5 Z"/></g>
<g><path style="opacity:1" fill="#f9f9f9" d="M 86.5,16.5 C 103.5,16.5 120.5,16.5 137.5,16.5C 137.5,19.5 137.5,22.5 137.5,25.5C 120.5,25.5 103.5,25.5 86.5,25.5C 86.5,22.5 86.5,19.5 86.5,16.5 Z"/></g>
<g><path style="opacity:1" fill="#fdfdfd" d="M 166.5,85.5 C 166.5,88.8333 166.5,92.1667 166.5,95.5C 130.167,95.5 93.8333,95.5 57.5,95.5C 55.0601,88.3291 56.7268,82.1624 62.5,77C 83.9763,76.0259 94.643,64.8592 94.5,43.5C 106.167,43.5 117.833,43.5 129.5,43.5C 129.357,64.8592 140.024,76.0259 161.5,77C 164.596,79.0287 166.262,81.862 166.5,85.5 Z"/></g>
<g><path style="opacity:1" fill="#6a6a6a" d="M 166.5,85.5 C 167.482,88.9619 167.815,92.6286 167.5,96.5C 130.663,96.8318 93.9962,96.4985 57.5,95.5C 93.8333,95.5 130.167,95.5 166.5,95.5C 166.5,92.1667 166.5,88.8333 166.5,85.5 Z"/></g>
<g><path style="opacity:1" fill="#7f7f7f" d="M 166.5,207.5 C 166.5,176.167 166.5,144.833 166.5,113.5C 130.167,113.5 93.8333,113.5 57.5,113.5C 57.5,144.833 57.5,176.167 57.5,207.5C 56.5018,176.004 56.1685,144.338 56.5,112.5C 93.5,112.5 130.5,112.5 167.5,112.5C 167.832,144.338 167.498,176.004 166.5,207.5 Z"/></g>
<g><path style="opacity:1" fill="#fdfdfd" d="M 166.5,207.5 C 130.167,207.5 93.8333,207.5 57.5,207.5C 57.5,176.167 57.5,144.833 57.5,113.5C 93.8333,113.5 130.167,113.5 166.5,113.5C 166.5,144.833 166.5,176.167 166.5,207.5 Z"/></g>
<g><path style="opacity:1" fill="#020202" d="M 107.5,130.5 C 111.839,129.846 115.673,130.846 119,133.5C 120.41,139.379 120.91,145.379 120.5,151.5C 126.593,151.139 132.593,151.639 138.5,153C 143.984,158.751 143.317,163.751 136.5,168C 131.177,168.499 125.844,168.666 120.5,168.5C 120.666,173.844 120.499,179.177 120,184.5C 114.621,192.35 109.288,192.35 104,184.5C 103.501,179.177 103.334,173.844 103.5,168.5C 98.1563,168.666 92.8229,168.499 87.5,168C 79.5,162.667 79.5,157.333 87.5,152C 92.8229,151.501 98.1563,151.334 103.5,151.5C 103.334,146.156 103.501,140.823 104,135.5C 104.997,133.677 106.164,132.01 107.5,130.5 Z"/></g>
</svg>
