<?xml version="1.0" encoding="UTF-8"?>
<!DOCTYPE svg PUBLIC "-//W3C//DTD SVG 1.1//EN" "http://www.w3.org/Graphics/SVG/1.1/DTD/svg11.dtd">
<svg xmlns="http://www.w3.org/2000/svg" version="1.1" width="225px" height="225px" style="shape-rendering:geometricPrecision; text-rendering:geometricPrecision; image-rendering:optimizeQuality; fill-rule:evenodd; clip-rule:evenodd" xmlns:xlink="http://www.w3.org/1999/xlink">
<g><path style="opacity:1" fill="#fdfdfd" d="M -0.5,-0.5 C 74.5,-0.5 149.5,-0.5 224.5,-0.5C 224.5,27.1667 224.5,54.8333 224.5,82.5C 211.973,66.6451 199.306,50.8117 186.5,35C 176.362,27.0892 164.862,23.9225 152,25.5C 146.833,25.6667 141.667,25.8333 136.5,26C 133.495,28.4834 131.328,31.6501 130,35.5C 117.927,47.4455 105.927,47.4455 94,35.5C 92.6718,31.6501 90.5051,28.4834 87.5,26C 77.1667,25.3333 66.8333,25.3333 56.5,26C 47.7358,27.9638 40.2358,32.1305 34,38.5C 22.6363,53.3531 11.1363,68.0198 -0.5,82.5C -0.5,54.8333 -0.5,27.1667 -0.5,-0.5 Z"/></g>
<g><path style="opacity:1" fill="#050505" d="M 224.5,82.5 C 224.5,83.8333 224.5,85.1667 224.5,86.5C 223.781,88.0913 222.781,89.5913 221.5,91C 206.574,96.1422 191.574,100.976 176.5,105.5C 176.984,135.588 176.484,165.588 175,195.5C 174.167,196.333 173.333,197.167 172.5,198C 132.167,198.667 91.8333,198.667 51.5,198C 50.6667,197.167 49.8333,196.333 49,195.5C 47.5158,165.588 47.0158,135.588 47.5,105.5C 32.4258,100.976 17.4258,96.1422 2.5,91C 1.21886,89.5913 0.218865,88.0913 -0.5,86.5C -0.5,85.1667 -0.5,83.8333 -0.5,82.5C 11.1363,68.0198 22.6363,53.3531 34,38.5C 40.2358,32.1305 47.7358,27.9638 56.5,26C 66.8333,25.3333 77.1667,25.3333 87.5,26C 90.5051,28.4834 92.6718,31.6501 94,35.5C 105.927,47.4455 117.927,47.4455 130,35.5C 131.328,31.6501 133.495,28.4834 136.5,26C 141.667,25.8333 146.833,25.6667 152,25.5C 164.862,23.9225 176.362,27.0892 186.5,35C 199.306,50.8117 211.973,66.6451 224.5,82.5 Z"/></g>
<g><path style="opacity:1" fill="#fdfdfd" d="M 59.5,38.5 C 66.5079,38.3337 73.5079,38.5004 80.5,39C 93.5028,58.4378 110.503,62.7711 131.5,52C 136.547,48.6198 140.547,44.2865 143.5,39C 151.897,38.1301 160.23,38.4635 168.5,40C 172.873,41.7131 176.707,44.2131 180,47.5C 188.514,58.6775 197.014,69.8442 205.5,81C 196.468,84.9598 187.135,88.4598 177.5,91.5C 176.673,87.5408 176.173,83.5408 176,79.5C 173.442,75.7884 169.942,74.6217 165.5,76C 164.299,76.9025 163.465,78.0692 163,79.5C 162.5,114.832 162.333,150.165 162.5,185.5C 128.833,185.5 95.1667,185.5 61.5,185.5C 61.6667,150.165 61.5,114.832 61,79.5C 58.1103,75.1723 54.2769,74.339 49.5,77C 48.8742,77.7504 48.3742,78.5838 48,79.5C 47.5012,83.4862 47.3345,87.4862 47.5,91.5C 37.3522,89.0643 27.6855,85.5643 18.5,81C 27.7445,67.4244 38.0779,54.7577 49.5,43C 52.8153,41.1702 56.1486,39.6702 59.5,38.5 Z"/></g>
<g><path style="opacity:1" fill="#fefefe" d="M -0.5,86.5 C 0.218865,88.0913 1.21886,89.5913 2.5,91C 17.4258,96.1422 32.4258,100.976 47.5,105.5C 47.0158,135.588 47.5158,165.588 49,195.5C 49.8333,196.333 50.6667,197.167 51.5,198C 91.8333,198.667 132.167,198.667 172.5,198C 173.333,197.167 174.167,196.333 175,195.5C 176.484,165.588 176.984,135.588 176.5,105.5C 191.574,100.976 206.574,96.1422 221.5,91C 222.781,89.5913 223.781,88.0913 224.5,86.5C 224.5,132.5 224.5,178.5 224.5,224.5C 149.5,224.5 74.5,224.5 -0.5,224.5C -0.5,178.5 -0.5,132.5 -0.5,86.5 Z"/></g>
</svg>
