<?xml version="1.0" encoding="UTF-8"?>
<!DOCTYPE svg PUBLIC "-//W3C//DTD SVG 1.1//EN" "http://www.w3.org/Graphics/SVG/1.1/DTD/svg11.dtd">
<svg xmlns="http://www.w3.org/2000/svg" version="1.1" width="225px" height="225px" style="shape-rendering:geometricPrecision; text-rendering:geometricPrecision; image-rendering:optimizeQuality; fill-rule:evenodd; clip-rule:evenodd" xmlns:xlink="http://www.w3.org/1999/xlink">
<g><path style="opacity:1" fill="#f5f5f5" d="M -0.5,-0.5 C 74.5,-0.5 149.5,-0.5 224.5,-0.5C 224.5,74.5 224.5,149.5 224.5,224.5C 149.5,224.5 74.5,224.5 -0.5,224.5C -0.5,149.5 -0.5,74.5 -0.5,-0.5 Z"/></g>
<g><path style="opacity:1" fill="#030303" d="M 157.5,26.5 C 166.577,25.2354 174.91,27.0687 182.5,32C 189.127,37.6201 194.627,44.1201 199,51.5C 202.668,61.8365 201.334,71.5031 195,80.5C 154.833,120.667 114.667,160.833 74.5,201C 63.0118,209.122 51.3451,209.455 39.5,202C 34.6667,197.167 29.8333,192.333 25,187.5C 17.4383,175.64 17.7716,163.973 26,152.5C 65.8333,112.667 105.667,72.8333 145.5,33C 149.157,30.0078 153.157,27.8412 157.5,26.5 Z"/></g>
<g><path style="opacity:1" fill="#e4e4e4" d="M 151.5,41.5 C 158.997,40.8038 160.997,43.6372 157.5,50C 149.749,51.0913 147.749,48.258 151.5,41.5 Z"/></g>
<g><path style="opacity:1" fill="#e5e5e5" d="M 138.5,54.5 C 145.997,53.8038 147.997,56.6372 144.5,63C 136.749,64.0913 134.749,61.258 138.5,54.5 Z"/></g>
<g><path style="opacity:1" fill="#eaeaea" d="M 164.5,54.5 C 172.219,53.8701 174.219,56.8701 170.5,63.5C 168.139,64.7758 165.972,64.4425 164,62.5C 163.398,59.7795 163.565,57.1128 164.5,54.5 Z"/></g>
<g><path style="opacity:1" fill="#f3f3f3" d="M 125.5,67.5 C 131.989,67.1563 133.989,69.9896 131.5,76C 127.003,78.4185 124.337,77.0851 123.5,72C 123.519,70.167 124.185,68.667 125.5,67.5 Z"/></g>
<g><path style="opacity:1" fill="#e9e9e9" d="M 179.5,67.5 C 186.821,68.3193 188.154,71.486 183.5,77C 177.447,77.9443 175.28,75.4443 177,69.5C 177.995,68.9341 178.828,68.2674 179.5,67.5 Z"/></g>
<g><path style="opacity:1" fill="#e7e7e7" d="M 152.5,67.5 C 157.987,66.9615 160.153,69.2949 159,74.5C 156.048,78.4815 153.048,78.4815 150,74.5C 149.333,73.1667 149.333,71.8333 150,70.5C 151.045,69.6266 151.878,68.6266 152.5,67.5 Z"/></g>
<g><path style="opacity:1" fill="#f5f5f5" d="M 112.5,81.5 C 113.873,81.3433 115.207,81.51 116.5,82C 126.913,91.7424 136.579,102.076 145.5,113C 145.138,114.225 144.638,115.391 144,116.5C 132.5,128 121,139.5 109.5,151C 107.029,151.706 104.695,151.373 102.5,150C 94,141.5 85.5,133 77,124.5C 75,121.833 75,119.167 77,116.5C 88.7284,104.604 100.562,92.9374 112.5,81.5 Z"/></g>
<g><path style="opacity:1" fill="#ededed" d="M 139.5,80.5 C 144.325,80.4881 146.491,82.8214 146,87.5C 143,91.5 140,91.5 137,87.5C 136.333,86.1667 136.333,84.8333 137,83.5C 138.045,82.6266 138.878,81.6266 139.5,80.5 Z"/></g>
<g><path style="opacity:1" fill="#ececec" d="M 166.5,80.5 C 172.758,81.4774 174.091,84.6441 170.5,90C 164.498,90.9931 162.332,88.4931 164,82.5C 164.995,81.9341 165.828,81.2674 166.5,80.5 Z"/></g>
<g><path style="opacity:1" fill="#ededed" d="M 151.5,94.5 C 158.997,93.8038 160.997,96.6372 157.5,103C 149.749,104.091 147.749,101.258 151.5,94.5 Z"/></g>
<g><path style="opacity:1" fill="#e2e2e2" d="M 63.5,129.5 C 68.8351,129.005 71.3351,131.338 71,136.5C 66.4468,140.903 63.2802,140.07 61.5,134C 61.5186,132.167 62.1852,130.667 63.5,129.5 Z"/></g>
<g><path style="opacity:1" fill="#ededed" d="M 50.5,142.5 C 57.6317,142.789 59.2983,145.956 55.5,152C 49.4983,152.993 47.3317,150.493 49,144.5C 49.7172,143.956 50.2172,143.289 50.5,142.5 Z"/></g>
<g><path style="opacity:1" fill="#eaeaea" d="M 77.5,142.5 C 82.3247,142.488 84.4914,144.821 84,149.5C 81,153.5 78,153.5 75,149.5C 74.3333,148.167 74.3333,146.833 75,145.5C 76.045,144.627 76.8783,143.627 77.5,142.5 Z"/></g>
<g><path style="opacity:1" fill="#e9e9e9" d="M 64.5,155.5 C 71.8476,156.451 73.1809,159.618 68.5,165C 63,166.167 60.8333,164 62,158.5C 63.045,157.627 63.8783,156.627 64.5,155.5 Z"/></g>
<g><path style="opacity:1" fill="#e3e3e3" d="M 37.5,155.5 C 44.1886,156.076 45.8553,159.243 42.5,165C 34.3492,165.198 32.6825,162.031 37.5,155.5 Z"/></g>
<g><path style="opacity:1" fill="#ebebeb" d="M 89.5,156.5 C 96.9974,155.804 98.9974,158.637 95.5,165C 88.1333,165.747 86.1333,162.913 89.5,156.5 Z"/></g>
<g><path style="opacity:1" fill="#e8e8e8" d="M 76.5,169.5 C 84.8773,169.274 86.544,172.441 81.5,179C 74.4741,178.759 72.8074,175.593 76.5,169.5 Z"/></g>
<g><path style="opacity:1" fill="#e8e8e8" d="M 50.5,169.5 C 56.9889,169.156 58.9889,171.99 56.5,178C 52.0035,180.418 49.3368,179.085 48.5,174C 48.5186,172.167 49.1852,170.667 50.5,169.5 Z"/></g>
<g><path style="opacity:1" fill="#e9e9e9" d="M 64.5,182.5 C 71.8211,183.319 73.1545,186.486 68.5,192C 62.8389,192.667 60.6723,190.167 62,184.5C 62.9947,183.934 63.828,183.267 64.5,182.5 Z"/></g>
</svg>
