<?xml version="1.0" encoding="UTF-8"?>
<!DOCTYPE svg PUBLIC "-//W3C//DTD SVG 1.1//EN" "http://www.w3.org/Graphics/SVG/1.1/DTD/svg11.dtd">
<svg xmlns="http://www.w3.org/2000/svg" version="1.1" width="1200px" height="1200px" style="shape-rendering:geometricPrecision; text-rendering:geometricPrecision; image-rendering:optimizeQuality; fill-rule:evenodd; clip-rule:evenodd" xmlns:xlink="http://www.w3.org/1999/xlink">
<g><path style="opacity:0.329" fill="#cacaca" d="M 18.5,-0.5 C 405.833,-0.5 793.167,-0.5 1180.5,-0.5C 1189.83,2.83333 1196.17,9.16667 1199.5,18.5C 1199.5,405.833 1199.5,793.167 1199.5,1180.5C 1196.17,1189.83 1189.83,1196.17 1180.5,1199.5C 793.167,1199.5 405.833,1199.5 18.5,1199.5C 9.16667,1196.17 2.83333,1189.83 -0.5,1180.5C -0.5,793.167 -0.5,405.833 -0.5,18.5C 2.83333,9.16667 9.16667,2.83333 18.5,-0.5 Z"/></g>
<g><path style="opacity:1" fill="#c17a54" d="M 750.5,875.5 C 748.031,876.569 745.698,877.902 743.5,879.5C 741.999,880.752 740.332,881.752 738.5,882.5C 736.611,883.604 734.945,884.937 733.5,886.5C 732.391,886.557 731.391,886.89 730.5,887.5C 728.77,888.026 727.436,889.026 726.5,890.5C 725.391,890.557 724.391,890.89 723.5,891.5C 722.833,891.833 722.167,892.167 721.5,892.5C 719.632,893.263 717.965,894.263 716.5,895.5C 714.847,895.66 713.514,896.326 712.5,897.5C 711.508,897.328 710.842,897.662 710.5,898.5C 708.847,898.66 707.514,899.326 706.5,900.5C 705.209,900.263 704.209,900.596 703.5,901.5C 701.847,901.66 700.514,902.326 699.5,903.5C 696.557,903.98 693.89,904.98 691.5,906.5C 689.597,906.796 687.93,907.463 686.5,908.5C 684.214,908.595 682.214,909.262 680.5,910.5C 679.209,910.263 678.209,910.596 677.5,911.5C 674.848,911.41 672.515,912.076 670.5,913.5C 668.102,913.259 666.102,913.926 664.5,915.5C 661.572,915.565 658.905,916.232 656.5,917.5C 650.963,918.087 645.63,919.087 640.5,920.5C 635.306,920.741 630.306,921.407 625.5,922.5C 603.502,923.82 581.502,923.82 559.5,922.5C 555.382,921.291 551.049,920.624 546.5,920.5C 542.079,918.898 537.412,917.898 532.5,917.5C 530.401,916.388 528.067,915.721 525.5,915.5C 523.401,914.388 521.067,913.721 518.5,913.5C 517.791,912.596 516.791,912.263 515.5,912.5C 513.698,911.542 511.698,910.875 509.5,910.5C 508.07,909.463 506.403,908.796 504.5,908.5C 502.579,907.637 500.579,906.971 498.5,906.5C 497.07,905.463 495.403,904.796 493.5,904.5C 491.491,902.935 489.157,901.935 486.5,901.5C 486.158,900.662 485.492,900.328 484.5,900.5C 484.158,899.662 483.492,899.328 482.5,899.5C 481.486,898.326 480.153,897.66 478.5,897.5C 478.158,896.662 477.492,896.328 476.5,896.5C 474.819,894.992 472.819,893.992 470.5,893.5C 470.158,892.662 469.492,892.328 468.5,892.5C 468.158,891.662 467.492,891.328 466.5,891.5C 465.341,889.75 463.674,888.75 461.5,888.5C 460.564,887.026 459.23,886.026 457.5,885.5C 456.395,884.4 455.062,883.733 453.5,883.5C 452.564,882.026 451.23,881.026 449.5,880.5C 447.381,878.6 445.047,876.934 442.5,875.5C 389.91,835.72 354.077,784.053 335,720.5C 313.203,642.146 314.536,564.146 339,486.5C 360.973,415.101 394.64,350.101 440,291.5C 461.618,263.547 486.784,239.381 515.5,219C 534.926,205.624 556.26,196.624 579.5,192C 602.556,189.398 624.556,193.065 645.5,203C 669.415,214.449 691.082,229.116 710.5,247C 774.845,310.084 822.345,384.251 853,469.5C 872.709,521.751 881.375,575.751 879,631.5C 874.673,717.234 842.173,790.067 781.5,850C 771.464,858.997 761.131,867.497 750.5,875.5 Z"/></g>
<g><path style="opacity:1" fill="#c57e56" d="M 718.5,260.5 C 699.208,248.201 678.208,238.368 655.5,231C 612.641,218.835 570.308,220.501 528.5,236C 516.49,241.339 504.49,246.672 492.5,252C 481.6,259.273 470.933,266.773 460.5,274.5C 476.893,255.138 495.56,238.305 516.5,224C 562.539,204.664 609.539,201.83 657.5,215.5C 658.086,215.291 658.586,214.957 659,214.5C 680.412,226.992 700.246,242.325 718.5,260.5 Z"/></g>
<g><path style="opacity:1" fill="#ca855b" d="M 760.5,309.5 C 765.469,315.312 770.303,321.312 775,327.5C 789.713,348.048 802.546,369.714 813.5,392.5C 859.269,503.699 858.769,614.699 812,725.5C 788.747,778.078 753.247,820.245 705.5,852C 647.006,887.094 586.006,892.094 522.5,867C 482.5,848.672 449.333,821.838 423,786.5C 378.42,723.093 354.753,652.427 352,574.5C 348.653,492.884 367.987,417.217 410,347.5C 433.972,310.527 464.805,280.694 502.5,258C 577.349,219.846 649.349,224.513 718.5,272C 733.562,283.224 747.562,295.724 760.5,309.5 Z"/></g>
<g><path style="opacity:1" fill="#cc885d" d="M 586.5,252.5 C 642.746,250.854 691.412,269.02 732.5,307C 779.452,353.05 809.619,408.55 823,473.5C 842.225,565.37 830.559,653.037 788,736.5C 765.083,779.085 732.916,812.918 691.5,838C 621.404,874.196 553.737,870.196 488.5,826C 444.078,791.696 411.911,748.196 392,695.5C 365.464,623.064 360.131,549.064 376,473.5C 387.947,416.943 412.613,366.943 450,323.5C 479.682,290.237 516.182,268.07 559.5,257C 568.59,255.157 577.59,253.657 586.5,252.5 Z"/></g>
<g><path style="opacity:1" fill="#cd8a5e" d="M 591.5,259.5 C 630.719,258.91 666.719,269.243 699.5,290.5C 700.696,290.154 700.696,289.654 699.5,289C 753.317,327.195 790.484,380.695 811,449.5C 831.487,518.701 831.487,590.701 811,665.5C 805.302,683.62 799.135,699.953 792.5,714.5C 792.833,715.167 793.167,715.833 793.5,716.5C 791.667,720.167 789.833,723.833 788,727.5C 787.667,726.833 787.333,726.167 787,725.5C 771.36,755.338 752.527,780.505 730.5,801C 709.735,820.428 685.069,835.428 656.5,846C 596.658,864.229 541.324,855.229 490.5,819C 453.84,790.669 425.673,755.502 406,713.5C 375.311,644.155 365.811,571.988 377.5,497C 386.132,437.786 409.632,383.952 448,335.5C 479.351,298.176 518.851,274.009 566.5,263C 574.948,261.578 583.282,260.412 591.5,259.5 Z"/></g>
<g><path style="opacity:1" fill="#d08d60" d="M 589.5,269.5 C 639.947,268.588 683.947,284.755 721.5,318C 767.195,361.536 796.695,414.369 810,476.5C 828.443,562.521 818.11,644.854 779,723.5C 757.363,764.129 727.196,796.629 688.5,821C 613.938,859.511 544.271,852.177 479.5,799C 432.682,755.228 402.515,701.728 389,638.5C 371.063,554.926 380.397,474.592 417,397.5C 438.053,355.577 468.219,321.743 507.5,296C 532.966,281.01 560.299,272.177 589.5,269.5 Z"/></g>
<g><path style="opacity:1" fill="#d39062" d="M 587.5,289.5 C 598.866,289.279 610.2,289.779 621.5,291C 636.13,293.911 650.464,297.244 664.5,301C 698.59,316.581 727.257,340.915 750.5,374C 750.043,374.414 749.709,374.914 749.5,375.5C 751,377.833 752.5,380.167 754,382.5C 754.667,383.833 755.333,383.833 756,382.5C 758.303,384.528 759.137,386.861 758.5,389.5C 759.315,391.276 760.482,391.943 762,391.5C 762,392.833 762,394.167 762,395.5C 763,395.833 764,396.167 765,396.5C 766.807,398.706 767.307,401.039 766.5,403.5C 769,408.5 771.5,413.5 774,418.5C 774.333,417.833 774.667,417.167 775,416.5C 776.807,418.706 777.307,421.039 776.5,423.5C 777.098,424.795 777.598,426.128 778,427.5C 778.984,425.205 779.817,425.539 780.5,428.5C 779.572,429.768 779.405,431.101 780,432.5C 780.984,430.205 781.817,430.539 782.5,433.5C 781.572,434.768 781.405,436.101 782,437.5C 782.984,435.205 783.817,435.539 784.5,438.5C 784.069,439.293 783.735,440.127 783.5,441C 793.589,470.094 799.755,497.261 802,522.5C 802.333,520.5 802.667,518.5 803,516.5C 803.167,517.667 803.333,518.833 803.5,520C 802.547,524.813 802.38,529.646 803,534.5C 803.333,531.833 803.667,529.167 804,526.5C 804.167,528 804.333,529.5 804.5,531C 803.167,548.667 803.167,566.333 804.5,584C 804.333,585.5 804.167,587 804,588.5C 803.667,585.833 803.333,583.167 803,580.5C 802.38,585.354 802.547,590.187 803.5,595C 803.333,596.167 803.167,597.333 803,598.5C 802.667,596.5 802.333,594.5 802,592.5C 801.419,596.19 801.585,599.856 802.5,603.5C 802.333,604.5 802.167,605.5 802,606.5C 801.667,604.833 801.333,603.167 801,601.5C 798.968,617.902 795.135,636.069 789.5,656C 789.496,662.383 787.996,668.55 785,674.5C 784.667,673.833 784.333,673.167 784,672.5C 782.694,675.612 781.528,678.779 780.5,682C 781.802,683.923 781.635,685.757 780,687.5C 779.667,686.833 779.333,686.167 779,685.5C 777.405,687.425 777.238,689.425 778.5,691.5C 777.667,693.167 776.833,694.833 776,696.5C 775.667,695.833 775.333,695.167 775,694.5C 773.287,697.082 772.787,699.748 773.5,702.5C 772.333,704.833 771.167,707.167 770,709.5C 769.333,710.833 768.667,710.833 768,709.5C 767.581,710.672 766.915,711.672 766,712.5C 765.333,715.167 764.667,717.833 764,720.5C 763.333,721.833 762.667,721.833 762,720.5C 761.308,721.025 760.808,721.692 760.5,722.5C 761.326,723.451 761.492,724.451 761,725.5C 760,725.833 759,726.167 758,726.5C 758,727.833 758,729.167 758,730.5C 741.32,756.88 719.487,779.713 692.5,799C 688.167,801.5 683.833,804 679.5,806.5C 678.833,806.167 678.167,805.833 677.5,805.5C 673.833,807.333 670.167,809.167 666.5,811C 667.167,811.333 667.833,811.667 668.5,812C 664.952,813.941 661.286,815.607 657.5,817C 643.41,820.096 629.077,822.762 614.5,825C 593.392,826.945 572.725,824.778 552.5,818.5C 551.311,818.756 550.144,819.089 549,819.5C 542.663,817.415 536.497,814.915 530.5,812C 531.167,811.667 531.833,811.333 532.5,811C 528.833,809.167 525.167,807.333 521.5,805.5C 520.833,805.833 520.167,806.167 519.5,806.5C 492.832,791.34 470.332,771.34 452,746.5C 450.354,744.945 450.021,743.279 451,741.5C 449.434,742.061 448.101,741.394 447,739.5C 445.248,736.328 443.248,733.328 441,730.5C 441,729.167 441,727.833 441,726.5C 440.333,725.167 439.667,725.167 439,726.5C 438.308,725.975 437.808,725.308 437.5,724.5C 438.326,723.549 438.492,722.549 438,721.5C 437,721.167 436,720.833 435,720.5C 433.193,718.294 432.693,715.961 433.5,713.5C 432.469,712.3 431.635,710.966 431,709.5C 430.333,710.833 429.667,710.833 429,709.5C 427.833,707.167 426.667,704.833 425.5,702.5C 426.213,699.748 425.713,697.082 424,694.5C 423.667,695.167 423.333,695.833 423,696.5C 422.167,694.833 421.333,693.167 420.5,691.5C 421.762,689.425 421.595,687.425 420,685.5C 419.016,687.795 418.183,687.461 417.5,684.5C 418.565,682.147 418.398,679.814 417,677.5C 416.138,675.913 415.471,674.246 415,672.5C 414.333,675.167 413.667,675.167 413,672.5C 411.5,668 410,663.5 408.5,659C 408.833,658 409.167,657 409.5,656C 403.865,636.069 400.032,617.902 398,601.5C 397.667,603.167 397.333,604.833 397,606.5C 396.833,605.5 396.667,604.5 396.5,603.5C 397.415,599.856 397.581,596.19 397,592.5C 396.667,594.5 396.333,596.5 396,598.5C 395.833,597.333 395.667,596.167 395.5,595C 396.453,590.187 396.62,585.354 396,580.5C 395.667,583.167 395.333,585.833 395,588.5C 394.833,587 394.667,585.5 394.5,584C 395.833,566.333 395.833,548.667 394.5,531C 394.667,529.5 394.833,528 395,526.5C 395.333,529.167 395.667,531.833 396,534.5C 396.62,529.646 396.453,524.813 395.5,520C 395.667,518.833 395.833,517.667 396,516.5C 396.333,518.5 396.667,520.5 397,522.5C 399.245,497.261 405.411,470.094 415.5,441C 414.198,439.077 414.365,437.243 416,435.5C 416.333,436.167 416.667,436.833 417,437.5C 417.595,436.101 417.428,434.768 416.5,433.5C 417.183,430.539 418.016,430.205 419,432.5C 419.595,431.101 419.428,429.768 418.5,428.5C 419.183,425.539 420.016,425.205 421,427.5C 422.217,425.48 422.383,423.48 421.5,421.5C 422.333,419.833 423.167,418.167 424,416.5C 424.333,417.167 424.667,417.833 425,418.5C 427.5,413.5 430,408.5 432.5,403.5C 431.693,401.039 432.193,398.706 434,396.5C 434.667,395.167 435.333,395.167 436,396.5C 436.692,395.975 437.192,395.308 437.5,394.5C 436.674,393.549 436.508,392.549 437,391.5C 438,391.167 439,390.833 440,390.5C 439.333,387.406 440.333,384.74 443,382.5C 459.392,356.086 481.225,333.586 508.5,315C 518.835,308.582 529.668,303.082 541,298.5C 542,298.833 543,299.167 544,299.5C 558.258,294.474 572.758,291.141 587.5,289.5 Z"/></g>
<g><path style="opacity:1" fill="#d59465" d="M 584.5,304.5 C 613.23,302.413 640.563,307.58 666.5,320C 665.289,320.893 665.289,321.726 666.5,322.5C 668.5,323.5 670.5,324.5 672.5,325.5C 672.833,324.833 673.167,324.167 673.5,323.5C 676.039,325.2 678.705,326.7 681.5,328C 681.727,329.135 682.06,330.302 682.5,331.5C 683.833,332.833 685.167,332.833 686.5,331.5C 686.669,332.397 687.002,333.397 687.5,334.5C 688.167,334.167 688.833,333.833 689.5,333.5C 690.7,334.531 692.034,335.365 693.5,336C 693.727,337.135 694.06,338.302 694.5,339.5C 696.017,338.089 697.351,338.256 698.5,340C 697.167,341 697.167,342 698.5,343C 700.95,341.874 702.95,342.541 704.5,345C 703.167,346 703.167,347 704.5,348C 706.055,349.646 707.721,349.979 709.5,349C 712.57,350.962 714.07,353.462 714,356.5C 715.079,358.394 716.413,358.727 718,357.5C 720,359.5 722,361.5 724,363.5C 723.021,365.279 723.354,366.945 725,368.5C 726,369.833 727,369.833 728,368.5C 729.022,369.354 729.855,370.354 730.5,371.5C 729.167,372.5 729.167,373.5 730.5,374.5C 731.698,374.94 732.865,375.273 734,375.5C 734.617,376.449 734.451,377.282 733.5,378C 734.552,379.119 735.719,379.619 737,379.5C 737.617,380.449 737.451,381.282 736.5,382C 737.552,383.119 738.719,383.619 740,383.5C 740.492,384.549 740.326,385.549 739.5,386.5C 740.274,387.711 741.107,387.711 742,386.5C 741.383,388.095 741.716,389.428 743,390.5C 743.333,390.167 743.667,389.833 744,389.5C 745.517,390.952 745.684,392.452 744.5,394C 745.369,395.869 746.535,396.369 748,395.5C 750.167,399.167 752.333,402.833 754.5,406.5C 753.515,408.098 753.349,409.765 754,411.5C 754.667,410.833 755.333,410.167 756,409.5C 763.44,423.012 769.606,436.679 774.5,450.5C 774.023,451.478 773.357,452.311 772.5,453C 773.449,453.617 774.282,453.451 775,452.5C 775.617,453.449 775.451,454.282 774.5,455C 776.481,455.605 776.815,456.605 775.5,458C 776.308,458.308 776.975,458.808 777.5,459.5C 774.71,462.922 774.877,463.589 778,461.5C 779.369,465.273 780.536,469.106 781.5,473C 781.05,474.285 780.383,475.452 779.5,476.5C 780.355,477.293 781.189,476.96 782,475.5C 782.624,477.464 782.124,479.131 780.5,480.5C 781.355,481.293 782.189,480.96 783,479.5C 783.624,481.464 783.124,483.131 781.5,484.5C 782.355,485.293 783.189,484.96 784,483.5C 785.914,487.047 785.748,490.38 783.5,493.5C 784.355,494.293 785.189,493.96 786,492.5C 786.756,494.809 786.256,496.809 784.5,498.5C 785.355,499.293 786.189,498.96 787,497.5C 787.678,499.902 787.178,502.068 785.5,504C 786.102,505.563 786.935,505.396 788,503.5C 788.778,506.275 788.278,508.775 786.5,511C 786.667,511.5 786.833,512 787,512.5C 788.489,508.782 789.322,508.782 789.5,512.5C 789.303,514.682 788.636,516.682 787.5,518.5C 787.667,519.167 787.833,519.833 788,520.5C 789.661,515.427 790.494,515.427 790.5,520.5C 790.519,523.239 789.852,525.739 788.5,528C 788.667,528.833 788.833,529.667 789,530.5C 790.851,523.751 791.684,523.918 791.5,531C 789.745,536.642 789.245,542.475 790,548.5C 790.452,545.123 791.118,541.789 792,538.5C 792.667,551.167 792.667,563.833 792,576.5C 791.206,573.529 790.539,570.529 790,567.5C 789.833,569.167 789.667,570.833 789.5,572.5C 791.285,577.971 791.785,583.638 791,589.5C 790.138,587.913 789.471,586.246 789,584.5C 788.833,585.333 788.667,586.167 788.5,587C 790.346,590.599 790.846,594.432 790,598.5C 789.333,597.167 788.667,595.833 788,594.5C 787.833,595.167 787.667,595.833 787.5,596.5C 789.291,599.248 789.791,602.248 789,605.5C 788.085,604.672 787.419,603.672 787,602.5C 786.833,603.167 786.667,603.833 786.5,604.5C 788.702,608.693 788.868,613.026 787,617.5C 786.189,616.04 785.355,615.707 784.5,616.5C 786.256,618.191 786.756,620.191 786,622.5C 785.189,621.04 784.355,620.707 783.5,621.5C 785.256,623.191 785.756,625.191 785,627.5C 784.189,626.04 783.355,625.707 782.5,626.5C 783.611,627.611 784.278,628.945 784.5,630.5C 783.489,634.877 782.322,639.21 781,643.5C 780.189,642.04 779.355,641.707 778.5,642.5C 780.871,644.954 781.038,647.621 779,650.5C 778.189,649.04 777.355,648.707 776.5,649.5C 777.383,650.548 778.05,651.715 778.5,653C 768.748,684.015 754.915,711.515 737,735.5C 734.609,734.398 734.109,735.064 735.5,737.5C 735.192,738.308 734.692,738.975 734,739.5C 733.107,738.289 732.274,738.289 731.5,739.5C 730.855,740.732 730.689,742.065 731,743.5C 729.732,743.616 728.398,743.949 727,744.5C 725.354,746.055 725.021,747.721 726,749.5C 724.625,751.977 722.791,752.811 720.5,752C 717,755.5 713.5,759 710,762.5C 710.811,764.791 709.977,766.625 707.5,768C 705.721,767.021 704.055,767.354 702.5,769C 701.949,770.398 701.616,771.732 701.5,773C 700.167,773 698.833,773 697.5,773C 696.949,774.398 696.616,775.732 696.5,777C 695.451,777.492 694.451,777.326 693.5,776.5C 693.06,777.698 692.727,778.865 692.5,780C 687.309,783.587 681.975,786.587 676.5,789C 677.696,788.346 677.696,787.846 676.5,787.5C 674.096,788.008 673.429,789.175 674.5,791C 624.5,818.333 574.5,818.333 524.5,791C 525.571,789.175 524.904,788.008 522.5,787.5C 522.167,788.167 521.833,788.833 521.5,789.5C 513.71,784.915 507.043,780.415 501.5,776C 502.833,775 502.833,774 501.5,773C 500.167,773 498.833,773 497.5,773C 497.018,771.992 496.852,770.825 497,769.5C 495.319,767.706 493.486,767.206 491.5,768C 489.023,766.625 488.189,764.791 489,762.5C 485.5,759 482,755.5 478.5,752C 476.209,752.811 474.375,751.977 473,749.5C 473.979,747.721 473.646,746.055 472,744.5C 470.602,743.949 469.268,743.616 468,743.5C 468.311,742.065 468.145,740.732 467.5,739.5C 466.302,739.06 465.135,738.727 464,738.5C 463.508,737.451 463.674,736.451 464.5,735.5C 463.302,735.06 462.135,734.727 461,734.5C 443.674,710.679 430.174,683.512 420.5,653C 420.95,651.715 421.617,650.548 422.5,649.5C 421.645,648.707 420.811,649.04 420,650.5C 417.962,647.621 418.129,644.954 420.5,642.5C 419.645,641.707 418.811,642.04 418,643.5C 416.678,639.21 415.511,634.877 414.5,630.5C 414.722,628.945 415.389,627.611 416.5,626.5C 415.645,625.707 414.811,626.04 414,627.5C 413.244,625.191 413.744,623.191 415.5,621.5C 414.645,620.707 413.811,621.04 413,622.5C 412.244,620.191 412.744,618.191 414.5,616.5C 413.645,615.707 412.811,616.04 412,617.5C 410.132,613.026 410.298,608.693 412.5,604.5C 412.333,603.833 412.167,603.167 412,602.5C 410.511,606.218 409.678,606.218 409.5,602.5C 409.697,600.318 410.364,598.318 411.5,596.5C 411.333,595.833 411.167,595.167 411,594.5C 410.333,595.833 409.667,597.167 409,598.5C 408.53,593.649 408.863,588.982 410,584.5C 409.529,586.246 408.862,587.913 408,589.5C 408.333,581.833 408.667,574.167 409,566.5C 408.548,569.877 407.882,573.211 407,576.5C 406.333,564.167 406.333,551.833 407,539.5C 407.988,542.424 408.654,545.424 409,548.5C 409.167,546.667 409.333,544.833 409.5,543C 408.833,539 408.167,535 407.5,531C 407.316,523.918 408.149,523.751 410,530.5C 410.167,529.667 410.333,528.833 410.5,528C 408.654,524.401 408.154,520.568 409,516.5C 409.667,517.833 410.333,519.167 411,520.5C 411.167,519.833 411.333,519.167 411.5,518.5C 409.709,515.752 409.209,512.752 410,509.5C 410.915,510.328 411.581,511.328 412,512.5C 412.167,512 412.333,511.5 412.5,511C 410.722,508.775 410.222,506.275 411,503.5C 412.065,505.396 412.898,505.563 413.5,504C 411.822,502.068 411.322,499.902 412,497.5C 412.811,498.96 413.645,499.293 414.5,498.5C 412.744,496.809 412.244,494.809 413,492.5C 413.811,493.96 414.645,494.293 415.5,493.5C 413.252,490.38 413.086,487.047 415,483.5C 415.811,484.96 416.645,485.293 417.5,484.5C 415.876,483.131 415.376,481.464 416,479.5C 416.811,480.96 417.645,481.293 418.5,480.5C 416.876,479.131 416.376,477.464 417,475.5C 417.811,476.96 418.645,477.293 419.5,476.5C 418.617,475.452 417.95,474.285 417.5,473C 418.464,469.106 419.631,465.273 421,461.5C 424.123,463.589 424.29,462.922 421.5,459.5C 423.385,458.803 423.718,457.803 422.5,456.5C 423.025,455.808 423.692,455.308 424.5,455C 423.549,454.282 423.383,453.449 424,452.5C 424.718,453.451 425.551,453.617 426.5,453C 425.643,452.311 424.977,451.478 424.5,450.5C 429.394,436.679 435.56,423.012 443,409.5C 443.667,410.167 444.333,410.833 445,411.5C 445.651,409.765 445.485,408.098 444.5,406.5C 446.667,402.833 448.833,399.167 451,395.5C 451.741,396.641 452.575,396.641 453.5,395.5C 454.731,394.349 454.731,393.183 453.5,392C 454.126,391.25 454.626,390.416 455,389.5C 455.914,390.654 456.747,390.487 457.5,389C 456.549,388.282 456.383,387.449 457,386.5C 459.391,387.602 459.891,386.936 458.5,384.5C 459.592,383.169 460.926,382.336 462.5,382C 461.549,381.282 461.383,380.449 462,379.5C 463.281,379.619 464.448,379.119 465.5,378C 464.549,377.282 464.383,376.449 465,375.5C 466.135,375.273 467.302,374.94 468.5,374.5C 469.145,373.268 469.311,371.935 469,370.5C 469.667,369.833 470.333,369.167 471,368.5C 472,369.833 473,369.833 474,368.5C 475.646,366.945 475.979,365.279 475,363.5C 477,361.5 479,359.5 481,357.5C 483.833,358.667 484.667,357.833 483.5,355C 485.5,353 487.5,351 489.5,349C 491.279,349.979 492.945,349.646 494.5,348C 495.833,347 495.833,346 494.5,345C 496.05,342.541 498.05,341.874 500.5,343C 501.833,342 501.833,341 500.5,340C 501.649,338.256 502.983,338.089 504.5,339.5C 504.94,338.302 505.273,337.135 505.5,336C 507.833,334.5 510.167,333 512.5,331.5C 513.833,332.833 515.167,332.833 516.5,331.5C 517.711,330.726 517.711,329.893 516.5,329C 519.5,327.167 522.5,325.333 525.5,323.5C 525.833,324.167 526.167,324.833 526.5,325.5C 528.5,324.5 530.5,323.5 532.5,322.5C 533.711,321.726 533.711,320.893 532.5,320C 549.138,312.061 566.471,306.894 584.5,304.5 Z"/></g>
<g><path style="opacity:1" fill="#d89867" d="M 586.5,323.5 C 636.894,321.791 679.061,339.458 713,376.5C 728.71,394.76 741.043,413.094 750,431.5C 750.333,430.833 750.667,430.167 751,429.5C 752.217,431.52 752.383,433.52 751.5,435.5C 752.667,437.833 753.833,440.167 755,442.5C 755.333,441.833 755.667,441.167 756,440.5C 755.704,444.653 756.704,448.653 759,452.5C 759.333,451.833 759.667,451.167 760,450.5C 759.358,453.957 760.024,457.29 762,460.5C 762.333,459.833 762.667,459.167 763,458.5C 764.821,461.91 765.321,465.41 764.5,469C 765,470.5 765.5,472 766,473.5C 766.333,472.833 766.667,472.167 767,471.5C 768.497,473.959 768.664,476.459 767.5,479C 767.944,480.762 768.444,480.595 769,478.5C 770.982,482.727 771.482,487.061 770.5,491.5C 771,493.5 771.5,495.5 772,497.5C 772.333,496.5 772.667,495.5 773,494.5C 773.419,496.68 773.252,498.846 772.5,501C 772.667,501.833 772.833,502.667 773,503.5C 773.869,498.492 774.536,498.825 775,504.5C 775.108,508.177 775.108,511.843 775,515.5C 775.333,514.167 775.667,512.833 776,511.5C 776.167,512.5 776.333,513.5 776.5,514.5C 775.668,517.482 775.501,520.482 776,523.5C 776.333,521.833 776.667,520.167 777,518.5C 777.167,519.667 777.333,520.833 777.5,522C 776.626,525.815 776.46,529.649 777,533.5C 777.333,531.167 777.667,528.833 778,526.5C 778.167,528.333 778.333,530.167 778.5,532C 777.175,549.167 777.175,566.334 778.5,583.5C 778.333,585.167 778.167,586.833 778,588.5C 777.667,586.167 777.333,583.833 777,581.5C 776.501,585.514 776.667,589.514 777.5,593.5C 777.333,594.833 777.167,596.167 777,597.5C 776.667,595.5 776.333,593.5 776,591.5C 775.454,594.855 775.621,598.188 776.5,601.5C 776.333,602.5 776.167,603.5 776,604.5C 775.667,602.833 775.333,601.167 775,599.5C 774.447,602.359 774.614,605.192 775.5,608C 775.333,608.833 775.167,609.667 775,610.5C 774.667,609.167 774.333,607.833 774,606.5C 773.438,608.866 773.604,611.199 774.5,613.5C 774.333,614.167 774.167,614.833 774,615.5C 773.667,614.5 773.333,613.5 773,612.5C 772.502,614.527 772.669,616.527 773.5,618.5C 773.333,619.167 773.167,619.833 773,620.5C 772.667,619.5 772.333,618.5 772,617.5C 772.138,625.315 770.804,632.981 768,640.5C 767.667,639.833 767.333,639.167 767,638.5C 765.503,640.959 765.336,643.459 766.5,646C 765,650.5 763.5,655 762,659.5C 761.667,658.833 761.333,658.167 761,657.5C 752.782,682.961 737.448,709.294 715,736.5C 688.191,766.824 654.691,784.991 614.5,791C 577.275,794.279 543.609,784.945 513.5,763C 480.74,737.406 457.24,706.572 443,670.5C 442.667,671.167 442.333,671.833 442,672.5C 441.405,671.101 441.572,669.768 442.5,668.5C 441.817,665.539 440.984,665.205 440,667.5C 440.642,664.043 439.976,660.71 438,657.5C 437.667,658.167 437.333,658.833 437,659.5C 435.5,655 434,650.5 432.5,646C 433.664,643.459 433.497,640.959 432,638.5C 431.667,639.167 431.333,639.833 431,640.5C 428.196,632.981 426.862,625.315 427,617.5C 426.667,618.5 426.333,619.5 426,620.5C 425.502,618.473 425.669,616.473 426.5,614.5C 426.333,613.833 426.167,613.167 426,612.5C 425.667,613.5 425.333,614.5 425,615.5C 424.833,614.833 424.667,614.167 424.5,613.5C 425.396,611.199 425.562,608.866 425,606.5C 424.667,607.833 424.333,609.167 424,610.5C 423.833,609.667 423.667,608.833 423.5,608C 424.386,605.192 424.553,602.359 424,599.5C 423.667,601.167 423.333,602.833 423,604.5C 422.833,603.5 422.667,602.5 422.5,601.5C 423.379,598.188 423.546,594.855 423,591.5C 422.667,593.5 422.333,595.5 422,597.5C 421.833,596.167 421.667,594.833 421.5,593.5C 422.333,589.514 422.499,585.514 422,581.5C 421.667,583.833 421.333,586.167 421,588.5C 420.833,586.833 420.667,585.167 420.5,583.5C 421.825,566.334 421.825,549.167 420.5,532C 420.667,530.167 420.833,528.333 421,526.5C 421.333,529.167 421.667,531.833 422,534.5C 422.573,530.314 422.406,526.147 421.5,522C 421.667,520.833 421.833,519.667 422,518.5C 422.333,520.167 422.667,521.833 423,523.5C 423.499,520.482 423.332,517.482 422.5,514.5C 422.667,513.5 422.833,512.5 423,511.5C 423.333,512.833 423.667,514.167 424,515.5C 424.434,512.821 424.268,510.154 423.5,507.5C 423.936,504.821 424.436,502.155 425,499.5C 425.333,500.833 425.667,502.167 426,503.5C 426.562,501.134 426.396,498.801 425.5,496.5C 425.667,495.833 425.833,495.167 426,494.5C 426.333,495.5 426.667,496.5 427,497.5C 428.498,494.199 428.665,490.865 427.5,487.5C 428.178,484.456 429.011,481.456 430,478.5C 430.556,480.595 431.056,480.762 431.5,479C 430.336,476.459 430.503,473.959 432,471.5C 432.333,472.167 432.667,472.833 433,473.5C 434.497,471.041 434.664,468.541 433.5,466C 434.333,463.5 435.167,461 436,458.5C 436.667,461.167 437.333,461.167 438,458.5C 439.657,455.911 439.991,453.244 439,450.5C 439.333,451.167 439.667,451.833 440,452.5C 442.296,448.653 443.296,444.653 443,440.5C 443.333,441.167 443.667,441.833 444,442.5C 445.167,440.167 446.333,437.833 447.5,435.5C 446.617,433.52 446.783,431.52 448,429.5C 448.333,430.167 448.667,430.833 449,431.5C 463.456,400.126 485.956,372.959 516.5,350C 537.777,335.522 561.11,326.689 586.5,323.5 Z"/></g>
<g><path style="opacity:1" fill="#c78159" d="M 718.5,260.5 C 733.932,275.6 747.932,291.933 760.5,309.5C 747.562,295.724 733.562,283.224 718.5,272C 649.349,224.513 577.349,219.846 502.5,258C 464.805,280.694 433.972,310.527 410,347.5C 367.987,417.217 348.653,492.884 352,574.5C 354.753,652.427 378.42,723.093 423,786.5C 449.333,821.838 482.5,848.672 522.5,867C 586.006,892.094 647.006,887.094 705.5,852C 753.247,820.245 788.747,778.078 812,725.5C 858.769,614.699 859.269,503.699 813.5,392.5C 826.265,414.708 836.931,438.041 845.5,462.5C 862.852,542.379 858.018,620.713 831,697.5C 830.094,705.225 827.427,712.225 823,718.5C 822.587,721.232 821.92,723.899 821,726.5C 815.123,736.92 809.79,747.587 805,758.5C 801.748,763.334 798.748,768.334 796,773.5C 795,774.167 794,774.833 793,775.5C 790.707,782.436 786.707,788.103 781,792.5C 778.19,799.648 773.523,805.315 767,809.5C 766.529,811.246 765.862,812.913 765,814.5C 750.351,829.824 734.517,843.658 717.5,856C 715.392,856.36 713.392,857.027 711.5,858C 656.814,893.239 598.147,901.239 535.5,882C 518.409,876.257 502.409,868.257 487.5,858C 476.383,853.435 467.049,846.435 459.5,837C 457.754,836.529 456.087,835.862 454.5,835C 448.232,829.405 442.732,823.239 438,816.5C 432.31,809.812 426.31,803.478 420,797.5C 414.513,790.681 409.846,783.348 406,775.5C 405,774.833 404,774.167 403,773.5C 385.556,745.276 371.89,715.276 362,683.5C 356.363,660.287 351.363,636.953 347,613.5C 342.125,573.79 342.458,534.123 348,494.5C 351.926,479.706 354.759,464.706 356.5,449.5C 377.394,394.37 405.561,343.37 441,296.5C 447.282,288.906 453.782,281.573 460.5,274.5C 470.933,266.773 481.6,259.273 492.5,252C 504.49,246.672 516.49,241.339 528.5,236C 570.308,220.501 612.641,218.835 655.5,231C 678.208,238.368 699.208,248.201 718.5,260.5 Z"/></g>
<g><path style="opacity:1" fill="#c47e56" d="M 356.5,449.5 C 354.759,464.706 351.926,479.706 348,494.5C 342.458,534.123 342.125,573.79 347,613.5C 351.363,636.953 356.363,660.287 362,683.5C 371.89,715.276 385.556,745.276 403,773.5C 404,774.167 405,774.833 406,775.5C 409.846,783.348 414.513,790.681 420,797.5C 426.31,803.478 432.31,809.812 438,816.5C 442.732,823.239 448.232,829.405 454.5,835C 456.087,835.862 457.754,836.529 459.5,837C 467.049,846.435 476.383,853.435 487.5,858C 502.409,868.257 518.409,876.257 535.5,882C 598.147,901.239 656.814,893.239 711.5,858C 713.392,857.027 715.392,856.36 717.5,856C 734.517,843.658 750.351,829.824 765,814.5C 765.862,812.913 766.529,811.246 767,809.5C 773.523,805.315 778.19,799.648 781,792.5C 786.707,788.103 790.707,782.436 793,775.5C 794,774.833 795,774.167 796,773.5C 798.748,768.334 801.748,763.334 805,758.5C 809.79,747.587 815.123,736.92 821,726.5C 821.92,723.899 822.587,721.232 823,718.5C 827.427,712.225 830.094,705.225 831,697.5C 858.018,620.713 862.852,542.379 845.5,462.5C 854.726,485.323 861.559,508.657 866,532.5C 866.536,552.509 866.87,572.509 867,592.5C 866.667,589.5 866.333,586.5 866,583.5C 865.44,588.681 865.607,593.848 866.5,599C 866.333,600.5 866.167,602 866,603.5C 865.667,601.5 865.333,599.5 865,597.5C 864.46,601.351 864.626,605.185 865.5,609C 865.333,610.167 865.167,611.333 865,612.5C 864.667,610.833 864.333,609.167 864,607.5C 863.454,610.855 863.621,614.188 864.5,617.5C 864.333,618.5 864.167,619.5 864,620.5C 863.667,618.833 863.333,617.167 863,615.5C 862.501,618.518 862.668,621.518 863.5,624.5C 863.333,625.5 863.167,626.5 863,627.5C 862.667,626.167 862.333,624.833 862,623.5C 861.501,626.022 861.668,628.522 862.5,631C 862.333,631.833 862.167,632.667 862,633.5C 861.667,632.167 861.333,630.833 861,629.5C 860.833,630.333 860.667,631.167 860.5,632C 860.579,635.825 860.579,639.325 860.5,642.5C 860.333,643.167 860.167,643.833 860,644.5C 859.667,643.5 859.333,642.5 859,641.5C 858.502,643.527 858.669,645.527 859.5,647.5C 859.333,648.167 859.167,648.833 859,649.5C 858.667,648.5 858.333,647.5 858,646.5C 857.502,648.527 857.669,650.527 858.5,652.5C 858,654.5 857.5,656.5 857,658.5C 856.667,657.5 856.333,656.5 856,655.5C 856.138,663.315 854.804,670.981 852,678.5C 851.667,677.833 851.333,677.167 851,676.5C 849.503,678.959 849.336,681.459 850.5,684C 849.167,686.333 847.833,688.667 846.5,691C 846.833,692 847.167,693 847.5,694C 846.333,697.5 845.167,701 844,704.5C 843.667,703.833 843.333,703.167 843,702.5C 840.699,706.69 839.699,711.024 840,715.5C 839.016,713.205 838.183,713.539 837.5,716.5C 838.428,717.768 838.595,719.101 838,720.5C 837.667,719.833 837.333,719.167 837,718.5C 834.704,722.347 833.704,726.347 834,730.5C 833.667,729.833 833.333,729.167 833,728.5C 828.456,738.63 822.956,749.964 816.5,762.5C 801.766,789.391 782.432,815.224 758.5,840C 750.869,847.143 742.869,853.81 734.5,860C 734.5,861 734.5,862 734.5,863C 733.167,863 731.833,863 730.5,863C 683.975,898.967 629.975,913.3 568.5,906C 530.138,899.246 496.805,884.913 468.5,863C 467.167,863 465.833,863 464.5,863C 464.5,862 464.5,861 464.5,860C 462.05,861.126 460.05,860.459 458.5,858C 460.301,857.683 460.634,857.016 459.5,856C 457.05,857.126 455.05,856.459 453.5,854C 454.167,853.667 454.833,853.333 455.5,853C 425.64,827.361 402.14,798.528 385,766.5C 384.667,767.167 384.333,767.833 384,768.5C 379.962,757.399 374.962,746.399 369,735.5C 368.667,736.167 368.333,736.833 368,737.5C 367.405,736.101 367.572,734.768 368.5,733.5C 367.667,731.833 366.833,730.167 366,728.5C 365.667,729.167 365.333,729.833 365,730.5C 365.296,726.347 364.296,722.347 362,718.5C 361.667,719.167 361.333,719.833 361,720.5C 360.405,719.101 360.572,717.768 361.5,716.5C 360.817,713.539 359.984,713.205 359,715.5C 359.301,711.024 358.301,706.69 356,702.5C 355.667,703.167 355.333,703.833 355,704.5C 353.833,701 352.667,697.5 351.5,694C 351.833,693 352.167,692 352.5,691C 351.167,688.667 349.833,686.333 348.5,684C 349.664,681.459 349.497,678.959 348,676.5C 347.026,678.878 346.359,678.544 346,675.5C 343.681,668.93 342.681,662.264 343,655.5C 342.667,656.5 342.333,657.5 342,658.5C 340.502,655.199 340.335,651.865 341.5,648.5C 341.333,647.833 341.167,647.167 341,646.5C 340.667,647.5 340.333,648.5 340,649.5C 339.502,647.473 339.669,645.473 340.5,643.5C 340.333,642.833 340.167,642.167 340,641.5C 339.667,642.5 339.333,643.5 339,644.5C 338.833,643.833 338.667,643.167 338.5,642.5C 338.421,639.325 338.421,635.825 338.5,632C 338.333,631.167 338.167,630.333 338,629.5C 337.667,630.833 337.333,632.167 337,633.5C 336.501,630.978 336.668,628.478 337.5,626C 337.333,625.167 337.167,624.333 337,623.5C 336.667,624.833 336.333,626.167 336,627.5C 335.501,624.482 335.668,621.482 336.5,618.5C 336.333,617.5 336.167,616.5 336,615.5C 335.667,617.167 335.333,618.833 335,620.5C 334.833,619.5 334.667,618.5 334.5,617.5C 335.379,614.188 335.546,610.855 335,607.5C 334.667,609.167 334.333,610.833 334,612.5C 333.833,611.333 333.667,610.167 333.5,609C 334.374,605.185 334.54,601.351 334,597.5C 333.667,599.5 333.333,601.5 333,603.5C 332.574,598.66 332.74,593.827 333.5,589C 333.333,587.167 333.167,585.333 333,583.5C 332.667,586.5 332.333,589.5 332,592.5C 331.833,590.167 331.667,587.833 331.5,585.5C 332.755,568.485 332.755,551.485 331.5,534.5C 332.037,533.259 332.704,532.092 333.5,531C 332.86,528.943 333.027,526.777 334,524.5C 338.614,500.378 346.114,475.378 356.5,449.5 Z"/></g>
<g><path style="opacity:1" fill="#db9b6a" d="M 591.5,349.5 C 626.206,348.568 656.873,359.068 683.5,381C 714.748,408.84 736.081,442.84 747.5,483C 746.711,484.626 745.711,486.126 744.5,487.5C 744.667,487.833 744.833,488.167 745,488.5C 746,487.5 747,486.5 748,485.5C 748.597,487.924 747.763,489.757 745.5,491C 745.667,491.5 745.833,492 746,492.5C 748.826,488.499 750.326,489.165 750.5,494.5C 750.075,496.38 749.075,497.88 747.5,499C 747.667,499.5 747.833,500 748,500.5C 749,499.5 750,498.5 751,497.5C 751.167,498 751.333,498.5 751.5,499C 750.5,500.667 749.5,502.333 748.5,504C 748.667,504.5 748.833,505 749,505.5C 749.615,503.884 750.615,502.551 752,501.5C 752.167,502.167 752.333,502.833 752.5,503.5C 751.814,505.347 750.814,507.014 749.5,508.5C 749.667,509.167 749.833,509.833 750,510.5C 750.615,508.884 751.615,507.551 753,506.5C 753.564,509.155 754.064,511.821 754.5,514.5C 753.754,516.677 752.754,518.677 751.5,520.5C 751.667,521.167 751.833,521.833 752,522.5C 755.198,517.214 756.198,517.881 755,524.5C 752.697,526.338 752.031,528.672 753,531.5C 754,529.5 755,527.5 756,525.5C 757.04,529.533 756.374,533.199 754,536.5C 753.333,539.5 753.333,542.5 754,545.5C 754.798,542.107 755.798,538.774 757,535.5C 757.167,538.5 757.333,541.5 757.5,544.5C 756.923,556.153 756.757,567.819 757,579.5C 755.798,576.226 754.798,572.893 754,569.5C 753.833,571.167 753.667,572.833 753.5,574.5C 754.023,578.332 755.023,581.999 756.5,585.5C 756.333,586.833 756.167,588.167 756,589.5C 755,587.5 754,585.5 753,583.5C 752.833,584.5 752.667,585.5 752.5,586.5C 753.851,588.678 754.851,591.012 755.5,593.5C 755.333,594.5 755.167,595.5 755,596.5C 754,595.167 753,593.833 752,592.5C 751.833,593.167 751.667,593.833 751.5,594.5C 752.729,596.562 753.729,598.729 754.5,601C 754.333,601.833 754.167,602.667 754,603.5C 753.385,601.884 752.385,600.551 751,599.5C 750.833,600 750.667,600.5 750.5,601C 751.723,602.72 752.723,604.553 753.5,606.5C 753.333,607.167 753.167,607.833 753,608.5C 752,607.5 751,606.5 750,605.5C 749.833,606 749.667,606.5 749.5,607C 752.081,608.49 752.915,610.657 752,613.5C 751,612.5 750,611.5 749,610.5C 748.833,611 748.667,611.5 748.5,612C 750.075,613.12 751.075,614.62 751.5,616.5C 750.489,620.877 749.322,625.21 748,629.5C 747,628.5 746,627.5 745,626.5C 744.833,627 744.667,627.5 744.5,628C 745.783,629.136 746.783,630.469 747.5,632C 736.901,669.822 717.234,702.488 688.5,730C 641.538,769.912 590.538,775.912 535.5,748C 498.392,724.596 473.059,692.263 459.5,651C 458.333,650.5 457.5,649.667 457,648.5C 455.167,643 453.333,637.5 451.5,632C 452.217,630.469 453.217,629.136 454.5,628C 454.333,627.5 454.167,627 454,626.5C 453,627.5 452,628.5 451,629.5C 449.678,625.21 448.511,620.877 447.5,616.5C 447.925,614.62 448.925,613.12 450.5,612C 450.333,611.5 450.167,611 450,610.5C 449,611.5 448,612.5 447,613.5C 446.085,610.657 446.919,608.49 449.5,607C 449.333,606.5 449.167,606 449,605.5C 448,606.5 447,607.5 446,608.5C 445.833,607.833 445.667,607.167 445.5,606.5C 446.277,604.553 447.277,602.72 448.5,601C 448.333,600.5 448.167,600 448,599.5C 446.615,600.551 445.615,601.884 445,603.5C 444.833,602.667 444.667,601.833 444.5,601C 445.271,598.729 446.271,596.562 447.5,594.5C 447.333,593.833 447.167,593.167 447,592.5C 443.802,597.786 442.802,597.119 444,590.5C 446.27,588.685 446.936,586.352 446,583.5C 442.797,591.229 441.797,590.562 443,581.5C 443.667,580.833 444.333,580.167 445,579.5C 445.667,576.167 445.667,572.833 445,569.5C 444.202,572.893 443.202,576.226 442,579.5C 441.833,576.5 441.667,573.5 441.5,570.5C 441.965,558.852 442.132,547.185 442,535.5C 443.202,538.774 444.202,542.107 445,545.5C 445.167,544 445.333,542.5 445.5,541C 444.389,537.253 443.389,533.419 442.5,529.5C 442.667,528.167 442.833,526.833 443,525.5C 444,527.5 445,529.5 446,531.5C 446.167,530.667 446.333,529.833 446.5,529C 445.267,526.598 444.267,524.098 443.5,521.5C 443.667,520.5 443.833,519.5 444,518.5C 445,519.833 446,521.167 447,522.5C 447.167,521.833 447.333,521.167 447.5,520.5C 446.535,518.671 445.535,516.838 444.5,515C 444.667,514.167 444.833,513.333 445,512.5C 446.385,513.551 447.385,514.884 448,516.5C 448.167,515.833 448.333,515.167 448.5,514.5C 447.535,512.671 446.535,510.838 445.5,509C 445.667,508.167 445.833,507.333 446,506.5C 447.385,507.551 448.385,508.884 449,510.5C 449.732,508.294 449.065,506.628 447,505.5C 446.544,500.597 447.544,500.597 450,505.5C 450.167,505 450.333,504.5 450.5,504C 449.5,502.333 448.5,500.667 447.5,499C 447.667,498.5 447.833,498 448,497.5C 451.874,501.218 452.208,500.885 449,496.5C 448.516,494.087 448.85,491.754 450,489.5C 451,490.5 452,491.5 453,492.5C 453.167,492 453.333,491.5 453.5,491C 451.237,489.757 450.403,487.924 451,485.5C 452,486.5 453,487.5 454,488.5C 454.167,488.167 454.333,487.833 454.5,487.5C 453.289,486.126 452.289,484.626 451.5,483C 462.144,446.155 480.81,414.488 507.5,388C 511.477,386.469 514.144,384.136 515.5,381C 537.69,363.077 563.023,352.577 591.5,349.5 Z"/></g>
<g><path style="opacity:1" fill="#de9f6d" d="M 592.5,365.5 C 622.645,365.06 648.811,373.393 671,390.5C 703.219,415.724 724.219,447.724 734,486.5C 734.333,486.167 734.667,485.833 735,485.5C 754.035,553.026 747.369,616.36 715,675.5C 711,681.5 707,687.5 703,693.5C 700.257,695.788 697.423,697.955 694.5,700C 695.167,700.333 695.833,700.667 696.5,701C 678.969,722.401 655.969,737.401 627.5,746C 588.471,754.161 554.304,746.328 525,722.5C 516.538,716.372 509.038,709.206 502.5,701C 503.167,700.667 503.833,700.333 504.5,700C 500.33,697.917 496.996,694.917 494.5,691C 481.062,672.954 470.728,652.12 463.5,628.5C 465.748,627.676 465.914,626.676 464,625.5C 463.667,625.833 463.333,626.167 463,626.5C 445.466,560.76 452.132,499.093 483,441.5C 501.663,409.42 527.163,386.587 559.5,373C 570.36,369.265 581.36,366.765 592.5,365.5 Z"/></g>
<g><path style="opacity:1" fill="#e0a36f" d="M 587.5,408.5 C 616.93,405.982 642.43,414.649 664,434.5C 664.617,433.551 664.451,432.718 663.5,432C 667.049,430.112 670.216,431.278 673,435.5C 674.113,436.76 674.28,437.927 673.5,439C 675.937,440.279 676.437,441.779 675,443.5C 673.719,442.353 673.386,442.687 674,444.5C 680.78,452.616 686.78,461.282 692,470.5C 693.293,468.714 693.793,467.047 693.5,465.5C 694.146,468.31 695.812,470.144 698.5,471C 695.833,471.667 695.833,472.333 698.5,473C 698.167,473.333 697.833,473.667 697.5,474C 698.627,475.753 699.627,477.587 700.5,479.5C 699.91,480.799 698.91,481.632 697.5,482C 718.274,531.274 718.774,580.774 699,630.5C 687.946,657.175 670.446,678.341 646.5,694C 600.464,716.411 559.964,708.911 525,671.5C 493.363,630.502 480.697,584.168 487,532.5C 489.429,514.945 494.263,498.112 501.5,482C 500.09,481.632 499.09,480.799 498.5,479.5C 499.373,477.587 500.373,475.753 501.5,474C 500.833,473.667 500.167,473.333 499.5,473C 502.547,471.442 504.547,468.942 505.5,465.5C 505.207,467.047 505.707,468.714 507,470.5C 512.64,460.719 519.14,451.552 526.5,443C 524.905,443.617 523.572,443.284 522.5,442C 523.962,438.53 526.295,435.197 529.5,432C 531.027,430.632 532.527,430.132 534,430.5C 535.284,431.572 535.617,432.905 535,434.5C 549.955,420.606 567.455,411.939 587.5,408.5 Z"/></g>
<g><path style="opacity:1" fill="#e1a470" d="M 594.5,422.5 C 631.027,423.556 658.861,439.556 678,470.5C 704.425,516.573 709.092,565.239 692,616.5C 678.388,654.782 652.388,680.115 614,692.5C 572.545,694.595 540.879,677.595 519,641.5C 496.44,600.349 491.106,557.015 503,511.5C 509.655,486.402 522.488,464.569 541.5,446C 556.803,432.679 574.47,424.845 594.5,422.5 Z"/></g>
<g><path style="opacity:1" fill="#e3a671" d="M 589.5,435.5 C 618.99,433.493 643.157,443.827 662,466.5C 685.661,497.793 695.661,533.126 692,572.5C 689.108,608.114 674.608,637.947 648.5,662C 624.809,680.686 598.809,684.686 570.5,674C 543.064,660.228 524.564,638.728 515,609.5C 500.279,564.681 504.279,521.681 527,480.5C 541.36,456.278 562.194,441.278 589.5,435.5 Z"/></g>
<g><path style="opacity:1" fill="#e5a974" d="M 589.5,476.5 C 618.633,474.797 639.466,487.131 652,513.5C 664.271,542.019 664.605,570.686 653,599.5C 644.503,618.667 630.336,631.5 610.5,638C 588.772,641.423 570.939,634.589 557,617.5C 539.925,593.807 533.925,567.473 539,538.5C 542.946,515.753 554.113,497.586 572.5,484C 578.032,480.894 583.699,478.394 589.5,476.5 Z"/></g>
<g><path style="opacity:0.336" fill="#c4c4c4" d="M 442.5,875.5 C 445.047,876.934 447.381,878.6 449.5,880.5C 437.119,882.769 425.119,886.603 413.5,892C 395.815,905.181 389.315,922.681 394,944.5C 399.641,964.138 412.474,976.305 432.5,981C 467.388,989.079 502.721,994.079 538.5,996C 602.772,1000.12 666.772,997.458 730.5,988C 745.465,985.941 760.131,982.607 774.5,978C 801.325,965.845 811.159,945.345 804,916.5C 799.258,902.757 790.091,893.257 776.5,888C 765.513,884.577 754.513,881.743 743.5,879.5C 745.698,877.902 748.031,876.569 750.5,875.5C 765.61,877.027 779.944,881.194 793.5,888C 801.244,893.073 806.744,899.906 810,908.5C 816.992,928.25 815.325,947.25 805,965.5C 797.232,975.575 787.065,982.075 774.5,985C 715.71,997.83 656.21,1004 596,1003.5C 540.241,1003.84 485.075,998.341 430.5,987C 400.421,981.1 385.088,962.934 384.5,932.5C 384.149,915.054 390.483,900.554 403.5,889C 415.779,882.187 428.779,877.687 442.5,875.5 Z"/></g>
<g><path style="opacity:0.342" fill="#bfbfbf" d="M 743.5,879.5 C 754.513,881.743 765.513,884.577 776.5,888C 790.091,893.257 799.258,902.757 804,916.5C 811.159,945.345 801.325,965.845 774.5,978C 760.131,982.607 745.465,985.941 730.5,988C 666.772,997.458 602.772,1000.12 538.5,996C 502.721,994.079 467.388,989.079 432.5,981C 412.474,976.305 399.641,964.138 394,944.5C 389.315,922.681 395.815,905.181 413.5,892C 425.119,886.603 437.119,882.769 449.5,880.5C 451.23,881.026 452.564,882.026 453.5,883.5C 441.024,885.46 429.024,889.293 417.5,895C 401.289,906.271 394.789,921.771 398,941.5C 403.538,960.704 416.038,972.87 435.5,978C 471.382,986.194 507.715,991.194 544.5,993C 605.771,996.553 666.771,993.886 727.5,985C 743.246,982.985 758.579,979.318 773.5,974C 794.508,964.156 803.675,947.656 801,924.5C 796.723,906.221 785.556,894.388 767.5,889C 757.77,886.491 748.103,884.324 738.5,882.5C 740.332,881.752 741.999,880.752 743.5,879.5 Z"/></g>
<g><path style="opacity:0.351" fill="#b9b9b9" d="M 738.5,882.5 C 748.103,884.324 757.77,886.491 767.5,889C 785.556,894.388 796.723,906.221 801,924.5C 803.675,947.656 794.508,964.156 773.5,974C 758.579,979.318 743.246,982.985 727.5,985C 666.771,993.886 605.771,996.553 544.5,993C 507.715,991.194 471.382,986.194 435.5,978C 416.038,972.87 403.538,960.704 398,941.5C 394.789,921.771 401.289,906.271 417.5,895C 429.024,889.293 441.024,885.46 453.5,883.5C 455.062,883.733 456.395,884.4 457.5,885.5C 457.389,886.117 457.056,886.617 456.5,887C 443.803,888.455 431.803,892.122 420.5,898C 404.422,909.56 398.588,925.06 403,944.5C 407.688,956.523 415.855,965.356 427.5,971C 441.683,976.546 456.35,980.212 471.5,982C 567.936,996.485 663.936,994.151 759.5,975C 792.194,965.443 803.028,944.61 792,912.5C 782.27,899.206 769.103,891.373 752.5,889C 746.215,887.73 739.882,886.897 733.5,886.5C 734.945,884.937 736.611,883.604 738.5,882.5 Z"/></g>
<g><path style="opacity:0.36" fill="#b1b1b1" d="M 457.5,885.5 C 459.23,886.026 460.564,887.026 461.5,888.5C 451.397,890.026 441.397,892.526 431.5,896C 406.83,907.672 399.663,926.172 410,951.5C 418.742,963.128 430.242,970.628 444.5,974C 516.928,988.04 589.928,992.04 663.5,986C 686.945,984.319 710.279,981.653 733.5,978C 750.692,976.272 766.359,970.605 780.5,961C 795.634,945.302 797.468,928.136 786,909.5C 780.459,903.643 773.959,899.143 766.5,896C 754.597,892.192 742.597,889.358 730.5,887.5C 731.391,886.89 732.391,886.557 733.5,886.5C 739.882,886.897 746.215,887.73 752.5,889C 769.103,891.373 782.27,899.206 792,912.5C 803.028,944.61 792.194,965.443 759.5,975C 663.936,994.151 567.936,996.485 471.5,982C 456.35,980.212 441.683,976.546 427.5,971C 415.855,965.356 407.688,956.523 403,944.5C 398.588,925.06 404.422,909.56 420.5,898C 431.803,892.122 443.803,888.455 456.5,887C 457.056,886.617 457.389,886.117 457.5,885.5 Z"/></g>
<g><path style="opacity:0.368" fill="#ababab" d="M 730.5,887.5 C 742.597,889.358 754.597,892.192 766.5,896C 773.959,899.143 780.459,903.643 786,909.5C 797.468,928.136 795.634,945.302 780.5,961C 766.359,970.605 750.692,976.272 733.5,978C 710.279,981.653 686.945,984.319 663.5,986C 589.928,992.04 516.928,988.04 444.5,974C 430.242,970.628 418.742,963.128 410,951.5C 399.663,926.172 406.83,907.672 431.5,896C 441.397,892.526 451.397,890.026 461.5,888.5C 463.674,888.75 465.341,889.75 466.5,891.5C 450.56,892.093 435.894,896.593 422.5,905C 407.976,918.305 405.143,933.805 414,951.5C 421.299,960.469 430.465,966.636 441.5,970C 469.447,976.754 497.78,981.088 526.5,983C 589.319,987.922 651.986,986.255 714.5,978C 727.327,976.529 739.994,974.195 752.5,971C 764.042,968.436 773.876,962.936 782,954.5C 790.326,942.633 791.659,929.967 786,916.5C 776.846,903.729 764.346,896.229 748.5,894C 741.205,892.506 733.872,891.34 726.5,890.5C 727.436,889.026 728.77,888.026 730.5,887.5 Z"/></g>
<g><path style="opacity:0.379" fill="#a3a3a3" d="M 726.5,890.5 C 733.872,891.34 741.205,892.506 748.5,894C 764.346,896.229 776.846,903.729 786,916.5C 791.659,929.967 790.326,942.633 782,954.5C 773.876,962.936 764.042,968.436 752.5,971C 739.994,974.195 727.327,976.529 714.5,978C 651.986,986.255 589.319,987.922 526.5,983C 497.78,981.088 469.447,976.754 441.5,970C 430.465,966.636 421.299,960.469 414,951.5C 405.143,933.805 407.976,918.305 422.5,905C 435.894,896.593 450.56,892.093 466.5,891.5C 467.492,891.328 468.158,891.662 468.5,892.5C 452.294,893.797 437.294,898.63 423.5,907C 410.536,919.271 408.036,933.438 416,949.5C 424.444,959.98 435.278,966.813 448.5,970C 521.309,983.833 594.643,987.499 668.5,981C 696.814,979.128 724.814,975.128 752.5,969C 764.208,965.734 774.041,959.568 782,950.5C 792.503,925.659 785.003,908.492 759.5,899C 747.523,895.731 735.523,893.231 723.5,891.5C 724.391,890.89 725.391,890.557 726.5,890.5 Z"/></g>
<g><path style="opacity:0.387" fill="#9d9d9d" d="M 723.5,891.5 C 735.523,893.231 747.523,895.731 759.5,899C 785.003,908.492 792.503,925.659 782,950.5C 774.041,959.568 764.208,965.734 752.5,969C 724.814,975.128 696.814,979.128 668.5,981C 594.643,987.499 521.309,983.833 448.5,970C 435.278,966.813 424.444,959.98 416,949.5C 408.036,933.438 410.536,919.271 423.5,907C 437.294,898.63 452.294,893.797 468.5,892.5C 469.492,892.328 470.158,892.662 470.5,893.5C 454.757,894.601 440.09,899.101 426.5,907C 412.49,918.832 409.657,932.998 418,949.5C 425.361,958.776 434.861,964.942 446.5,968C 477.792,974.959 509.459,979.292 541.5,981C 610.681,985.49 679.347,981.49 747.5,969C 759.727,966.14 770.227,960.306 779,951.5C 791.093,928.158 784.926,911.325 760.5,901C 747.601,897.079 734.601,894.246 721.5,892.5C 722.167,892.167 722.833,891.833 723.5,891.5 Z"/></g>
<g><path style="opacity:0.396" fill="#969695" d="M 721.5,892.5 C 734.601,894.246 747.601,897.079 760.5,901C 784.926,911.325 791.093,928.158 779,951.5C 770.227,960.306 759.727,966.14 747.5,969C 679.347,981.49 610.681,985.49 541.5,981C 509.459,979.292 477.792,974.959 446.5,968C 434.861,964.942 425.361,958.776 418,949.5C 409.657,932.998 412.49,918.832 426.5,907C 440.09,899.101 454.757,894.601 470.5,893.5C 472.819,893.992 474.819,894.992 476.5,896.5C 460.648,897.046 445.648,900.88 431.5,908C 417.798,917.971 414.298,930.804 421,946.5C 426.377,954.278 433.543,959.778 442.5,963C 455.372,967.977 468.705,970.977 482.5,972C 556.787,981.621 631.121,981.954 705.5,973C 722.52,971.386 739.187,968.052 755.5,963C 767.328,958.836 775.494,951.003 780,939.5C 782.462,921.937 775.296,910.103 758.5,904C 744.75,899.765 730.75,896.932 716.5,895.5C 717.965,894.263 719.632,893.263 721.5,892.5 Z"/></g>
<g><path style="opacity:0.415" fill="#8c8c8c" d="M 716.5,895.5 C 730.75,896.932 744.75,899.765 758.5,904C 775.296,910.103 782.462,921.937 780,939.5C 775.494,951.003 767.328,958.836 755.5,963C 739.187,968.052 722.52,971.386 705.5,973C 631.121,981.954 556.787,981.621 482.5,972C 468.705,970.977 455.372,967.977 442.5,963C 433.543,959.778 426.377,954.278 421,946.5C 414.298,930.804 417.798,917.971 431.5,908C 445.648,900.88 460.648,897.046 476.5,896.5C 477.492,896.328 478.158,896.662 478.5,897.5C 465.656,898.926 452.989,901.759 440.5,906C 421.391,914.705 416.225,928.539 425,947.5C 432.357,955.932 441.524,961.432 452.5,964C 499.988,973.757 547.988,978.257 596.5,977.5C 632.973,977.698 669.306,975.531 705.5,971C 720.05,969.49 734.384,966.823 748.5,963C 760.598,959.89 769.765,953.057 776,942.5C 780.715,926.089 775.215,914.255 759.5,907C 744.306,901.595 728.639,898.428 712.5,897.5C 713.514,896.326 714.847,895.66 716.5,895.5 Z"/></g>
<g><path style="opacity:0.427" fill="#858585" d="M 478.5,897.5 C 480.153,897.66 481.486,898.326 482.5,899.5C 469.905,900.155 457.572,902.321 445.5,906C 424.988,913.179 418.822,926.679 427,946.5C 433.459,954.316 441.625,959.482 451.5,962C 478.811,968.372 506.478,972.372 534.5,974C 595.374,978.415 656.041,976.415 716.5,968C 733.108,966.268 748.775,961.601 763.5,954C 776.204,944.347 778.704,932.514 771,918.5C 764.844,911.836 757.344,907.336 748.5,905C 735.952,901.853 723.285,899.687 710.5,898.5C 710.842,897.662 711.508,897.328 712.5,897.5C 728.639,898.428 744.306,901.595 759.5,907C 775.215,914.255 780.715,926.089 776,942.5C 769.765,953.057 760.598,959.89 748.5,963C 734.384,966.823 720.05,969.49 705.5,971C 669.306,975.531 632.973,977.698 596.5,977.5C 547.988,978.257 499.988,973.757 452.5,964C 441.524,961.432 432.357,955.932 425,947.5C 416.225,928.539 421.391,914.705 440.5,906C 452.989,901.759 465.656,898.926 478.5,897.5 Z"/></g>
<g><path style="opacity:0.439" fill="#7f7f7f" d="M 710.5,898.5 C 723.285,899.687 735.952,901.853 748.5,905C 757.344,907.336 764.844,911.836 771,918.5C 778.704,932.514 776.204,944.347 763.5,954C 748.775,961.601 733.108,966.268 716.5,968C 656.041,976.415 595.374,978.415 534.5,974C 506.478,972.372 478.811,968.372 451.5,962C 441.625,959.482 433.459,954.316 427,946.5C 418.822,926.679 424.988,913.179 445.5,906C 457.572,902.321 469.905,900.155 482.5,899.5C 483.492,899.328 484.158,899.662 484.5,900.5C 471.166,901.286 458.166,903.786 445.5,908C 426.963,914.897 421.463,927.397 429,945.5C 436.51,954.18 446.01,959.68 457.5,962C 484.867,967.856 512.534,971.522 540.5,973C 595.636,976.496 650.636,974.83 705.5,968C 718.327,966.529 730.994,964.195 743.5,961C 754.409,958.639 763.242,953.139 770,944.5C 775.675,932.697 773.509,922.53 763.5,914C 758.226,910.53 752.56,907.864 746.5,906C 733.333,902.905 720,901.071 706.5,900.5C 707.514,899.326 708.847,898.66 710.5,898.5 Z"/></g>
<g><path style="opacity:0.451" fill="#797979" d="M 484.5,900.5 C 485.492,900.328 486.158,900.662 486.5,901.5C 469.186,902.078 452.853,906.245 437.5,914C 426.455,923.296 424.621,934.129 432,946.5C 439.79,953.813 448.957,958.646 459.5,961C 504.734,969.742 550.401,973.909 596.5,973.5C 634.665,973.512 672.665,971.012 710.5,966C 722.016,964.525 733.349,962.192 744.5,959C 754.952,956.206 763.119,950.372 769,941.5C 773.005,930.185 770.172,921.018 760.5,914C 754.024,909.953 747.024,907.286 739.5,906C 727.619,903.515 715.619,902.015 703.5,901.5C 704.209,900.596 705.209,900.263 706.5,900.5C 720,901.071 733.333,902.905 746.5,906C 752.56,907.864 758.226,910.53 763.5,914C 773.509,922.53 775.675,932.697 770,944.5C 763.242,953.139 754.409,958.639 743.5,961C 730.994,964.195 718.327,966.529 705.5,968C 650.636,974.83 595.636,976.496 540.5,973C 512.534,971.522 484.867,967.856 457.5,962C 446.01,959.68 436.51,954.18 429,945.5C 421.463,927.397 426.963,914.897 445.5,908C 458.166,903.786 471.166,901.286 484.5,900.5 Z"/></g>
<g><path style="opacity:0.465" fill="#717171" d="M 486.5,901.5 C 489.157,901.935 491.491,902.935 493.5,904.5C 478.8,904.909 464.466,907.409 450.5,912C 434.328,917.501 429.494,928.001 436,943.5C 444.184,951.677 454.018,956.844 465.5,959C 526.069,969.855 587.069,973.188 648.5,969C 674.681,967.536 700.681,964.536 726.5,960C 735.91,958.197 744.91,955.197 753.5,951C 767.411,941.788 769.077,930.788 758.5,918C 750.499,913.002 741.832,909.668 732.5,908C 721.481,906.248 710.481,904.748 699.5,903.5C 700.514,902.326 701.847,901.66 703.5,901.5C 715.619,902.015 727.619,903.515 739.5,906C 747.024,907.286 754.024,909.953 760.5,914C 770.172,921.018 773.005,930.185 769,941.5C 763.119,950.372 754.952,956.206 744.5,959C 733.349,962.192 722.016,964.525 710.5,966C 672.665,971.012 634.665,973.512 596.5,973.5C 550.401,973.909 504.734,969.742 459.5,961C 448.957,958.646 439.79,953.813 432,946.5C 424.621,934.129 426.455,923.296 437.5,914C 452.853,906.245 469.186,902.078 486.5,901.5 Z"/></g>
<g><path style="opacity:0.494" fill="#666666" d="M 699.5,903.5 C 710.481,904.748 721.481,906.248 732.5,908C 741.832,909.668 750.499,913.002 758.5,918C 769.077,930.788 767.411,941.788 753.5,951C 744.91,955.197 735.91,958.197 726.5,960C 700.681,964.536 674.681,967.536 648.5,969C 587.069,973.188 526.069,969.855 465.5,959C 454.018,956.844 444.184,951.677 436,943.5C 429.494,928.001 434.328,917.501 450.5,912C 464.466,907.409 478.8,904.909 493.5,904.5C 495.403,904.796 497.07,905.463 498.5,906.5C 484.253,907.041 470.253,909.208 456.5,913C 448.307,915.335 442.14,920.169 438,927.5C 435.853,937.037 439.019,944.204 447.5,949C 463.399,956.142 480.065,960.475 497.5,962C 574.43,971.901 651.096,970.235 727.5,957C 739.123,955.025 749.29,950.192 758,942.5C 762.974,933.544 761.474,925.71 753.5,919C 748.449,916.092 743.116,913.758 737.5,912C 722.355,908.527 707.021,906.693 691.5,906.5C 693.89,904.98 696.557,903.98 699.5,903.5 Z"/></g>
<g><path style="opacity:0.525" fill="#5c5c5c" d="M 498.5,906.5 C 500.579,906.971 502.579,907.637 504.5,908.5C 489.015,909.789 473.681,912.622 458.5,917C 450.559,919.439 445.559,924.606 443.5,932.5C 444.252,939.09 447.585,943.923 453.5,947C 468.153,953.497 483.486,957.497 499.5,959C 564.83,967.637 630.164,967.637 695.5,959C 712.935,957.475 729.601,953.142 745.5,946C 757.399,937.295 757.399,928.629 745.5,920C 738.491,916.664 731.158,914.33 723.5,913C 711.215,911.024 698.882,909.524 686.5,908.5C 687.93,907.463 689.597,906.796 691.5,906.5C 707.021,906.693 722.355,908.527 737.5,912C 743.116,913.758 748.449,916.092 753.5,919C 761.474,925.71 762.974,933.544 758,942.5C 749.29,950.192 739.123,955.025 727.5,957C 651.096,970.235 574.43,971.901 497.5,962C 480.065,960.475 463.399,956.142 447.5,949C 439.019,944.204 435.853,937.037 438,927.5C 442.14,920.169 448.307,915.335 456.5,913C 470.253,909.208 484.253,907.041 498.5,906.5 Z"/></g>
<g><path style="opacity:0.544" fill="#535353" d="M 504.5,908.5 C 506.403,908.796 508.07,909.463 509.5,910.5C 493.189,911.039 477.189,913.539 461.5,918C 455.926,920.194 451.426,923.694 448,928.5C 446.128,936.59 448.961,942.423 456.5,946C 471.894,952.28 487.894,956.28 504.5,958C 568.873,965.578 633.207,965.245 697.5,957C 713.151,955.338 728.151,951.338 742.5,945C 752.698,937.657 753.031,929.991 743.5,922C 735.621,917.946 727.288,915.28 718.5,914C 705.912,911.916 693.245,910.749 680.5,910.5C 682.214,909.262 684.214,908.595 686.5,908.5C 698.882,909.524 711.215,911.024 723.5,913C 731.158,914.33 738.491,916.664 745.5,920C 757.399,928.629 757.399,937.295 745.5,946C 729.601,953.142 712.935,957.475 695.5,959C 630.164,967.637 564.83,967.637 499.5,959C 483.486,957.497 468.153,953.497 453.5,947C 447.585,943.923 444.252,939.09 443.5,932.5C 445.559,924.606 450.559,919.439 458.5,917C 473.681,912.622 489.015,909.789 504.5,908.5 Z"/></g>
<g><path style="opacity:0.564" fill="#4d4d4d" d="M 509.5,910.5 C 511.698,910.875 513.698,911.542 515.5,912.5C 504.094,912.897 492.76,914.064 481.5,916C 471.747,917.358 462.914,920.858 455,926.5C 451.161,932.967 452.327,938.467 458.5,943C 474.057,950.114 490.39,954.447 507.5,956C 569.874,963.566 632.207,963.233 694.5,955C 709.869,953.492 724.535,949.492 738.5,943C 746.758,935.831 746.425,929.164 737.5,923C 731.773,920.202 725.773,918.202 719.5,917C 705.413,914.678 691.413,912.845 677.5,911.5C 678.209,910.596 679.209,910.263 680.5,910.5C 693.245,910.749 705.912,911.916 718.5,914C 727.288,915.28 735.621,917.946 743.5,922C 753.031,929.991 752.698,937.657 742.5,945C 728.151,951.338 713.151,955.338 697.5,957C 633.207,965.245 568.873,965.578 504.5,958C 487.894,956.28 471.894,952.28 456.5,946C 448.961,942.423 446.128,936.59 448,928.5C 451.426,923.694 455.926,920.194 461.5,918C 477.189,913.539 493.189,911.039 509.5,910.5 Z"/></g>
<g><path style="opacity:0.584" fill="#474747" d="M 677.5,911.5 C 691.413,912.845 705.413,914.678 719.5,917C 725.773,918.202 731.773,920.202 737.5,923C 746.425,929.164 746.758,935.831 738.5,943C 724.535,949.492 709.869,953.492 694.5,955C 632.207,963.233 569.874,963.566 507.5,956C 490.39,954.447 474.057,950.114 458.5,943C 452.327,938.467 451.161,932.967 455,926.5C 462.914,920.858 471.747,917.358 481.5,916C 492.76,914.064 504.094,912.897 515.5,912.5C 516.791,912.263 517.791,912.596 518.5,913.5C 507.281,914.731 495.947,916.231 484.5,918C 474.619,918.953 466.119,922.786 459,929.5C 457.537,935.74 459.703,940.24 465.5,943C 481.901,949.415 498.901,953.415 516.5,955C 572.872,961.236 629.205,960.903 685.5,954C 702.607,952.447 718.94,948.114 734.5,941C 739.145,937.59 740.145,933.424 737.5,928.5C 735.246,926.081 732.579,924.248 729.5,923C 710.242,917.368 690.575,914.201 670.5,913.5C 672.515,912.076 674.848,911.41 677.5,911.5 Z"/></g>
<g><path style="opacity:0.604" fill="#414141" d="M 518.5,913.5 C 521.067,913.721 523.401,914.388 525.5,915.5C 508.932,916.462 492.598,918.962 476.5,923C 472.069,924.629 468.236,927.129 465,930.5C 464.041,934.421 465.208,937.588 468.5,940C 484.362,947.242 501.028,951.575 518.5,953C 571.163,958.979 623.83,958.979 676.5,953C 693.81,951.506 710.476,947.506 726.5,941C 734.794,934.788 734.127,929.455 724.5,925C 704.965,919.09 684.965,915.923 664.5,915.5C 666.102,913.926 668.102,913.259 670.5,913.5C 690.575,914.201 710.242,917.368 729.5,923C 732.579,924.248 735.246,926.081 737.5,928.5C 740.145,933.424 739.145,937.59 734.5,941C 718.94,948.114 702.607,952.447 685.5,954C 629.205,960.903 572.872,961.236 516.5,955C 498.901,953.415 481.901,949.415 465.5,943C 459.703,940.24 457.537,935.74 459,929.5C 466.119,922.786 474.619,918.953 484.5,918C 495.947,916.231 507.281,914.731 518.5,913.5 Z"/></g>
<g><path style="opacity:0.626" fill="#3b3b3b" d="M 525.5,915.5 C 528.067,915.721 530.401,916.388 532.5,917.5C 515.21,918.518 498.21,921.351 481.5,926C 473.512,929.275 472.512,933.941 478.5,940C 493.29,945.826 508.623,949.492 524.5,951C 584.497,958.232 644.163,956.232 703.5,945C 708.739,943.587 713.739,941.587 718.5,939C 724.141,934.189 723.474,930.189 716.5,927C 696.936,921.22 676.936,918.054 656.5,917.5C 658.905,916.232 661.572,915.565 664.5,915.5C 684.965,915.923 704.965,919.09 724.5,925C 734.127,929.455 734.794,934.788 726.5,941C 710.476,947.506 693.81,951.506 676.5,953C 623.83,958.979 571.163,958.979 518.5,953C 501.028,951.575 484.362,947.242 468.5,940C 465.208,937.588 464.041,934.421 465,930.5C 468.236,927.129 472.069,924.629 476.5,923C 492.598,918.962 508.932,916.462 525.5,915.5 Z"/></g>
<g><path style="opacity:0.653" fill="#353535" d="M 532.5,917.5 C 537.412,917.898 542.079,918.898 546.5,920.5C 529.946,921.025 513.612,923.191 497.5,927C 493.793,927.936 490.626,929.769 488,932.5C 487.835,934.678 488.668,936.511 490.5,938C 502.949,943.363 515.949,946.696 529.5,948C 574.498,953.945 619.498,953.945 664.5,948C 678.773,946.714 692.439,943.214 705.5,937.5C 707.256,935.809 707.756,933.809 707,931.5C 697.461,926.572 687.294,923.739 676.5,923C 664.543,921.504 652.543,920.67 640.5,920.5C 645.63,919.087 650.963,918.087 656.5,917.5C 676.936,918.054 696.936,921.22 716.5,927C 723.474,930.189 724.141,934.189 718.5,939C 713.739,941.587 708.739,943.587 703.5,945C 644.163,956.232 584.497,958.232 524.5,951C 508.623,949.492 493.29,945.826 478.5,940C 472.512,933.941 473.512,929.275 481.5,926C 498.21,921.351 515.21,918.518 532.5,917.5 Z"/></g>
<g><path style="opacity:0.681" fill="#2f2f2f" d="M 546.5,920.5 C 551.049,920.624 555.382,921.291 559.5,922.5C 544.441,923.407 529.441,925.24 514.5,928C 510.885,928.732 507.552,930.065 504.5,932C 503.167,933.667 503.167,935.333 504.5,937C 516.317,942.031 528.65,945.031 541.5,946C 586.696,951.131 631.696,949.797 676.5,942C 681.933,941.031 686.766,938.864 691,935.5C 691.667,934.5 691.667,933.5 691,932.5C 687.763,930.42 684.263,928.92 680.5,928C 662.298,924.847 643.965,923.013 625.5,922.5C 630.306,921.407 635.306,920.741 640.5,920.5C 652.543,920.67 664.543,921.504 676.5,923C 687.294,923.739 697.461,926.572 707,931.5C 707.756,933.809 707.256,935.809 705.5,937.5C 692.439,943.214 678.773,946.714 664.5,948C 619.498,953.945 574.498,953.945 529.5,948C 515.949,946.696 502.949,943.363 490.5,938C 488.668,936.511 487.835,934.678 488,932.5C 490.626,929.769 493.793,927.936 497.5,927C 513.612,923.191 529.946,921.025 546.5,920.5 Z"/></g>
<g><path style="opacity:0.71" fill="#292929" d="M 559.5,922.5 C 581.502,923.82 603.502,923.82 625.5,922.5C 643.965,923.013 662.298,924.847 680.5,928C 684.263,928.92 687.763,930.42 691,932.5C 691.667,933.5 691.667,934.5 691,935.5C 686.766,938.864 681.933,941.031 676.5,942C 631.696,949.797 586.696,951.131 541.5,946C 528.65,945.031 516.317,942.031 504.5,937C 503.167,935.333 503.167,933.667 504.5,932C 507.552,930.065 510.885,928.732 514.5,928C 529.441,925.24 544.441,923.407 559.5,922.5 Z"/></g>
<g><path style="opacity:0.737" fill="#232323" d="M 579.5,926.5 C 604.967,925.954 630.3,927.454 655.5,931C 664.833,933.667 664.833,936.333 655.5,939C 616.491,946.298 577.491,946.298 538.5,939C 536.385,938.443 534.385,937.609 532.5,936.5C 531.167,935.5 531.167,934.5 532.5,933.5C 535.94,931.631 539.607,930.465 543.5,930C 555.615,928.431 567.615,927.264 579.5,926.5 Z"/></g>
</svg>
