<?xml version="1.0" encoding="UTF-8"?>
<!DOCTYPE svg PUBLIC "-//W3C//DTD SVG 1.1//EN" "http://www.w3.org/Graphics/SVG/1.1/DTD/svg11.dtd">
<svg xmlns="http://www.w3.org/2000/svg" version="1.1" width="296px" height="171px" style="shape-rendering:geometricPrecision; text-rendering:geometricPrecision; image-rendering:optimizeQuality; fill-rule:evenodd; clip-rule:evenodd" xmlns:xlink="http://www.w3.org/1999/xlink">
<g><path style="opacity:1" fill="#f5f5f5" d="M -0.5,-0.5 C 41.1667,-0.5 82.8333,-0.5 124.5,-0.5C 123.828,0.267389 122.995,0.934056 122,1.5C 121.667,10.5 121.333,19.5 121,28.5C 117.087,32.2126 116.421,36.5459 119,41.5C 124.658,45.436 130.991,47.1027 138,46.5C 144.92,46.7498 151.42,45.4165 157.5,42.5C 157.5,43.5 157.5,44.5 157.5,45.5C 159.5,45.5 161.5,45.5 163.5,45.5C 163.567,46.9587 163.234,48.2921 162.5,49.5C 160.597,48.6433 158.597,47.9766 156.5,47.5C 144.492,50.1384 132.492,50.1384 120.5,47.5C 118.272,48.2186 116.439,49.552 115,51.5C 103.149,74.5781 99.4825,98.9115 104,124.5C 105.11,137.74 108.61,150.24 114.5,162C 120.104,165.09 126.104,166.757 132.5,167C 146.963,168.1 161.296,167.267 175.5,164.5C 176.341,166.379 176.675,168.379 176.5,170.5C 117.5,170.5 58.5,170.5 -0.5,170.5C -0.5,113.5 -0.5,56.5 -0.5,-0.5 Z"/></g>
<g><path style="opacity:1" fill="#040405" d="M 124.5,-0.5 C 133.5,-0.5 142.5,-0.5 151.5,-0.5C 152.688,0.363622 153.855,1.36362 155,2.5C 155.333,11.1667 155.667,19.8333 156,28.5C 160.107,32.6993 160.607,37.366 157.5,42.5C 151.42,45.4165 144.92,46.7498 138,46.5C 130.991,47.1027 124.658,45.436 119,41.5C 116.421,36.5459 117.087,32.2126 121,28.5C 121.333,19.5 121.667,10.5 122,1.5C 122.995,0.934056 123.828,0.267389 124.5,-0.5 Z"/></g>
<g><path style="opacity:1" fill="#f6f6f6" d="M 151.5,-0.5 C 199.5,-0.5 247.5,-0.5 295.5,-0.5C 295.5,56.5 295.5,113.5 295.5,170.5C 255.833,170.5 216.167,170.5 176.5,170.5C 176.675,168.379 176.341,166.379 175.5,164.5C 178.851,163.33 182.185,161.83 185.5,160C 187.487,158.681 188.654,156.848 189,154.5C 193.665,130.476 193.665,106.476 189,82.5C 184.384,68.0571 175.551,57.0571 162.5,49.5C 163.234,48.2921 163.567,46.9587 163.5,45.5C 161.5,45.5 159.5,45.5 157.5,45.5C 157.5,44.5 157.5,43.5 157.5,42.5C 160.607,37.366 160.107,32.6993 156,28.5C 155.667,19.8333 155.333,11.1667 155,2.5C 153.855,1.36362 152.688,0.363622 151.5,-0.5 Z"/></g>
<g><path style="opacity:1" fill="#eaeaea" d="M 126.5,4.5 C 134.42,4.18496 142.253,4.51829 150,5.5C 150.5,13.4931 150.666,21.4931 150.5,29.5C 142.493,30.795 134.493,30.795 126.5,29.5C 126.5,21.1667 126.5,12.8333 126.5,4.5 Z"/></g>
<g><path style="opacity:1" fill="#e9e9e9" d="M 122.5,33.5 C 132.669,36.1138 142.836,36.1138 153,33.5C 153.495,35.4727 153.662,37.4727 153.5,39.5C 143.746,42.2532 134.08,42.0865 124.5,39C 122.845,37.5557 122.178,35.7224 122.5,33.5 Z"/></g>
<g><path style="opacity:1" fill="#09090a" d="M 162.5,49.5 C 175.551,57.0571 184.384,68.0571 189,82.5C 193.665,106.476 193.665,130.476 189,154.5C 188.654,156.848 187.487,158.681 185.5,160C 182.185,161.83 178.851,163.33 175.5,164.5C 161.296,167.267 146.963,168.1 132.5,167C 126.104,166.757 120.104,165.09 114.5,162C 108.61,150.24 105.11,137.74 104,124.5C 99.4825,98.9115 103.149,74.5781 115,51.5C 116.439,49.552 118.272,48.2186 120.5,47.5C 132.492,50.1384 144.492,50.1384 156.5,47.5C 158.597,47.9766 160.597,48.6433 162.5,49.5 Z"/></g>
<g><path style="opacity:1" fill="#f4f4f4" d="M 119.5,53.5 C 125.31,54.2886 131.143,54.9553 137,55.5C 144.481,54.376 151.981,53.876 159.5,54C 177.68,65.8555 186.847,82.6888 187,104.5C 187.95,119.242 187.283,133.909 185,148.5C 184.849,151.119 184.015,153.453 182.5,155.5C 170.19,160.469 157.356,162.802 144,162.5C 138.127,162.443 132.293,161.943 126.5,161C 122.938,160.261 119.772,158.761 117,156.5C 108.771,133.11 106.105,109.11 109,84.5C 111.612,73.831 115.112,63.4976 119.5,53.5 Z"/></g>
<g><path style="opacity:1" fill="#f3f3f3" d="M 52.5,45.5 C 54.5,45.5 56.5,45.5 58.5,45.5C 57.1555,51.6624 59.3222,53.6624 65,51.5C 65.4955,49.5273 65.6621,47.5273 65.5,45.5C 67.5,45.5 69.5,45.5 71.5,45.5C 70.1667,51.5 72.5,53.8333 78.5,52.5C 78.5,54.5 78.5,56.5 78.5,58.5C 80.5,58.5 82.5,58.5 84.5,58.5C 84.5,60.8333 84.5,63.1667 84.5,65.5C 82.5,65.5 80.5,65.5 78.5,65.5C 78.5,67.5 78.5,69.5 78.5,71.5C 72.5,70.1667 70.1667,72.5 71.5,78.5C 69.5,78.5 67.5,78.5 65.5,78.5C 65.5,80.5 65.5,82.5 65.5,84.5C 63.1667,84.5 60.8333,84.5 58.5,84.5C 58.5,82.5 58.5,80.5 58.5,78.5C 56.5,78.5 54.5,78.5 52.5,78.5C 53.8333,72.5 51.5,70.1667 45.5,71.5C 45.5,69.5 45.5,67.5 45.5,65.5C 51.6624,66.8445 53.6624,64.6778 51.5,59C 49.5273,58.5045 47.5273,58.3379 45.5,58.5C 45.5,56.5 45.5,54.5 45.5,52.5C 51.5,53.8333 53.8333,51.5 52.5,45.5 Z"/></g>
<g><path style="opacity:1" fill="#0a0a0b" d="M 154.5,76.5 C 175.084,80.3156 183.918,92.6489 181,113.5C 180.222,118.235 178.055,122.068 174.5,125C 171.208,125.936 168.208,125.436 165.5,123.5C 163.561,116.202 161.727,108.869 160,101.5C 156.915,96.328 153.581,91.328 150,86.5C 149.333,84.8333 149.333,83.1667 150,81.5C 151.707,79.9625 153.207,78.2959 154.5,76.5 Z"/></g>
<g><path style="opacity:1" fill="#f0f0f0" d="M 155.5,82.5 C 171.392,85.583 178.226,95.2496 176,111.5C 175.562,114.376 174.562,117.043 173,119.5C 171.989,120.337 170.822,120.67 169.5,120.5C 169.268,107.917 165.101,96.9171 157,87.5C 155.991,85.9751 155.491,84.3084 155.5,82.5 Z"/></g>
</svg>
