<?xml version="1.0" encoding="UTF-8"?>
<!DOCTYPE svg PUBLIC "-//W3C//DTD SVG 1.1//EN" "http://www.w3.org/Graphics/SVG/1.1/DTD/svg11.dtd">
<svg xmlns="http://www.w3.org/2000/svg" version="1.1" width="225px" height="225px" style="shape-rendering:geometricPrecision; text-rendering:geometricPrecision; image-rendering:optimizeQuality; fill-rule:evenodd; clip-rule:evenodd" xmlns:xlink="http://www.w3.org/1999/xlink">
<g><path style="opacity:1" fill="#040404" d="M 83.5,-0.5 C 84.5,-0.5 85.5,-0.5 86.5,-0.5C 104.298,17.7986 122.298,35.9653 140.5,54C 141.5,54.6667 142.5,54.6667 143.5,54C 145.054,52.108 146.888,50.608 149,49.5C 158.589,57.0852 167.589,65.4186 176,74.5C 177.187,76.0444 177.52,77.7111 177,79.5C 175.075,81.2132 172.908,82.5465 170.5,83.5C 187.819,101.319 205.319,118.986 223,136.5C 223.667,138.833 223.667,141.167 223,143.5C 195.938,170.729 168.772,197.729 141.5,224.5C 140.167,224.5 138.833,224.5 137.5,224.5C 119.228,206.729 101.062,188.729 83,170.5C 82.0713,175.88 79.238,177.38 74.5,175C 67,167.5 59.5,160 52,152.5C 51.2189,151.271 50.7189,149.938 50.5,148.5C 52.3484,145.871 53.8484,143.204 55,140.5C 37,122.5 19,104.5 1,86.5C 0.333333,84.8333 0.333333,83.1667 1,81.5C 28.395,53.938 55.895,26.6047 83.5,-0.5 Z"/></g>
<g><path style="opacity:1" fill="#fefefe" d="M 86.5,-0.5 C 132.5,-0.5 178.5,-0.5 224.5,-0.5C 224.5,74.5 224.5,149.5 224.5,224.5C 196.833,224.5 169.167,224.5 141.5,224.5C 168.772,197.729 195.938,170.729 223,143.5C 223.667,141.167 223.667,138.833 223,136.5C 205.319,118.986 187.819,101.319 170.5,83.5C 172.908,82.5465 175.075,81.2132 177,79.5C 177.52,77.7111 177.187,76.0444 176,74.5C 167.589,65.4186 158.589,57.0852 149,49.5C 146.888,50.608 145.054,52.108 143.5,54C 142.5,54.6667 141.5,54.6667 140.5,54C 122.298,35.9653 104.298,17.7986 86.5,-0.5 Z"/></g>
<g><path style="opacity:1" fill="#f8f8f8" d="M 83.5,9.5 C 89.9094,14.4032 95.9094,19.9032 101.5,26C 95.9854,31.6816 90.3187,37.1816 84.5,42.5C 78.8333,37.5 73.5,32.1667 68.5,26.5C 73.9167,21.0906 78.9167,15.4239 83.5,9.5 Z"/></g>
<g><path style="opacity:1" fill="#fbfbfb" d="M 61.5,32.5 C 67.7557,37.0855 73.4224,42.4188 78.5,48.5C 74.8489,52.6516 71.0156,56.6516 67,60.5C 61.5,55 56,49.5 50.5,44C 54.3705,40.2977 58.0371,36.4643 61.5,32.5 Z"/></g>
<g><path style="opacity:1" fill="#f9f9f9" d="M 106.5,31.5 C 111.631,36.1302 116.631,40.9635 121.5,46C 115.985,51.6816 110.319,57.1816 104.5,62.5C 99.5,58.1667 94.8333,53.5 90.5,48.5C 95.855,42.813 101.188,37.1463 106.5,31.5 Z"/></g>
<g><path style="opacity:1" fill="#f9f9f9" d="M 43.5,50.5 C 49.7557,55.0855 55.4224,60.4188 60.5,66.5C 56.8489,70.6516 53.0156,74.6516 49,78.5C 43.3184,72.9854 37.8184,67.3187 32.5,61.5C 36.521,58.1456 40.1877,54.479 43.5,50.5 Z"/></g>
<g><path style="opacity:1" fill="#f6f6f6" d="M 126.5,52.5 C 130.235,54.7246 133.568,57.558 136.5,61C 130.985,66.6816 125.319,72.1816 119.5,77.5C 116.167,74.8333 113.167,71.8333 110.5,68.5C 116.188,63.479 121.521,58.1457 126.5,52.5 Z"/></g>
<g><path style="opacity:1" fill="#fcfcfc" d="M 83.5,54.5 C 89.0878,58.4171 94.0878,63.0838 98.5,68.5C 94.8489,72.6516 91.0156,76.6516 87,80.5C 82.1667,75.6667 77.3333,70.8333 72.5,66C 76.3705,62.2977 80.0371,58.4643 83.5,54.5 Z"/></g>
<g><path style="opacity:1" fill="#f8f8f8" d="M 25.5,67.5 C 31.9094,72.4032 37.9094,77.9032 43.5,84C 37.9854,89.6816 32.3187,95.1816 26.5,100.5C 20.8333,95.5 15.5,90.1667 10.5,84.5C 15.9167,79.0906 20.9167,73.4239 25.5,67.5 Z"/></g>
<g><path style="opacity:1" fill="#fbfbfb" d="M 65.5,72.5 C 71.0878,76.4171 76.0878,81.0838 80.5,86.5C 76.8489,90.6516 73.0156,94.6516 69,98.5C 64.1667,93.6667 59.3333,88.8333 54.5,84C 58.3705,80.2977 62.0371,76.4643 65.5,72.5 Z"/></g>
<g><path style="opacity:1" fill="#f9f9f9" d="M 104.5,74.5 C 107.812,77.1456 110.812,80.1456 113.5,83.5C 109.849,87.6516 106.016,91.6516 102,95.5C 98.9838,92.6511 96.1504,89.6511 93.5,86.5C 97.1886,82.4799 100.855,78.4799 104.5,74.5 Z"/></g>
<g><path style="opacity:1" fill="#fefefe" d="M -0.5,-0.5 C 27.5,-0.5 55.5,-0.5 83.5,-0.5C 55.895,26.6047 28.395,53.938 1,81.5C 0.333333,83.1667 0.333333,84.8333 1,86.5C 19,104.5 37,122.5 55,140.5C 53.8484,143.204 52.3484,145.871 50.5,148.5C 50.7189,149.938 51.2189,151.271 52,152.5C 59.5,160 67,167.5 74.5,175C 79.238,177.38 82.0713,175.88 83,170.5C 101.062,188.729 119.228,206.729 137.5,224.5C 91.5,224.5 45.5,224.5 -0.5,224.5C -0.5,149.5 -0.5,74.5 -0.5,-0.5 Z"/></g>
<g><path style="opacity:1" fill="#fcfcfc" d="M 159.5,86.5 C 178.386,103.717 196.719,121.717 214.5,140.5C 189.833,165.833 164.833,190.833 139.5,215.5C 121.107,198.108 103.441,180.108 86.5,161.5C 88.4372,154.688 90.7705,148.022 93.5,141.5C 105.379,137.362 117.379,133.529 129.5,130C 133.706,118.36 137.54,106.527 141,94.5C 147.209,91.7158 153.376,89.0491 159.5,86.5 Z"/></g>
<g><path style="opacity:1" fill="#f9f9f9" d="M 48.5,89.5 C 53.6313,94.1302 58.6313,98.9635 63.5,104C 57.9854,109.682 52.3187,115.182 46.5,120.5C 41.5,116.167 36.8333,111.5 32.5,106.5C 37.855,100.813 43.1883,95.1463 48.5,89.5 Z"/></g>
<g><path style="opacity:1" fill="#f8f8f8" d="M 86.5,92.5 C 89.8123,95.1456 92.8123,98.1456 95.5,101.5C 91.8489,105.652 88.0156,109.652 84,113.5C 80.9838,110.651 78.1504,107.651 75.5,104.5C 79.1886,100.48 82.8553,96.4799 86.5,92.5 Z"/></g>
<g><path style="opacity:1" fill="#f7f7f7" d="M 68.5,110.5 C 72.2347,112.725 75.568,115.558 78.5,119C 72.9854,124.682 67.3187,130.182 61.5,135.5C 58.3489,132.85 55.3489,130.016 52.5,127C 58.0363,121.631 63.3697,116.131 68.5,110.5 Z"/></g>
</svg>
