<?xml version="1.0" encoding="UTF-8"?>
<!DOCTYPE svg PUBLIC "-//W3C//DTD SVG 1.1//EN" "http://www.w3.org/Graphics/SVG/1.1/DTD/svg11.dtd">
<svg xmlns="http://www.w3.org/2000/svg" version="1.1" width="225px" height="225px" style="shape-rendering:geometricPrecision; text-rendering:geometricPrecision; image-rendering:optimizeQuality; fill-rule:evenodd; clip-rule:evenodd" xmlns:xlink="http://www.w3.org/1999/xlink">
<g><path style="opacity:1" fill="#fefefe" d="M -0.5,-0.5 C 74.5,-0.5 149.5,-0.5 224.5,-0.5C 224.5,74.5 224.5,149.5 224.5,224.5C 149.5,224.5 74.5,224.5 -0.5,224.5C -0.5,149.5 -0.5,74.5 -0.5,-0.5 Z"/></g>
<g><path style="opacity:1" fill="#0b0b0b" d="M 66.5,143.5 C 69.0316,142.404 71.3649,141.071 73.5,139.5C 74.8221,139.67 75.9887,139.337 77,138.5C 79.2301,119.759 81.8967,101.093 85,82.5C 88.4315,76.5339 93.5982,73.8672 100.5,74.5C 100.334,68.4908 100.501,62.4908 101,56.5C 102.699,55.5939 104.533,55.2606 106.5,55.5C 102.855,36.3192 110.522,29.4858 129.5,35C 133.39,36.9449 135.057,40.1116 134.5,44.5C 139.511,44.3341 144.511,44.5007 149.5,45C 151.812,46.314 153.812,47.9806 155.5,50C 155.333,51.5 154.5,52.3333 153,52.5C 151.177,51.3488 149.344,50.1821 147.5,49C 143.179,48.501 138.846,48.3343 134.5,48.5C 134.5,50.8333 134.5,53.1667 134.5,55.5C 136.467,55.2606 138.301,55.5939 140,56.5C 140.499,62.4908 140.666,68.4908 140.5,74.5C 148.976,73.8148 154.476,77.4815 157,85.5C 160.949,113.925 164.449,142.425 167.5,171C 168.033,179.276 164.7,185.276 157.5,189C 143.833,189.167 130.167,189.333 116.5,189.5C 101.768,189.642 87.1017,189.142 72.5,188C 55.2176,178.237 51.7176,164.737 62,147.5C 63.3712,145.959 64.8712,144.625 66.5,143.5 Z"/></g>
<g><path style="opacity:1" fill="#fafafa" d="M 129.5,40.5 C 129.5,45.1667 129.5,49.8333 129.5,54.5C 123.5,54.5 117.5,54.5 111.5,54.5C 111.5,50.1667 111.5,45.8333 111.5,41.5C 111.414,40.5041 111.748,39.6708 112.5,39C 117.833,38.3333 123.167,38.3333 128.5,39C 129.056,39.3826 129.389,39.8826 129.5,40.5 Z"/></g>
<g><path style="opacity:1" fill="#8d8d8d" d="M 129.5,40.5 C 130.487,45.3054 130.821,50.3054 130.5,55.5C 123.833,55.5 117.167,55.5 110.5,55.5C 110.181,50.6367 110.514,45.97 111.5,41.5C 111.5,45.8333 111.5,50.1667 111.5,54.5C 117.5,54.5 123.5,54.5 129.5,54.5C 129.5,49.8333 129.5,45.1667 129.5,40.5 Z"/></g>
<g><path style="opacity:1" fill="#fefefe" d="M 104.5,60.5 C 115.167,60.5 125.833,60.5 136.5,60.5C 136.5,65.1667 136.5,69.8333 136.5,74.5C 125.833,74.5 115.167,74.5 104.5,74.5C 104.5,69.8333 104.5,65.1667 104.5,60.5 Z"/></g>
<g><path style="opacity:1" fill="#fafafa" d="M 162.5,163.5 C 153.225,165.473 143.558,166.14 133.5,165.5C 133.784,163.585 133.451,161.919 132.5,160.5C 130.507,149.007 123.841,141.84 112.5,139C 102.172,138.5 91.8387,138.334 81.5,138.5C 83.5828,120.837 85.7495,103.17 88,85.5C 89.5629,82.2716 92.0629,80.1049 95.5,79C 112.167,78.3333 128.833,78.3333 145.5,79C 149.77,80.2704 152.27,83.1037 153,87.5C 156.496,112.803 159.663,138.136 162.5,163.5 Z"/></g>
<g><path style="opacity:1" fill="#0e0e0e" d="M 118.5,89.5 C 119.978,89.238 121.311,89.5713 122.5,90.5C 127.418,96.6621 131.584,103.329 135,110.5C 138.736,127.52 131.903,135.353 114.5,134C 104.968,128.748 102.135,120.915 106,110.5C 109.686,103.114 113.853,96.114 118.5,89.5 Z"/></g>
<g><path style="opacity:1" fill="#f9f9f9" d="M 119.5,95.5 C 126.116,101.717 130.449,109.383 132.5,118.5C 129.858,129.987 123.191,133.154 112.5,128C 108.872,124.169 107.705,119.669 109,114.5C 112.017,107.791 115.517,101.457 119.5,95.5 Z"/></g>
<g><path style="opacity:1" fill="#0e0e0e" d="M 72.5,139.5 C 69.994,140.75 67.3274,141.416 64.5,141.5C 60.3635,141.518 57.8635,139.518 57,135.5C 55.8333,126.667 59.6667,122.833 68.5,124C 74.9226,127.723 76.2559,132.89 72.5,139.5 Z"/></g>
<g><path style="opacity:1" fill="#efefef" d="M 63.5,127.5 C 68.3247,127.488 70.4914,129.821 70,134.5C 68.1799,137.203 65.6799,138.036 62.5,137C 59.6749,133.476 60.0082,130.31 63.5,127.5 Z"/></g>
<g><path style="opacity:1" fill="#9b9b9b" d="M 72.5,139.5 C 72.8333,139.5 73.1667,139.5 73.5,139.5C 71.3649,141.071 69.0316,142.404 66.5,143.5C 65.8333,142.833 65.1667,142.167 64.5,141.5C 67.3274,141.416 69.994,140.75 72.5,139.5 Z"/></g>
<g><path style="opacity:1" fill="#fbfbfb" d="M 78.5,142.5 C 89.1719,142.333 99.8385,142.5 110.5,143C 123.65,146.465 129.484,154.965 128,168.5C 125.869,177.298 120.369,182.798 111.5,185C 100.167,185.667 88.8333,185.667 77.5,185C 64.7941,180.771 59.2941,171.937 61,158.5C 63.8606,149.802 69.694,144.468 78.5,142.5 Z"/></g>
<g><path style="opacity:1" fill="#949494" d="M 132.5,160.5 C 133.451,161.919 133.784,163.585 133.5,165.5C 143.558,166.14 153.225,165.473 162.5,163.5C 163.404,164.209 163.737,165.209 163.5,166.5C 153.167,166.5 142.833,166.5 132.5,166.5C 132.5,164.5 132.5,162.5 132.5,160.5 Z"/></g>
<g><path style="opacity:1" fill="#f7f7f7" d="M 131.5,170.5 C 142.167,170.5 152.833,170.5 163.5,170.5C 163.719,176.562 161.386,181.395 156.5,185C 145.167,185.667 133.833,185.667 122.5,185C 126.983,181.032 129.983,176.198 131.5,170.5 Z"/></g>
</svg>
