<svg width="48" height="48" viewBox="0 0 48 48" fill="none" xmlns="http://www.w3.org/2000/svg">
<path d="M36 6.00002V6.00002C38.8284 6.00002 40.2426 6.00001 41.1213 6.87869C41.1213 6.87869 41.1213 6.8787 41.1213 6.8787C42 7.75738 42 9.17159 42 12L42 17C42 17.4714 42 17.7071 41.8536 17.8536C41.7071 18 41.4714 18 41 18L30 18M36 6.00002V6.00002C33.1716 6.00002 31.7574 6.00002 30.8787 6.87869C30.8787 6.87869 30.8787 6.8787 30.8787 6.8787C30 7.75738 30 9.17159 30 12L30 18M36 6.00002L10 6.00002C8.11438 6.00002 7.17157 6.00002 6.58579 6.5858C6 7.17159 6 8.1144 6 10L6 42L12 40L18 42L24 40L30 42L30 18" stroke="#E92828"/>
<path d="M14 14L22 14" stroke="#E92828" stroke-linecap="round"/>
<path d="M16 22H14" stroke="#E92828" stroke-linecap="round"/>
<path d="M14 30L20 30" stroke="#E92828" stroke-linecap="round"/>
</svg>
