<svg width="80" height="80" viewBox="0 0 80 80" fill="none" xmlns="http://www.w3.org/2000/svg">
<g clip-path="url(#clip0_45_48)">
<path d="M26.5345 16.3484C31.049 16.3484 34.7087 12.6887 34.7087 8.17422C34.7087 3.65972 31.049 0 26.5345 0C22.02 0 18.3603 3.65972 18.3603 8.17422C18.3603 12.6887 22.02 16.3484 26.5345 16.3484Z" fill="white"/>
<path d="M69.4452 44.6595C73.5815 44.6595 76.9347 41.3063 76.9347 37.17C76.9347 33.0336 73.5815 29.6805 69.4452 29.6805C65.3089 29.6805 61.9557 33.0336 61.9557 37.17C61.9557 41.3063 65.3089 44.6595 69.4452 44.6595Z" fill="white"/>
<path d="M69.7756 52.112C69.7571 51.9044 69.7214 51.7141 69.6778 51.5291C69.5086 50.5284 69.0922 49.5503 68.3798 48.6686C68.3798 48.6686 65.3845 50.3486 64.828 49.9032C64.2715 49.4591 65.1704 46.4929 65.1704 46.4929C63.1057 45.8319 59.9993 46.9053 59.0463 47.4168C58.0959 47.9284 44.6225 44.9331 38.3371 41.5796C37.7727 41.2782 37.2057 41.1209 36.6544 41.0839C36.443 40.111 35.9063 39.1792 34.9506 38.4482C31.1292 35.5243 27.8312 32.1377 24.9668 28.3864C26.8821 25.3964 27.0685 21.6741 24.2847 18.9247C21.6754 16.3498 16.433 15.858 13.9414 18.9802C5.66274 29.3513 1.56242 37.4859 3.57028 50.7042C4.93309 49.775 5.69975 50.4108 6.10556 51.7432C6.10556 59.7746 6.10556 67.8087 6.10556 75.8402C6.10556 81.3866 14.7094 81.3866 14.7094 75.8402C14.7094 67.8656 14.7094 59.8923 14.7094 51.9124C15.2817 46.3752 16.5018 39.5493 19.0886 34.718C22.4434 38.8434 26.2635 42.5498 30.6044 45.8716C31.1992 46.3237 31.7888 46.5748 32.3598 46.6726C32.6533 47.1802 33.104 47.6468 33.7914 48.013C40.0701 51.3651 46.588 53.5567 53.5118 54.6393C51.4709 57.6267 49.6058 60.7224 47.8583 63.8948C46.9423 62.2147 46.0051 60.536 44.9846 58.9102C43.1394 55.9506 39.8586 52.1292 36.0001 54.4424C30.6401 57.665 26.857 64.7685 23.526 69.8959C23.0805 70.5846 22.8849 71.2534 22.8757 71.8972C22.1553 71.8998 21.4639 71.9025 20.8242 71.9091C15.7404 71.9368 15.788 79.8176 20.8731 79.7898C28.4934 79.7436 42.4216 79.7026 50.0407 79.6524C50.3354 79.6497 50.609 79.6206 50.8642 79.5704C53.0624 79.7713 55.2817 78.8143 56.5771 76.1442C58.7304 71.724 61.0568 67.3659 63.752 63.255C64.9866 67.9132 66.7473 72.4048 69.079 76.7761C71.4742 81.265 77.8732 76.6478 75.519 72.2316C72.1642 65.9476 70.4009 59.1811 69.7756 52.112ZM31.6526 71.8562C33.6896 68.7684 35.8283 65.7031 38.2763 62.9404C38.7588 63.7177 39.1858 64.5438 39.6114 65.2814C40.8579 67.4267 42.0118 69.6263 43.2081 71.806C39.5651 71.8245 35.515 71.839 31.6526 71.8562ZM61.0185 56.9116L58.5969 57.9703L58.3259 55.9916L63.7111 51.1312L61.0185 56.9116Z" fill="white"/>
</g>
<defs>
<clipPath id="clip0_45_48">
<rect width="80" height="80" fill="white"/>
</clipPath>
</defs>
</svg>
