<svg width="78" height="78" viewBox="0 0 78 78" fill="none" xmlns="http://www.w3.org/2000/svg">
<path d="M16.25 41.4687C16.25 37.056 16.25 34.8496 17.142 32.9102C18.034 30.9708 19.7092 29.535 23.0596 26.6632L26.3096 23.8775C32.3653 18.6868 35.3932 16.0915 39 16.0915C42.6068 16.0915 45.6346 18.6868 51.6904 23.8775L54.9404 26.6632C58.2908 29.535 59.966 30.9708 60.858 32.9102C61.75 34.8496 61.75 37.056 61.75 41.4687V55.25C61.75 61.3782 61.75 64.4424 59.8462 66.3462C57.9424 68.25 54.8783 68.25 48.75 68.25H29.25C23.1217 68.25 20.0576 68.25 18.1538 66.3462C16.25 64.4424 16.25 61.3782 16.25 55.25V41.4687Z" stroke="white"/>
<path d="M47.125 68.25V49.75C47.125 49.1977 46.6773 48.75 46.125 48.75H31.875C31.3227 48.75 30.875 49.1977 30.875 49.75V68.25" stroke="white" stroke-linecap="round" stroke-linejoin="round"/>
</svg>
