<svg width="80" height="80" viewBox="0 0 80 80" fill="none" xmlns="http://www.w3.org/2000/svg">
<path d="M48.3391 1.87187C45.7938 0.698437 42.9859 0 40 0C31.6109 0 24.4531 5.17656 21.4828 12.5H34.1687L48.3391 1.87187ZM58.5172 12.5C57.2828 9.45781 55.2875 6.84375 52.8156 4.7625L42.4984 12.5H58.5172ZM40 40C51.0453 40 60 31.0453 60 20C60 19.1437 59.8516 18.3281 59.7484 17.5H20.2516C20.1469 18.3281 20 19.1437 20 20C20 31.0453 28.9547 40 40 40ZM17.5 46.8281V80H37.5406L22.1578 45.3875C20.554 45.6831 18.9906 46.1666 17.5 46.8281ZM5 72.5C5 76.6422 8.35781 80 12.5 80V50.0375C7.95 53.8891 5 59.5719 5 66V72.5ZM45 65H36.3469L43.0141 80H45C49.1359 80 52.5 76.6359 52.5 72.5C52.5 68.3641 49.1359 65 45 65ZM54 45H51.3891C47.9141 46.5906 44.0641 47.5 40 47.5C35.9359 47.5 32.0859 46.5906 28.6109 45H27.4594L34.1266 60H45C51.8922 60 57.5 65.6078 57.5 72.5C57.5 75.325 56.5219 77.9047 54.9359 80H67.5C71.6422 80 75 76.6422 75 72.5V66C75 54.4016 65.5984 45 54 45Z" fill="#E92828"/>
</svg>
