<svg width="78" height="78" viewBox="0 0 78 78" fill="none" xmlns="http://www.w3.org/2000/svg">
<path d="M39 68.25V42.25M39 68.25L17.0875 52.5982C16.677 52.305 16.4717 52.1583 16.3608 51.943C16.25 51.7276 16.25 51.4753 16.25 50.9708V26M39 68.25L60.9125 52.5982C61.323 52.305 61.5283 52.1583 61.6392 51.943C61.75 51.7276 61.75 51.4753 61.75 50.9708V26M39 42.25L16.25 26M39 42.25L61.75 26M16.25 26L37.8375 10.5803C38.3989 10.1794 38.6795 9.9789 39 9.9789C39.3205 9.9789 39.6011 10.1794 40.1625 10.5803L61.75 26" stroke="white" stroke-linejoin="round"/>
</svg>
