<svg width="78" height="78" viewBox="0 0 78 78" fill="none" xmlns="http://www.w3.org/2000/svg">
<path d="M6.5 39L6.10957 38.6877L5.85969 39L6.10957 39.3123L6.5 39ZM35.75 39.5C36.0261 39.5 36.25 39.2761 36.25 39C36.25 38.7239 36.0261 38.5 35.75 38.5V39.5ZM19.1096 22.4377L6.10957 38.6877L6.89043 39.3123L19.8904 23.0623L19.1096 22.4377ZM6.10957 39.3123L19.1096 55.5623L19.8904 54.9377L6.89043 38.6877L6.10957 39.3123ZM6.5 39.5H35.75V38.5H6.5V39.5Z" fill="white"/>
<path d="M32.5 26.4288V16.3885C32.5 14.7702 32.5 13.961 32.974 13.4015C33.4479 12.842 34.2461 12.709 35.8424 12.4429L64.5136 7.6644C67.7567 7.12388 69.3782 6.85363 70.4391 7.75232C71.5 8.65102 71.5 10.2949 71.5 13.5828V64.4172C71.5 67.7051 71.5 69.349 70.4391 70.2477C69.3782 71.1464 67.7567 70.8761 64.5136 70.3356L35.8424 65.5571C34.2461 65.291 33.4479 65.158 32.974 64.5985C32.5 64.039 32.5 63.2298 32.5 61.6115V52.2144" stroke="white"/>
</svg>
