<svg width="283" height="210" viewBox="0 0 283 210" fill="none" xmlns="http://www.w3.org/2000/svg">
<path d="M277.439 164.724H267.947L147.941 26.948L164.213 8.30401C165.908 6.40801 165.569 3.24801 163.535 1.66801C161.501 0.0880105 158.111 0.404013 156.416 2.30001L141.5 19.364L126.584 2.30001C124.889 0.404013 121.499 0.0880105 119.465 1.66801C117.431 3.24801 117.092 6.40801 118.787 8.30401L135.059 26.948L15.053 164.724H5.561C2.849 164.724 0.475998 166.936 0.475998 169.464V204.856C0.475998 207.384 2.849 209.596 5.561 209.596H17.426H29.969H45.224H110.99H172.688H237.776H253.709H265.235H277.778C280.49 209.596 282.863 207.384 282.863 204.856V169.464C282.524 166.62 280.151 164.724 277.439 164.724ZM247.946 169.464V200.116H240.149L165.908 62.656L254.387 164.408H253.031C250.319 164.724 247.946 166.62 247.946 169.464ZM115.736 63.92L41.834 200.116H34.715V169.464C34.715 166.936 32.342 164.724 29.63 164.724H27.935L115.736 63.92ZM17.426 200.116H10.646V174.204H24.545V200.116H17.426ZM115.736 200.116V168.832C115.736 155.56 127.262 144.816 141.5 144.816C155.738 144.816 167.264 155.56 167.264 168.832V200.116H115.736ZM177.434 200.116V168.832C177.434 150.504 161.501 135.336 141.5 135.336C121.499 135.336 105.566 150.188 105.566 168.832V200.116H53.36L141.161 37.692L228.962 200.116H177.434ZM272.354 200.116H264.896H258.455V174.204H272.354V200.116Z" fill="#E92828"/>
</svg>
